<svg width="188" height="56" viewBox="0 0 188 56" fill="none" xmlns="http://www.w3.org/2000/svg">
<path d="M180.383 55.7983H6.9378C3.12201 55.7983 0 52.6636 0 48.8322V7.03522C0 3.20383 3.12201 0.0690626 6.9378 0.0690626H180.383C184.199 0.0690626 187.321 3.20383 187.321 7.03522V48.8322C187.321 52.6636 184.199 55.7983 180.383 55.7983Z" fill="black"/>
<path d="M180.383 0.0690626H6.9378C3.12201 0.0690626 0 3.20383 0 7.03522V48.8322C0 52.6636 3.12201 55.7983 6.9378 55.7983H180.383C184.199 55.7983 187.321 52.6636 187.321 48.8322V7.03522C187.321 3.20383 184.199 0.0690626 180.383 0.0690626ZM180.383 1.18365C183.596 1.18365 186.211 3.80905 186.211 7.03522V48.8322C186.211 52.0589 183.596 54.6843 180.383 54.6843H6.9378C3.72477 54.6843 1.11005 52.0589 1.11005 48.8322V7.03522C1.11005 3.80905 3.72477 1.18365 6.9378 1.18365H180.383Z" fill="#A6A6A6"/>
<path d="M65.7964 14.3406C65.7964 15.5079 65.4521 16.4375 64.7627 17.1309C63.9795 17.9554 62.9588 18.3679 61.7041 18.3679C60.5024 18.3679 59.4808 17.95 58.6406 17.1129C57.7989 16.2764 57.3789 15.2391 57.3789 14.0015C57.3789 12.7634 57.7989 11.7267 58.6406 10.8896C59.4808 10.0531 60.5024 9.63459 61.7041 9.63459C62.3003 9.63459 62.8711 9.75162 63.4131 9.98513C63.9551 10.2192 64.3898 10.5299 64.7151 10.919L63.9833 11.6542C63.4321 10.993 62.6733 10.6627 61.7041 10.6627C60.8277 10.6627 60.0699 10.9718 59.4304 11.5905C58.7907 12.21 58.471 13.0132 58.471 14.0015C58.471 14.9899 58.7907 15.7931 59.4304 16.4125C60.0699 17.0313 60.8277 17.3404 61.7041 17.3404C62.6337 17.3404 63.4088 17.0296 64.0293 16.4071C64.4321 16.0015 64.6651 15.4378 64.7274 14.7139H61.7041V13.7098H65.7384C65.7774 13.9281 65.7964 14.1377 65.7964 14.3406Z" fill="white"/>
<path d="M65.7965 14.3405H65.6577C65.6566 15.4811 65.3248 16.3671 64.6646 17.0322L64.6631 17.0333L64.6626 17.0344C63.9043 17.8305 62.9296 18.2268 61.7041 18.2284C60.5346 18.2268 59.5557 17.8262 58.7382 17.0142C57.9226 16.2006 57.5193 15.2073 57.5177 14.0014C57.5193 12.7948 57.9226 11.8021 58.7382 10.9891C59.5557 10.1765 60.5346 9.77541 61.7041 9.77374C62.2825 9.77374 62.8332 9.88701 63.3584 10.1129C63.8841 10.3404 64.2994 10.6385 64.6089 11.0087L64.7152 10.9188L64.6171 10.8203L63.8853 11.5561L63.9834 11.654L64.0902 11.5649C63.5134 10.8709 62.7037 10.5211 61.7041 10.5232C60.7953 10.522 59.9958 10.8481 59.3345 11.4903C58.6668 12.1347 58.3313 12.983 58.3324 14.0014C58.3313 15.0197 58.6668 15.868 59.3345 16.5124C59.9958 17.1547 60.7953 17.4807 61.7041 17.4796C62.6646 17.4812 63.4831 17.1541 64.1275 16.5054C64.5579 16.0721 64.8019 15.4719 64.8658 14.7257L64.8787 14.5744H61.8429V13.8489H65.7385V13.7096L65.6018 13.7341C65.6398 13.9454 65.6577 14.1461 65.6577 14.3405H65.7965H65.9352C65.9352 14.1287 65.9157 13.9111 65.875 13.6847L65.8545 13.5703H61.5654V14.7137V14.853H64.7275V14.7137L64.5893 14.7017C64.5281 15.4028 64.3058 15.9307 63.9313 16.3084C63.3351 16.9049 62.6034 17.1993 61.7041 17.2009C60.8602 17.1998 60.1443 16.9081 59.5269 16.3122C58.9156 15.7184 58.6114 14.9603 58.6099 14.0014C58.6114 13.0424 58.9156 12.2843 59.5269 11.6905C60.1443 11.0947 60.8602 10.8029 61.7041 10.8018C62.6424 10.804 63.3509 11.1153 63.8772 11.7439L63.9748 11.8604L64.8133 11.0173L64.9032 10.9271L64.8213 10.8295C64.4804 10.4215 64.0262 10.0975 63.4679 9.85705C62.9085 9.61588 62.3183 9.49509 61.7041 9.49509C60.4706 9.49398 59.4061 9.92936 58.5426 10.7909C57.6759 11.6508 57.2391 12.7317 57.2402 14.0014C57.2391 15.2705 57.6759 16.3519 58.5431 17.2123C59.4061 18.0734 60.4706 18.5082 61.7041 18.5071C62.9887 18.5082 64.0544 18.0798 64.8631 17.227L64.7627 17.1307L64.8608 17.2292C65.5796 16.5081 65.9362 15.5339 65.9352 14.3405H65.7965Z" fill="white"/>
<path d="M72.1922 10.8487H68.4009V13.4992H71.8199V14.5037H68.4009V17.1542H72.1922V18.1812H67.332V9.82176H72.1922V10.8487Z" fill="white"/>
<path d="M72.1923 10.8485V10.7092H68.2622V13.6384H71.6813V14.3638L68.2622 14.3642V17.2934H72.0536V18.0417H67.4709V9.96091H72.0536V10.8485H72.1923V10.7092V10.8485H72.3311V9.82159V9.68227H67.1934V18.3203H72.3311V17.154V17.0147H68.5397V14.6429H71.9588V13.499V13.3597H68.5397V10.9879H72.3311V10.8485H72.1923Z" fill="white"/>
<path d="M76.7024 18.1812H75.6319V10.8487H73.3066V9.82176H79.0277V10.8487H76.7024V18.1812Z" fill="white"/>
<path d="M76.7025 18.181V18.0417H75.7708V10.7092H73.4455V9.96091H78.889V10.7092H76.5638V18.181H76.7025V18.0417V18.181H76.8413V10.9879H79.1665V9.82159V9.68227H73.168V10.8485V10.9879H75.4932V18.3203H76.7025H76.8413V18.181H76.7025Z" fill="white"/>
<path d="M83.166 18.1812V9.82176H84.2354V18.1812H83.166Z" fill="white"/>
<path d="M83.1681 18.181H83.3068V9.96091H84.0987V18.0417H83.1681V18.181H83.3068H83.1681V18.3203H84.2374H84.3762V9.68227H83.1681H83.0293V18.3203H83.1681V18.181Z" fill="white"/>
<path d="M88.9816 18.1812H87.9111V10.8487H85.5859V9.82176H91.3068V10.8487H88.9816V18.1812Z" fill="white"/>
<path d="M88.9817 18.181V18.0417H88.0499V10.7092H85.7248V9.96091H91.1682V10.7092H88.8429V18.181H88.9817V18.0417V18.181H89.1204V10.9879H91.4457V9.82159V9.68227H85.4473V10.8485V10.9879H87.7724V18.3203H88.9817H89.1204V18.181H88.9817Z" fill="white"/>
<path d="M96.8229 16.4011C97.4391 17.0275 98.1931 17.3404 99.0848 17.3404C99.9764 17.3404 100.731 17.0275 101.346 16.4011C101.963 15.7747 102.272 14.974 102.272 14.0015C102.272 13.0291 101.963 12.2284 101.346 11.602C100.731 10.9756 99.9764 10.6627 99.0848 10.6627C98.1931 10.6627 97.4391 10.9756 96.8229 11.602C96.2077 12.2284 95.8988 13.0291 95.8988 14.0015C95.8988 14.974 96.2077 15.7747 96.8229 16.4011ZM102.137 17.1009C101.319 17.9461 100.301 18.3679 99.0848 18.3679C97.8673 18.3679 96.85 17.9461 96.0332 17.1009C95.2142 16.2568 94.8066 15.2234 94.8066 14.0015C94.8066 12.7797 95.2142 11.7462 96.0332 10.9022C96.85 10.0569 97.8673 9.63459 99.0848 9.63459C100.295 9.63459 101.31 10.0591 102.132 10.9076C102.953 11.7561 103.364 12.7873 103.364 14.0015C103.364 15.2234 102.954 16.2568 102.137 17.1009Z" fill="white"/>
<path d="M96.823 16.4009L96.7243 16.4989C97.3634 17.1503 98.1607 17.4812 99.0848 17.4796C100.008 17.4812 100.807 17.1503 101.445 16.4989C102.088 15.8468 102.412 15.0032 102.411 14.0014C102.412 12.9995 102.088 12.1559 101.445 11.5039C100.807 10.8524 100.008 10.5215 99.0848 10.5232C98.1607 10.5215 97.3634 10.8524 96.7243 11.5039C96.0826 12.1559 95.7585 12.9995 95.7601 14.0014C95.7585 15.0032 96.0826 15.8468 96.7243 16.4989L96.823 16.4009L96.9216 16.303C96.333 15.7015 96.0387 14.945 96.0376 14.0014C96.0387 13.0577 96.333 12.3012 96.9216 11.6997C97.5157 11.0984 98.2251 10.8035 99.0848 10.8018C99.9439 10.8035 100.655 11.0984 101.247 11.6997C101.837 12.3012 102.132 13.0577 102.133 14.0014C102.132 14.945 101.837 15.7015 101.247 16.303C100.655 16.9043 99.9439 17.1993 99.0848 17.2009C98.2251 17.1993 97.5157 16.9043 96.9216 16.303L96.823 16.4009ZM102.137 17.1008L102.038 17.0039C101.243 17.8224 100.27 18.2268 99.0848 18.2284C97.8995 18.2268 96.9265 17.8224 96.1324 17.0039L96.1287 16.9996L96.1324 17.0039C95.3384 16.1826 94.9466 15.1922 94.9455 14.0014C94.9466 12.8106 95.3384 11.8201 96.1324 10.9988C96.9265 10.1803 97.8995 9.77541 99.0848 9.77374C100.262 9.77541 101.233 10.182 102.033 11.0048C102.83 11.8299 103.224 12.8188 103.225 14.0014C103.224 15.1922 102.831 16.1826 102.038 17.0039L102.137 17.1008L102.237 17.1976C103.078 16.3302 103.504 15.2542 103.503 14.0014C103.504 12.7557 103.077 11.6819 102.232 10.8106C101.386 9.93591 100.327 9.49356 99.0848 9.4951C97.836 9.49356 96.7737 9.93382 95.9336 10.8052V10.8046C95.0908 11.6726 94.6669 12.7486 94.668 14.0014C94.6669 15.2542 95.0908 16.3302 95.9336 17.1981L95.9373 17.202L95.9336 17.1976C96.7737 18.0689 97.836 18.5082 99.0848 18.5071C100.333 18.5082 101.395 18.0689 102.237 17.1976L102.137 17.1008Z" fill="white"/>
<path d="M104.865 18.1812V9.82176H106.167L110.213 16.3248H110.259L110.213 14.7138V9.82176H111.284V18.1812H110.167L105.934 11.363H105.888L105.934 12.9745V18.1812H104.865Z" fill="white"/>
<path d="M104.865 18.181H105.004V9.96091H106.09L110.136 16.464H110.259H110.402L110.352 14.7116V9.96091H111.145V18.0417H110.244L106.011 11.2235H105.888H105.746L105.795 12.9766V18.0417H104.865V18.181H105.004H104.865V18.3203H105.934H106.073V12.9721L106.027 11.359L105.888 11.3628V11.5021H105.934V11.3628L105.816 11.4369L110.09 18.3203H111.284H111.423V9.68227H110.213H110.075V14.7153L110.121 16.3284L110.259 16.3246V16.1853H110.213V16.3246L110.331 16.2507L106.244 9.68227H104.865H104.727V18.3203H104.865V18.181Z" fill="white"/>
<path d="M148.379 41.8661H150.969V24.449H148.379V41.8661ZM171.7 30.723L168.732 38.2742H168.643L165.563 30.723H162.774L167.393 41.2772L164.76 47.1478H167.461L174.579 30.723H171.7ZM157.017 39.8878C156.168 39.8878 154.986 39.4622 154.986 38.4086C154.986 37.0643 156.459 36.5489 157.73 36.5489C158.869 36.5489 159.404 36.7954 160.096 37.1319C159.895 38.745 158.511 39.8878 157.017 39.8878ZM157.329 30.342C155.455 30.342 153.513 31.1713 152.71 33.0087L155.008 33.972C155.499 33.0087 156.413 32.6947 157.374 32.6947C158.713 32.6947 160.074 33.5018 160.096 34.9359V35.1149C159.627 34.846 158.624 34.4428 157.396 34.4428C154.919 34.4428 152.396 35.8093 152.396 38.3639C152.396 40.6944 154.428 42.1959 156.703 42.1959C158.445 42.1959 159.404 41.4116 160.007 40.493H160.096V41.8372H162.595V35.1595C162.595 32.0677 160.297 30.342 157.329 30.342ZM141.328 32.8432H137.645V26.8731H141.328C143.263 26.8731 144.362 28.4823 144.362 29.8581C144.362 31.2078 143.263 32.8432 141.328 32.8432ZM141.261 24.449H135.057V41.8661H137.645V35.2673H141.261C144.131 35.2673 146.952 33.1812 146.952 29.8581C146.952 26.5351 144.131 24.449 141.261 24.449ZM107.431 39.891C105.642 39.891 104.145 38.3873 104.145 36.322C104.145 34.2349 105.642 32.7084 107.431 32.7084C109.197 32.7084 110.583 34.2349 110.583 36.322C110.583 38.3873 109.197 39.891 107.431 39.891ZM110.404 31.6983H110.315C109.734 31.0026 108.615 30.3741 107.207 30.3741C104.257 30.3741 101.552 32.9777 101.552 36.322C101.552 39.644 104.257 42.2252 107.207 42.2252C108.615 42.2252 109.734 41.5966 110.315 40.8788H110.404V41.7316C110.404 43.999 109.197 45.2109 107.252 45.2109C105.665 45.2109 104.682 44.0658 104.279 43.1009L102.021 44.0436C102.67 45.6147 104.391 47.5452 107.252 47.5452C110.292 47.5452 112.863 45.7492 112.863 41.3725V30.7333H110.404V31.6983ZM114.651 41.8661H117.244V24.4484H114.651V41.8661ZM121.067 36.1201C121 33.8305 122.833 32.6636 124.152 32.6636C125.181 32.6636 126.052 33.1795 126.342 33.9209L121.067 36.1201ZM129.115 34.1451C128.623 32.8204 127.125 30.3741 124.062 30.3741C121.022 30.3741 118.496 32.7758 118.496 36.2997C118.496 39.6217 121 42.2252 124.353 42.2252C127.058 42.2252 128.623 40.5642 129.271 39.5993L127.259 38.2523C126.589 39.2401 125.672 39.891 124.353 39.891C123.034 39.891 122.095 39.2848 121.492 38.0956L129.382 34.8183L129.115 34.1451ZM66.2467 32.1923V34.7061H72.2375C72.0586 36.1201 71.5892 37.1525 70.8738 37.8708C70.0023 38.7465 68.6386 39.7114 66.2467 39.7114C62.5581 39.7114 59.6746 36.7263 59.6746 33.0228C59.6746 29.3193 62.5581 26.3338 66.2467 26.3338C68.2363 26.3338 69.6889 27.1195 70.7621 28.1296L72.528 26.3566C71.0304 24.9198 69.0407 23.8199 66.2467 23.8199C61.1944 23.8199 56.9473 27.95 56.9473 33.0228C56.9473 38.0956 61.1944 42.2252 66.2467 42.2252C68.9741 42.2252 71.0304 41.3279 72.6397 39.644C74.294 37.983 74.8083 35.6488 74.8083 33.7636C74.8083 33.1795 74.7638 32.6413 74.6739 32.1923H66.2467ZM81.6193 39.891C79.8306 39.891 78.2881 38.4096 78.2881 36.2997C78.2881 34.1673 79.8306 32.7084 81.6193 32.7084C83.4073 32.7084 84.9499 34.1673 84.9499 36.2997C84.9499 38.4096 83.4073 39.891 81.6193 39.891ZM81.6193 30.3741C78.3552 30.3741 75.695 32.8655 75.695 36.2997C75.695 39.7114 78.3552 42.2252 81.6193 42.2252C84.8827 42.2252 87.543 39.7114 87.543 36.2997C87.543 32.8655 84.8827 30.3741 81.6193 30.3741ZM94.5419 39.891C92.7539 39.891 91.2112 38.4096 91.2112 36.2997C91.2112 34.1673 92.7539 32.7084 94.5419 32.7084C96.3301 32.7084 97.8726 34.1673 97.8726 36.2997C97.8726 38.4096 96.3301 39.891 94.5419 39.891ZM94.5419 30.3741C91.278 30.3741 88.6183 32.8655 88.6183 36.2997C88.6183 39.7114 91.278 42.2252 94.5419 42.2252C97.8055 42.2252 100.466 39.7114 100.466 36.2997C100.466 32.8655 97.8055 30.3741 94.5419 30.3741Z" fill="white"/>
<path d="M14.5851 45.1951L14.482 45.096C14.0782 44.667 13.8398 44.0009 13.8398 43.1384V43.3414V12.5286C13.8398 12.5259 13.8398 12.5238 13.8398 12.5215C13.8398 12.5242 13.8398 12.5264 13.8398 12.5292V12.7328C13.8398 11.7987 14.1178 11.0952 14.5834 10.6733L31.775 27.9347L14.5851 45.1951ZM13.8398 12.5199C13.8398 12.4431 13.8419 12.3686 13.8458 12.2951C13.8419 12.368 13.8398 12.4431 13.8398 12.5199ZM13.8458 12.2918C13.8458 12.2908 13.8458 12.2897 13.8462 12.2886C13.8458 12.2897 13.8458 12.2908 13.8458 12.2918ZM13.8462 12.282C13.8462 12.2815 13.8462 12.2809 13.8462 12.2804C13.8462 12.2809 13.8462 12.2815 13.8462 12.282Z" fill="url(#paint0_linear_1127_2867)"/>
<path d="M37.5031 33.8948L37.6338 33.8202L44.423 29.9469C45.0703 29.5774 45.5017 29.1295 45.7169 28.6555C45.5022 29.1295 45.0707 29.578 44.423 29.9475L37.6338 33.8208L37.5031 33.8948ZM37.5048 33.6907L31.7734 27.9349L37.5042 22.1802L44.423 26.1269C45.3016 26.6282 45.7949 27.2743 45.8773 27.9344C45.8773 27.9349 45.8773 27.9361 45.8773 27.937C45.7949 28.5956 45.3016 29.2422 44.423 29.7434L37.5048 33.6907Z" fill="url(#paint1_linear_1127_2867)"/>
<path d="M15.8081 45.8525C15.3279 45.8525 14.9088 45.6958 14.5821 45.3997L14.5826 45.3992C14.9094 45.6952 15.329 45.8525 15.8092 45.8525C15.8509 45.8525 15.8932 45.8514 15.9361 45.8493C15.8926 45.8514 15.8498 45.8525 15.8081 45.8525ZM15.8087 45.6484C15.3284 45.649 14.9094 45.4917 14.5826 45.1956V45.1952L31.7726 27.9349L37.5039 33.6906L17.3632 45.181C16.8059 45.4982 16.278 45.6484 15.8087 45.6484ZM14.5778 45.396C14.5474 45.3683 14.5176 45.3389 14.4883 45.3083L14.5778 45.396Z" fill="url(#paint2_linear_1127_2867)"/>
<path d="M31.7736 27.9348L14.582 10.6734C14.9088 10.3779 15.3273 10.2211 15.807 10.2211C16.2775 10.2211 16.8059 10.3719 17.3642 10.6897L37.5044 22.1801L31.7736 27.9348ZM37.634 22.0501L17.3642 10.4863C16.8059 10.1683 16.2775 10.0176 15.807 10.0176C15.8047 10.0176 15.8032 10.0176 15.801 10.0176C15.8038 10.0176 15.8059 10.0176 15.8092 10.0176C16.2786 10.0176 16.8064 10.1678 17.3642 10.4857L37.634 22.0501Z" fill="url(#paint3_linear_1127_2867)"/>
<path d="M15.937 45.8494C16.3732 45.8243 16.8562 45.6735 17.3641 45.3846L37.5031 33.8947L17.3641 45.3846C16.8567 45.6741 16.3732 45.8243 15.937 45.8494ZM14.583 45.3998L14.5787 45.396C14.5802 45.3971 14.5819 45.3987 14.583 45.3998ZM14.4892 45.3084L14.4805 45.2997V45.2992C14.4838 45.3024 14.4864 45.3056 14.4892 45.3084Z" fill="black"/>
<path d="M37.5039 33.8948L37.6346 33.8202L37.5039 33.8948Z" fill="url(#paint4_linear_1127_2867)"/>
<path d="M15.8082 45.8525C15.328 45.8525 14.9084 45.6952 14.5816 45.3992L14.5811 45.3997C14.5799 45.3986 14.5783 45.3971 14.5768 45.396L14.4873 45.3083C14.4845 45.3056 14.4818 45.3024 14.4785 45.2991L14.5816 45.1956C14.9084 45.4917 15.3274 45.649 15.8077 45.6484C16.2769 45.6484 16.8049 45.4982 17.3621 45.181L37.5028 33.6906L37.6319 33.8202L37.5012 33.8947L17.3621 45.3846C16.8543 45.6735 16.3713 45.8243 15.935 45.8493C15.8922 45.8514 15.8498 45.8525 15.8082 45.8525Z" fill="url(#paint5_linear_1127_2867)"/>
<path d="M14.4801 45.2996C14.0763 44.8706 13.8379 44.2045 13.8379 43.3419V43.3414C13.8379 44.2045 14.0763 44.87 14.4801 45.299V45.2996Z" fill="black"/>
<path d="M14.482 45.2993C14.0782 44.8703 13.8398 44.2048 13.8398 43.3417V43.1387C13.8398 44.0012 14.0782 44.6673 14.482 45.0963L14.5851 45.1954L14.482 45.2993Z" fill="url(#paint6_linear_1127_2867)"/>
<path d="M14.4785 45.2988L14.5816 45.1949V45.1953L14.4785 45.2988Z" fill="url(#paint7_linear_1127_2867)"/>
<path d="M45.7148 28.6553C45.8216 28.4201 45.8753 28.1785 45.8753 27.9368C45.8753 27.9364 45.8753 27.9358 45.8753 27.9358C45.8753 28.1779 45.8216 28.4195 45.7148 28.6553Z" fill="black"/>
<path d="M37.6329 33.8198L37.5039 33.6903L44.4221 29.7429C45.3007 29.2418 45.794 28.5952 45.8764 27.9366C45.8764 28.1784 45.8227 28.4199 45.716 28.6551C45.5008 29.1291 45.0694 29.577 44.4221 29.9465L37.6329 33.8198Z" fill="url(#paint8_linear_1127_2867)"/>
<path d="M45.8769 27.9348V27.9343C45.8763 27.2055 45.3912 26.4768 44.4226 25.9238L37.6334 22.0505H37.6328L37.6334 22.0501L44.4226 25.9233C45.3923 26.4762 45.878 27.206 45.8769 27.9348Z" fill="#404040"/>
<path d="M45.877 27.9343C45.7946 27.2742 45.3013 26.6282 44.4227 26.1269L37.5039 22.1801L37.6329 22.0506H37.6335L44.4227 25.9239C45.3913 26.4769 45.8764 27.2055 45.877 27.9343Z" fill="url(#paint9_linear_1127_2867)"/>
<path d="M13.8379 12.5217C13.8379 12.5212 13.8379 12.5206 13.8379 12.5201C13.8379 12.5206 13.8379 12.5212 13.8379 12.5217ZM13.8439 12.2953C13.8439 12.2942 13.8439 12.2931 13.8439 12.292C13.8439 12.2931 13.8439 12.2942 13.8439 12.2953ZM13.8443 12.2888C13.8443 12.2866 13.8443 12.2845 13.8443 12.2822C13.8443 12.2845 13.8443 12.2866 13.8443 12.2888ZM13.8443 12.2806C13.9246 10.8493 14.6997 10.0225 15.7962 10.0177C15.3208 10.0205 14.9067 10.1772 14.5826 10.4705V10.4699L14.5787 10.4738C14.5446 10.5047 14.5121 10.5375 14.4801 10.5712C14.1158 10.9581 13.886 11.5377 13.8443 12.2806Z" fill="#404040"/>
<path d="M13.8398 12.7327V12.5291C13.8398 12.5263 13.8398 12.5241 13.8398 12.5215C13.8398 12.5209 13.8398 12.5203 13.8398 12.5198C13.8398 12.443 13.8419 12.3679 13.8458 12.2951C13.8458 12.2939 13.8458 12.2928 13.8458 12.2917C13.8458 12.2907 13.8458 12.2896 13.8462 12.2885C13.8462 12.2863 13.8462 12.2842 13.8462 12.282C13.8462 12.2814 13.8462 12.2808 13.8462 12.2803C13.888 11.5374 14.1178 10.9578 14.482 10.5709L14.5834 10.6732C14.1178 11.0951 13.8398 11.7986 13.8398 12.7327ZM14.5807 10.4735L14.5845 10.4696C14.5834 10.4713 14.5818 10.4724 14.5807 10.4735Z" fill="url(#paint10_linear_1127_2867)"/>
<path d="M37.5023 22.1802L17.3621 10.6898C16.8038 10.372 16.2754 10.2212 15.8049 10.2212C15.3252 10.2212 14.9067 10.378 14.5799 10.6735L14.4785 10.5712C14.5106 10.5375 14.543 10.5048 14.5772 10.4738C14.5783 10.4727 14.5799 10.4716 14.5811 10.4705C14.9052 10.1772 15.3192 10.0205 15.7946 10.0177C15.7957 10.0177 15.7973 10.0177 15.7989 10.0177C15.8011 10.0177 15.8027 10.0177 15.8049 10.0177C16.2754 10.0177 16.8038 10.1684 17.3621 10.4864L37.6319 22.0502L37.6313 22.0506L37.5023 22.1802Z" fill="url(#paint11_linear_1127_2867)"/>
<defs>
<linearGradient id="paint0_linear_1127_2867" x1="30.2507" y1="12.2036" x2="6.86893" y2="35.4901" gradientUnits="userSpaceOnUse">
<stop stop-color="#00A0FF"/>
<stop offset="0.00657445" stop-color="#00A1FF"/>
<stop offset="0.2601" stop-color="#00BEFF"/>
<stop offset="0.5122" stop-color="#00D2FF"/>
<stop offset="0.7604" stop-color="#00DFFF"/>
<stop offset="1" stop-color="#00E3FF"/>
</linearGradient>
<linearGradient id="paint1_linear_1127_2867" x1="46.9478" y1="27.9358" x2="13.373" y2="27.9358" gradientUnits="userSpaceOnUse">
<stop stop-color="#FFE000"/>
<stop offset="0.4087" stop-color="#FFBD00"/>
<stop offset="0.7754" stop-color="#FFA500"/>
<stop offset="1" stop-color="#FF9C00"/>
</linearGradient>
<linearGradient id="paint2_linear_1127_2867" x1="34.4486" y1="31.1328" x2="2.74125" y2="62.711" gradientUnits="userSpaceOnUse">
<stop stop-color="#FF3A44"/>
<stop offset="1" stop-color="#C31162"/>
</linearGradient>
<linearGradient id="paint3_linear_1127_2867" x1="10.1262" y1="0.314547" x2="24.2848" y2="14.4155" gradientUnits="userSpaceOnUse">
<stop stop-color="#32A071"/>
<stop offset="0.0685" stop-color="#2DA771"/>
<stop offset="0.4762" stop-color="#15CF74"/>
<stop offset="0.8009" stop-color="#06E775"/>
<stop offset="1" stop-color="#00F076"/>
</linearGradient>
<linearGradient id="paint4_linear_1127_2867" x1="46.9482" y1="27.9355" x2="13.3748" y2="27.9355" gradientUnits="userSpaceOnUse">
<stop stop-color="#CCB300"/>
<stop offset="0.4087" stop-color="#CC9700"/>
<stop offset="0.7754" stop-color="#CC8400"/>
<stop offset="1" stop-color="#CC7D00"/>
</linearGradient>
<linearGradient id="paint5_linear_1127_2867" x1="34.4476" y1="31.1328" x2="2.74022" y2="62.711" gradientUnits="userSpaceOnUse">
<stop stop-color="#CC2E36"/>
<stop offset="1" stop-color="#9C0E4E"/>
</linearGradient>
<linearGradient id="paint6_linear_1127_2867" x1="30.2506" y1="12.2039" x2="6.86889" y2="35.4904" gradientUnits="userSpaceOnUse">
<stop stop-color="#008DE0"/>
<stop offset="0.00657445" stop-color="#008DE0"/>
<stop offset="0.2601" stop-color="#00A7E0"/>
<stop offset="0.5122" stop-color="#00B8E0"/>
<stop offset="0.7604" stop-color="#00C4E0"/>
<stop offset="1" stop-color="#00C7E0"/>
</linearGradient>
<linearGradient id="paint7_linear_1127_2867" x1="34.4476" y1="31.132" x2="2.73941" y2="62.7104" gradientUnits="userSpaceOnUse">
<stop stop-color="#E0333C"/>
<stop offset="1" stop-color="#AB0F56"/>
</linearGradient>
<linearGradient id="paint8_linear_1127_2867" x1="46.9469" y1="27.9354" x2="13.3722" y2="27.9354" gradientUnits="userSpaceOnUse">
<stop stop-color="#E0C500"/>
<stop offset="0.4087" stop-color="#E0A600"/>
<stop offset="0.7754" stop-color="#E09100"/>
<stop offset="1" stop-color="#E08900"/>
</linearGradient>
<linearGradient id="paint9_linear_1127_2867" x1="46.9475" y1="27.9357" x2="13.3727" y2="27.9357" gradientUnits="userSpaceOnUse">
<stop stop-color="#FFE840"/>
<stop offset="0.4087" stop-color="#FFCE40"/>
<stop offset="0.7754" stop-color="#FFBC40"/>
<stop offset="1" stop-color="#FFB540"/>
</linearGradient>
<linearGradient id="paint10_linear_1127_2867" x1="30.2506" y1="12.2035" x2="6.86891" y2="35.49" gradientUnits="userSpaceOnUse">
<stop stop-color="#40B8FF"/>
<stop offset="0.00657445" stop-color="#40B9FF"/>
<stop offset="0.2601" stop-color="#40CEFF"/>
<stop offset="0.5122" stop-color="#40DDFF"/>
<stop offset="0.7604" stop-color="#40E7FF"/>
<stop offset="1" stop-color="#40EAFF"/>
</linearGradient>
<linearGradient id="paint11_linear_1127_2867" x1="10.1241" y1="0.314653" x2="24.2827" y2="14.4156" gradientUnits="userSpaceOnUse">
<stop stop-color="#65B895"/>
<stop offset="0.0685" stop-color="#62BD95"/>
<stop offset="0.4762" stop-color="#50DB97"/>
<stop offset="0.8009" stop-color="#44ED98"/>
<stop offset="1" stop-color="#40F498"/>
</linearGradient>
</defs>
</svg>
