<svg width="86" height="64" viewBox="0 0 86 64" fill="none" xmlns="http://www.w3.org/2000/svg">
<path d="M40.3 24.7C40.3 31.46 39.26 37.2667 37.18 42.12C35.1 47.1467 32.4133 51.22 29.12 54.34C25.8267 57.6333 22.0133 59.9733 17.68 61.36C13.52 62.92 9.36 63.7 5.2 63.7V54.6C9.70667 54.6 13.8667 53.04 17.68 49.92C21.6667 46.9733 24.0067 42.9 24.7 37.7C24.18 38.0467 23.5733 38.3067 22.88 38.48C21.4933 38.8267 19.9333 39 18.2 39C13 39 8.66667 37.0933 5.2 33.28C1.73333 29.2933 0 24.7 0 19.5C0 14.3 1.73333 9.79334 5.2 5.98C8.84 1.99334 13.6067 0 19.5 0C26.0867 0 31.2 2.51334 34.84 7.54C38.48 12.3933 40.3 18.1133 40.3 24.7Z" fill="#598AB3"/>
<path d="M85.6008 24.7C85.6008 31.46 84.5608 37.2667 82.4808 42.12C80.4008 47.1467 77.7141 51.22 74.4208 54.34C71.1274 57.6333 67.3141 59.9733 62.9808 61.36C58.8208 62.92 54.6608 63.7 50.5008 63.7V54.6C55.0074 54.6 59.1675 53.04 62.9808 49.92C66.9675 46.9733 69.3074 42.9 70.0008 37.7C69.4808 38.0467 68.8741 38.3067 68.1808 38.48C66.7941 38.8267 65.2341 39 63.5008 39C58.3008 39 53.9674 37.0933 50.5008 33.28C47.0341 29.2933 45.3008 24.7 45.3008 19.5C45.3008 14.3 47.0341 9.79334 50.5008 5.98C54.1408 1.99334 58.9075 0 64.8008 0C71.3875 0 76.5008 2.51334 80.1408 7.54C83.7808 12.3933 85.6008 18.1133 85.6008 24.7Z" fill="#598AB3"/>
</svg>
