<svg width="27" height="85" viewBox="0 0 27 85" fill="none" xmlns="http://www.w3.org/2000/svg">
<path d="M14.6092 71.2461C14.5898 64.7392 15.0183 58.1878 15.344 51.7058C15.6905 44.8258 15.037 37.9657 14.9846 31.1028C14.93 23.841 14.4554 16.6063 14.4007 9.33546C14.3889 7.72849 13.8744 -4.22202 17.3358 1.63369C18.3891 3.41456 18.5321 7.76816 18.7511 9.78051C19.0349 12.3967 18.9488 15.0589 19.1886 17.6822C19.8305 24.7054 20.4547 31.7995 20.4128 38.8717C20.3703 46.1168 20.5078 53.3145 20.0343 60.5369C19.908 62.4653 17.2018 73.8184 18.3248 74.8191C18.5605 75.0294 23.2745 69.6643 24.1102 69.5608C27.7339 69.111 25.8425 72.6867 24.6119 74.5153C22.8567 77.1246 20.3836 80.434 18.2193 82.6954C16.3252 84.6761 15.1215 84.7897 13.0435 82.7858C10.7911 80.6125 9.02484 77.8528 6.91592 75.5331C5.61967 74.1069 0.115421 70.0043 0.20458 68.379C0.500582 63.0081 12.9659 74.85 14.4456 76.0976C14.9303 74.6602 14.6137 72.7551 14.6092 71.2461Z" fill="#598AB3"/>
</svg>
