<svg width="28" height="28" viewBox="0 0 28 28" fill="none" xmlns="http://www.w3.org/2000/svg">
<path d="M16.2837 2.57852L18.6337 7.27851C18.9503 7.92851 19.8003 8.54518 20.517 8.67852L24.767 9.37852C27.4837 9.82852 28.117 11.7952 26.167 13.7618L22.8503 17.0785C22.3003 17.6285 21.9837 18.7118 22.167 19.4952L23.117 23.5952C23.867 26.8285 22.1337 28.0952 19.2837 26.3952L15.3003 24.0285C14.5837 23.5952 13.3837 23.5952 12.667 24.0285L8.68366 26.3952C5.83368 28.0785 4.10037 26.8285 4.85037 23.5952L5.80038 19.4952C5.98371 18.7285 5.66704 17.6452 5.11704 17.0785L1.80039 13.7618C-0.149608 11.8118 0.483725 9.84518 3.20039 9.37852L7.45033 8.67852C8.16699 8.56185 9.01699 7.92851 9.33366 7.27851L11.6837 2.57852C12.9337 0.0285158 15.0003 0.0285158 16.2837 2.57852Z" fill="#ECE42F"/>
</svg>
