<svg width="58" height="58" viewBox="0 0 58 58" fill="none" xmlns="http://www.w3.org/2000/svg">
<path opacity="0.4" d="M46.4015 35.718C44.3232 37.6272 41.5682 38.6905 38.7407 38.6664H15.3957C5.55987 37.9655 5.53571 23.6831 15.3957 22.9823H15.4924C8.7499 4.22893 37.2424 -3.23862 40.5049 16.433C49.6157 17.593 53.3132 29.7005 46.4015 35.718Z" fill="#598AB3"/>
<path d="M45.3125 50.7501C45.3125 51.7409 44.4908 52.5626 43.5 52.5626H33.8333C33.7125 52.5626 33.6158 52.5626 33.495 52.5142C32.7942 54.3026 31.03 55.5834 29 55.5834C26.97 55.5834 25.2058 54.3026 24.505 52.5142C24.3842 52.5626 24.2875 52.5626 24.1667 52.5626H14.5C13.5092 52.5626 12.6875 51.7409 12.6875 50.7501C12.6875 49.7592 13.5092 48.9376 14.5 48.9376H24.1667C24.2875 48.9376 24.3842 48.9376 24.505 48.9859C24.9883 47.7292 25.9792 46.7384 27.2358 46.2551C27.1875 46.1342 27.1875 46.0376 27.1875 45.9167V38.6667H30.8125V45.9167C30.8125 46.0376 30.8125 46.1342 30.7642 46.2551C32.0208 46.7384 33.0117 47.7292 33.495 48.9859C33.6158 48.9376 33.7125 48.9376 33.8333 48.9376H43.5C44.4908 48.9376 45.3125 49.7592 45.3125 50.7501Z" fill="#598AB3"/>
</svg>
