<svg width="169" height="32" viewBox="0 0 169 32" fill="none" xmlns="http://www.w3.org/2000/svg">
<path d="M45.008 10.832H41.104V22H45.008C48.576 22 50.896 19.808 50.896 16.432C50.896 13.04 48.576 10.832 45.008 10.832ZM43.344 20.096V12.72H44.928C47.28 12.72 48.608 14.112 48.608 16.432C48.608 18.752 47.28 20.096 44.928 20.096H43.344ZM61.4528 17.568C61.4528 14.768 59.4528 12.992 56.8927 12.992C54.3327 12.992 52.3327 14.768 52.3327 17.568C52.3327 20.352 54.2687 22.144 56.8288 22.144C59.4047 22.144 61.4528 20.352 61.4528 17.568ZM54.6047 17.568C54.6047 15.792 55.6767 14.944 56.8607 14.944C58.0448 14.944 59.1487 15.792 59.1487 17.568C59.1487 19.328 58.0128 20.192 56.8288 20.192C55.6287 20.192 54.6047 19.328 54.6047 17.568ZM65.0319 22H67.4639L69.0799 15.808L70.6959 22H73.1119L75.7039 13.136H73.5599L71.9919 19.872L70.3279 13.136H67.9599L66.2639 19.888L64.6959 13.136H62.4239L65.0319 22ZM83.4439 22H85.6839V16.8C85.6839 14.352 84.2119 13.008 82.1479 13.008C81.0119 13.008 80.0519 13.488 79.4759 14.24V13.136H77.2359V22H79.4759V17.104C79.4759 15.68 80.2599 14.912 81.4759 14.912C82.6599 14.912 83.4439 15.68 83.4439 17.104V22ZM88.134 22H90.374V10.16H88.134V22ZM101.467 17.568C101.467 14.768 99.4671 12.992 96.9071 12.992C94.3471 12.992 92.3471 14.768 92.3471 17.568C92.3471 20.352 94.2831 22.144 96.8431 22.144C99.4191 22.144 101.467 20.352 101.467 17.568ZM94.6191 17.568C94.6191 15.792 95.6911 14.944 96.8751 14.944C98.0591 14.944 99.1631 15.792 99.1631 17.568C99.1631 19.328 98.0271 20.192 96.8431 20.192C95.6431 20.192 94.6191 19.328 94.6191 17.568ZM102.854 17.536C102.854 20.304 104.646 22.144 106.886 22.144C108.294 22.144 109.302 21.472 109.83 20.704V22H112.086V13.136H109.83V14.4C109.302 13.664 108.326 12.992 106.902 12.992C104.646 12.992 102.854 14.768 102.854 17.536ZM109.83 17.568C109.83 19.248 108.71 20.176 107.478 20.176C106.278 20.176 105.142 19.216 105.142 17.536C105.142 15.856 106.278 14.96 107.478 14.96C108.71 14.96 109.83 15.888 109.83 17.568ZM114.018 17.536C114.018 20.304 115.81 22.144 118.066 22.144C119.458 22.144 120.45 21.504 120.978 20.688V22H123.25V10.16H120.978V14.368C120.37 13.536 119.25 12.992 118.082 12.992C115.81 12.992 114.018 14.768 114.018 17.536ZM120.994 17.568C120.994 19.248 119.874 20.176 118.642 20.176C117.442 20.176 116.306 19.216 116.306 17.536C116.306 15.856 117.442 14.96 118.642 14.96C119.874 14.96 120.994 15.888 120.994 17.568ZM125.758 22H127.998V13.136H125.758V22ZM126.894 12.08C127.678 12.08 128.27 11.504 128.27 10.768C128.27 10.032 127.678 9.456 126.894 9.456C126.094 9.456 125.518 10.032 125.518 10.768C125.518 11.504 126.094 12.08 126.894 12.08ZM136.739 22H138.979V16.8C138.979 14.352 137.507 13.008 135.443 13.008C134.307 13.008 133.347 13.488 132.771 14.24V13.136H130.531V22H132.771V17.104C132.771 15.68 133.555 14.912 134.771 14.912C135.955 14.912 136.739 15.68 136.739 17.104V22ZM140.853 17.536C140.853 20.304 142.645 22.144 144.901 22.144C146.293 22.144 147.301 21.456 147.829 20.688V22.064C147.829 23.712 146.869 24.416 145.637 24.416C144.517 24.416 143.685 23.888 143.461 23.088H141.237C141.461 25.12 143.205 26.368 145.701 26.368C148.613 26.368 150.085 24.464 150.085 22.064V13.136H147.829V14.4C147.301 13.632 146.293 12.992 144.901 12.992C142.645 12.992 140.853 14.768 140.853 17.536ZM147.829 17.568C147.829 19.248 146.709 20.176 145.477 20.176C144.277 20.176 143.141 19.216 143.141 17.536C143.141 15.856 144.277 14.96 145.477 14.96C146.709 14.96 147.829 15.888 147.829 17.568ZM159.077 20.8C159.077 20.064 158.501 19.488 157.717 19.488C156.901 19.488 156.325 20.064 156.325 20.8C156.325 21.536 156.901 22.112 157.717 22.112C158.501 22.112 159.077 21.536 159.077 20.8ZM163.554 20.8C163.554 20.064 162.978 19.488 162.194 19.488C161.378 19.488 160.802 20.064 160.802 20.8C160.802 21.536 161.378 22.112 162.194 22.112C162.978 22.112 163.554 21.536 163.554 20.8ZM168.03 20.8C168.03 20.064 167.454 19.488 166.67 19.488C165.854 19.488 165.278 20.064 165.278 20.8C165.278 21.536 165.854 22.112 166.67 22.112C167.454 22.112 168.03 21.536 168.03 20.8Z" fill="#598AB3"/>
<g clip-path="url(#clip0_1127_2877)">
<path opacity="0.4" d="M2.66602 21.5868V10.4134C2.66602 5.56008 5.55935 2.66675 10.4127 2.66675H21.5727C26.4394 2.66675 29.3327 5.56008 29.3327 10.4134V21.5734C29.3327 26.4268 26.4394 29.3201 21.586 29.3201H10.4127C5.55935 29.3334 2.66602 26.4401 2.66602 21.5868Z" fill="#598AB3"/>
<path d="M15.2932 24.7067L9.5732 18.9867C9.18654 18.6 9.18654 17.96 9.5732 17.5733C9.95987 17.1867 10.5999 17.1867 10.9865 17.5733L14.9999 21.5867V8C14.9999 7.45333 15.4532 7 15.9999 7C16.5465 7 16.9999 7.45333 16.9999 8V21.5867L21.0132 17.5733C21.3999 17.1867 22.0399 17.1867 22.4266 17.5733C22.6266 17.7733 22.7199 18.0267 22.7199 18.28C22.7199 18.5333 22.6266 18.7867 22.4266 18.9867L16.7066 24.7067C16.5199 24.8933 16.2666 25 15.9999 25C15.7332 25 15.4799 24.8933 15.2932 24.7067Z" fill="#598AB3"/>
</g>
<defs>
<clipPath id="clip0_1127_2877">
<rect width="26.6667" height="26.6534" fill="white" transform="translate(2.66602 2.66675)"/>
</clipPath>
</defs>
</svg>
