<svg width="36" height="36" viewBox="0 0 36 36" fill="none" xmlns="http://www.w3.org/2000/svg">
<path opacity="0.4" d="M24.2857 3H11.7306C6.27061 3 3.01562 6.255 3.01562 11.715V24.27C3.01562 29.73 6.27061 32.985 11.7306 32.985H24.2857C29.7457 32.985 33.0007 29.73 33.0007 24.27V11.715C33.0007 6.255 29.7457 3 24.2857 3Z" fill="#598AB3"/>
<path d="M20.8807 13.9208L20.9557 18.3458L24.9007 18.2858C25.1858 18.2858 25.3957 18.5408 25.3507 18.8108L24.8256 21.6758C24.7806 21.8858 24.6007 22.0358 24.3907 22.0508L21.0157 22.1108L21.1957 32.9858L16.6957 33.0608L16.5157 22.1858L13.9657 22.2308C13.7107 22.2308 13.5157 22.0358 13.5157 21.7808L13.4707 18.9308C13.4707 18.6758 13.6657 18.4808 13.9207 18.4808L16.4707 18.4358L16.3957 13.5608C16.3507 11.0708 18.3307 9.03078 20.8207 8.98578L24.8706 8.92578C25.1256 8.92578 25.3208 9.12078 25.3208 9.37578L25.3807 12.9758C25.3807 13.2308 25.1858 13.4258 24.9307 13.4258L21.3307 13.4858C21.0757 13.4708 20.8807 13.6808 20.8807 13.9208Z" fill="#153450"/>
</svg>
