<svg width="101" height="100" viewBox="0 0 101 100" fill="none" xmlns="http://www.w3.org/2000/svg">
<circle cx="50.5" cy="50" r="50" fill="#598AB3" fill-opacity="0.15"/>
<path fill-rule="evenodd" clip-rule="evenodd" d="M39.9821 34.3291C36.0174 34.3291 32.8047 37.5432 32.8047 41.5074V56.0662C32.8047 59.1373 35.2943 61.6269 38.3653 61.6269H38.8558C38.8589 61.6269 38.861 61.6275 38.8612 61.6275C38.8619 61.6277 38.864 61.6289 38.8665 61.6313C38.8689 61.6338 38.8702 61.6366 38.8705 61.6372C38.8706 61.6374 38.8709 61.6388 38.8709 61.6419C38.8709 62.4733 38.8994 63.7074 39.2124 64.7605C39.3707 65.2929 39.6388 65.9128 40.1302 66.4105C40.6679 66.955 41.3932 67.269 42.2374 67.2454C43.5364 67.209 44.3011 66.3551 44.7163 65.7462C44.9269 65.4375 45.1053 65.1075 45.2436 64.8509L45.2587 64.8228C45.4032 64.5544 45.5084 64.3593 45.6178 64.1905L46.0529 63.5185C46.8169 62.3391 48.1266 61.6269 49.532 61.6269H61.0124C64.9767 61.6269 68.1907 58.4136 68.1907 54.449V41.507C68.1907 37.5426 64.9779 34.3291 61.0132 34.3291H39.9821ZM42.4095 50.0001C43.5262 50.0001 44.4315 49.0948 44.4315 47.978C44.4315 46.8612 43.5262 45.9559 42.4095 45.9559C41.2927 45.9559 40.3874 46.8612 40.3874 47.978C40.3874 49.0948 41.2927 50.0001 42.4095 50.0001ZM52.5198 47.978C52.5198 49.0948 51.6145 50.0001 50.4977 50.0001C49.3809 50.0001 48.4756 49.0948 48.4756 47.978C48.4756 46.8612 49.3809 45.9559 50.4977 45.9559C51.6145 45.9559 52.5198 46.8612 52.5198 47.978ZM58.5859 50.0001C59.7027 50.0001 60.608 49.0948 60.608 47.978C60.608 46.8612 59.7027 45.9559 58.5859 45.9559C57.4692 45.9559 56.5639 46.8612 56.5639 47.978C56.5639 49.0948 57.4692 50.0001 58.5859 50.0001Z" fill="#598AB3"/>
</svg>
