<svg width="442" height="818" viewBox="0 0 442 818" fill="none" xmlns="http://www.w3.org/2000/svg">
<path d="M450.167 18.0116C426.063 79.3689 337.353 212.883 175.343 256.08C-27.1699 310.076 82.2864 515.515 177.56 519.266C272.833 523.018 384.209 539.681 430.727 626.397C477.244 713.114 584.804 777.554 631.548 667.944" stroke="#598AB3" stroke-opacity="0.15" stroke-width="3"/>
<path d="M514.86 63.2917C494.7 114.65 420.497 226.402 284.96 262.544C115.538 307.722 207.134 479.702 286.843 482.853C366.552 486.003 459.733 499.963 498.66 572.557C537.588 645.151 627.581 699.104 666.677 607.357" stroke="#598AB3" stroke-opacity="0.15" stroke-width="3"/>
<path d="M553.39 119.742C539.46 155.104 457.73 269.016 364.193 293.948C247.272 325.113 310.408 443.464 365.407 445.602C420.406 447.74 484.698 457.314 511.53 507.271C538.362 557.227 600.439 594.332 627.451 531.161" stroke="#598AB3" stroke-opacity="0.15" stroke-width="3"/>
<path d="M524.291 257.135C517.056 275.636 490.409 315.886 441.702 328.88C380.817 345.123 413.775 407.109 442.425 408.261C471.074 409.412 504.569 414.462 518.575 440.627C532.582 466.792 564.939 486.25 578.972 453.201" stroke="#598AB3" stroke-opacity="0.15" stroke-width="3"/>
</svg>
