<svg width="505" height="879" viewBox="0 0 505 879" fill="none" xmlns="http://www.w3.org/2000/svg">
<path d="M381.606 27.2782C381.814 93.1999 348.559 250.011 213.877 349.88C45.5242 474.717 222.995 625.349 312.944 593.72C402.892 562.092 512.568 536.53 587.773 599.996C662.978 663.463 786.716 683.721 789.769 564.599" stroke="#598AB3" stroke-opacity="0.1" stroke-width="3"/>
<path d="M458.433 45.5258C458.623 100.699 430.833 231.933 318.16 315.487C177.318 419.929 325.854 546.041 401.112 519.59C476.37 493.14 568.136 471.772 631.08 524.908C694.023 578.043 797.567 595.027 800.094 495.329" stroke="#598AB3" stroke-opacity="0.1" stroke-width="3"/>
<path d="M515.058 83.8014C515.142 121.808 481.152 257.824 403.39 315.477C306.187 387.542 408.501 474.29 460.415 456.006C512.33 437.722 575.624 422.925 618.98 459.475C662.337 496.024 733.719 507.637 735.545 438.957" stroke="#598AB3" stroke-opacity="0.1" stroke-width="3"/>
<path d="M538.649 222.246C538.742 242.111 528.807 289.349 488.318 319.381C437.707 356.921 491.191 402.395 518.249 392.906C545.306 383.417 578.303 375.766 600.968 394.926C623.632 414.086 660.883 420.249 661.746 384.354" stroke="#598AB3" stroke-opacity="0.1" stroke-width="3"/>
</svg>
