<svg width="442" height="818" viewBox="0 0 442 818" fill="none" xmlns="http://www.w3.org/2000/svg">
<path d="M450.167 18.0114C426.063 79.3686 337.353 212.882 175.343 256.08C-27.1699 310.076 82.2864 515.514 177.56 519.266C272.833 523.018 384.209 539.68 430.727 626.397C477.244 713.114 584.804 777.554 631.548 667.944" stroke="#598AB3" stroke-opacity="0.15" stroke-width="3"/>
<path d="M514.858 63.2905C494.698 114.649 420.495 226.401 284.958 262.543C115.536 307.721 207.132 479.701 286.841 482.851C366.55 486.002 459.731 499.962 498.658 572.556C537.586 645.15 627.58 699.103 666.675 607.356" stroke="#598AB3" stroke-opacity="0.15" stroke-width="3"/>
<path d="M553.39 119.742C539.46 155.104 457.73 269.016 364.193 293.948C247.272 325.113 310.408 443.464 365.407 445.602C420.406 447.74 484.698 457.314 511.53 507.27C538.362 557.227 600.439 594.332 627.451 531.16" stroke="#598AB3" stroke-opacity="0.15" stroke-width="3"/>
<path d="M524.291 257.136C517.056 275.637 490.409 315.887 441.702 328.881C380.817 345.123 413.775 407.109 442.425 408.261C471.074 409.413 504.569 414.463 518.575 440.627C532.582 466.792 564.939 486.251 578.972 453.201" stroke="#598AB3" stroke-opacity="0.15" stroke-width="3"/>
</svg>
