<svg width="414" height="666" viewBox="0 0 414 666" fill="none" xmlns="http://www.w3.org/2000/svg">
<path d="M-14.7903 665C19.4076 614.461 126.574 511.83 281.658 505.622C475.513 497.862 418.251 290.132 332.955 267.449C247.659 244.766 150.433 207.16 125.978 119.412C101.522 31.6648 17.4194 -48.3229 -47 41.2155" stroke="#598AB3" stroke-opacity="0.15" stroke-width="3"/>
<path d="M-64.0533 611C-35.4433 568.693 54.2126 482.78 183.956 477.584C346.135 471.088 298.23 297.197 226.871 278.209C155.512 259.221 74.1731 227.74 53.7136 154.286C33.2541 80.8325 -37.1067 13.8745 -91 88.8275" stroke="#598AB3" stroke-opacity="0.15" stroke-width="3"/>
<path d="M-52.404 525C-32.6601 495.881 29.2118 436.748 118.748 433.171C230.669 428.7 197.609 309.013 148.364 295.944C99.119 282.874 42.9867 261.207 28.8675 210.649C14.7483 160.092 -33.808 114.006 -71 165.595" stroke="#598AB3" stroke-opacity="0.15" stroke-width="3"/>
<path d="M-33.316 434C-23.0343 418.754 9.18578 387.795 55.8123 385.922C114.095 383.581 96.8794 320.918 71.2349 314.075C45.5903 307.233 16.3591 295.888 9.00645 269.419C1.65381 242.949 -23.6321 218.82 -43 245.83" stroke="#598AB3" stroke-opacity="0.15" stroke-width="3"/>
</svg>
