<svg width="386" height="740" viewBox="0 0 386 740" fill="none" xmlns="http://www.w3.org/2000/svg">
<path d="M461.246 735.729C426.727 679.567 315.92 563.734 148.838 549.701C-60.0139 532.159 11.609 310.674 104.738 290.226C197.867 269.779 304.577 233.789 335.12 140.243C365.663 46.6974 460.214 -35.6529 525.505 64.0283" stroke="#598AB3" stroke-opacity="0.15" stroke-width="3"/>
<path d="M516.967 679.779C488.09 632.766 395.39 535.804 255.61 524.061C80.884 509.381 140.809 323.973 218.721 306.854C296.633 289.736 385.908 259.607 411.462 181.298C437.017 102.99 516.12 34.0523 570.741 117.494" stroke="#598AB3" stroke-opacity="0.15" stroke-width="3"/>
<path d="M544.968 617.431C525.037 585.07 424.548 487.305 328.085 479.211C207.505 469.094 248.845 341.484 302.611 329.707C356.377 317.931 417.983 297.2 435.611 243.303C453.24 189.406 507.824 141.963 545.525 199.4" stroke="#598AB3" stroke-opacity="0.15" stroke-width="3"/>
<path d="M492.162 487.297C481.786 470.357 448.476 435.42 398.243 431.194C335.451 425.911 356.994 359.096 384.995 352.923C412.996 346.751 445.08 335.89 454.267 307.67C463.454 279.45 491.885 254.604 511.511 284.671" stroke="#598AB3" stroke-opacity="0.15" stroke-width="3"/>
</svg>
