<svg width="403" height="858" viewBox="0 0 403 858" fill="none" xmlns="http://www.w3.org/2000/svg">
<path d="M-31.2731 27.7257C-14.874 91.5754 56.7969 234.959 212.288 297.695C406.652 376.114 272.832 566.582 177.817 558.623C82.8027 550.665 -29.7756 553.546 -86.575 633.905C-143.374 714.263 -258.023 765.029 -290.975 650.515" stroke="#598AB3" stroke-opacity="0.1" stroke-width="3"/>
<path d="M-101.031 64.7321C-87.3211 118.175 -27.3799 238.182 102.703 290.67C265.307 356.28 153.315 515.732 73.8212 509.085C-5.67226 502.439 -99.8623 504.868 -147.397 572.141C-194.931 639.414 -290.861 681.926 -318.413 586.077" stroke="#598AB3" stroke-opacity="0.1" stroke-width="3"/>
<path d="M-146.191 116.033C-136.702 152.836 -69.5557 275.91 20.2184 312.123C132.436 357.388 55.2649 467.105 0.418706 462.483C-54.4275 457.862 -119.408 459.48 -152.163 505.77C-184.918 552.06 -251.076 581.273 -270.138 515.266" stroke="#598AB3" stroke-opacity="0.1" stroke-width="3"/>
</svg>
