<svg width="36" height="36" viewBox="0 0 36 36" fill="none" xmlns="http://www.w3.org/2000/svg">
<path opacity="0.4" d="M24.285 3H11.715C6.255 3 3 6.255 3 11.715V24.27C3 29.745 6.255 33 11.715 33H24.27C29.73 33 32.985 29.745 32.985 24.285V11.715C33 6.255 29.745 3 24.285 3Z" fill="#598AB3"/>
<path d="M17.9996 23.8197C21.214 23.8197 23.8196 21.214 23.8196 17.9997C23.8196 14.7854 21.214 12.1797 17.9996 12.1797C14.7854 12.1797 12.1797 14.7854 12.1797 17.9997C12.1797 21.214 14.7854 23.8197 17.9996 23.8197Z" fill="#153450"/>
<path d="M25.5 11.2494C25.095 11.2494 24.72 11.0994 24.435 10.8144C24.3 10.6644 24.195 10.4994 24.12 10.3194C24.045 10.1394 24 9.94437 24 9.74937C24 9.55437 24.045 9.35937 24.12 9.17937C24.195 8.98437 24.3 8.83437 24.435 8.68437C24.78 8.33937 25.305 8.17437 25.785 8.27937C25.89 8.29437 25.98 8.32437 26.07 8.36937C26.16 8.39937 26.25 8.44437 26.34 8.50437C26.415 8.54937 26.49 8.62437 26.565 8.68437C26.7 8.83437 26.805 8.98437 26.88 9.17937C26.955 9.35937 27 9.55437 27 9.74937C27 9.94437 26.955 10.1394 26.88 10.3194C26.805 10.4994 26.7 10.6644 26.565 10.8144C26.415 10.9494 26.25 11.0544 26.07 11.1294C25.89 11.2044 25.695 11.2494 25.5 11.2494Z" fill="#153450"/>
</svg>
