<svg width="167" height="57" viewBox="0 0 167 57" fill="none" xmlns="http://www.w3.org/2000/svg">
<path d="M153.629 0.0690297H13.7586C13.2488 0.0690297 12.745 0.0690297 12.2365 0.0718296C11.8109 0.0746296 11.3886 0.0827636 10.9589 0.0896096C10.0253 0.100672 9.09384 0.183376 8.17271 0.337003C7.25288 0.493974 6.36187 0.789909 5.5298 1.2148C4.69876 1.64329 3.93941 2.20006 3.2793 2.86492C2.61572 3.52791 2.06258 4.29424 1.64115 5.13444C1.21855 5.97296 0.925513 6.87152 0.77217 7.79908C0.617368 8.72546 0.534068 9.66253 0.523017 10.6019C0.510115 11.0311 0.508752 11.4618 0.501953 11.8911V44.2509C0.508752 44.6856 0.510115 45.1067 0.523017 45.5416C0.534072 46.4809 0.617372 47.4179 0.77217 48.3442C0.92509 49.2723 1.21814 50.1714 1.64115 51.0102C2.06239 51.8477 2.61561 52.611 3.2793 53.2703C3.9369 53.9381 4.69674 54.4952 5.5298 54.9204C6.36186 55.3465 7.25278 55.6442 8.17271 55.8036C9.09399 55.956 10.0253 56.0387 10.9589 56.0511C11.3886 56.0606 11.8109 56.0661 12.2365 56.0661C12.745 56.0689 13.2488 56.0689 13.7586 56.0689H153.629C154.129 56.0689 154.637 56.0689 155.136 56.0661C155.56 56.0661 155.994 56.0606 156.418 56.0511C157.35 56.0393 158.279 55.9566 159.199 55.8036C160.122 55.643 161.016 55.3454 161.852 54.9204C162.684 54.495 163.443 53.9378 164.1 53.2703C164.762 52.6084 165.317 51.8457 165.743 51.0102C166.163 50.1708 166.453 49.2718 166.604 48.3442C166.759 47.4178 166.845 46.481 166.862 45.5416C166.867 45.1067 166.867 44.6856 166.867 44.2509C166.878 43.7423 166.878 43.2365 166.878 42.7196V13.4196C166.878 12.9069 166.878 12.3983 166.867 11.8911C166.867 11.4618 166.867 11.0311 166.862 10.6018C166.845 9.66239 166.759 8.72553 166.604 7.79902C166.453 6.872 166.163 5.97352 165.743 5.13438C164.885 3.45029 163.524 2.07946 161.852 1.21467C161.016 0.790822 160.122 0.494965 159.199 0.336877C158.279 0.182573 157.35 0.0998404 156.418 0.0894136C155.994 0.0825816 155.56 0.0743776 155.136 0.0716476C154.637 0.0688477 154.129 0.0688477 153.629 0.0688477V0.0690297Z" fill="#A6A6A6"/>
<path d="M12.2424 54.8438C11.8188 54.8438 11.4054 54.8383 10.9851 54.8288C10.1144 54.8174 9.24581 54.7411 8.38634 54.6005C7.58492 54.4615 6.80856 54.2029 6.08287 53.8334C5.36383 53.4669 4.70802 52.9864 4.14054 52.4102C3.56484 51.8408 3.08555 51.1803 2.72166 50.4551C2.35376 49.7251 2.09914 48.9427 1.96669 48.135C1.82366 47.2672 1.74627 46.3896 1.7352 45.51C1.72638 45.2147 1.71484 44.2317 1.71484 44.2317V11.891C1.71484 11.891 1.72713 10.923 1.73527 10.6386C1.74587 9.76039 1.82281 8.88424 1.96541 8.01775C2.09811 7.20788 2.35292 6.42318 2.72102 5.69081C3.08358 4.96605 3.56021 4.30514 4.13243 3.73369C4.70401 3.15681 5.36193 2.67379 6.08219 2.30224C6.80621 1.93387 7.5811 1.67717 8.3809 1.54072C9.2432 1.39872 10.1149 1.32194 10.9885 1.31104L12.2431 1.29395H155.128L156.398 1.31173C157.264 1.32208 158.127 1.39817 158.982 1.53935C159.79 1.67751 160.573 1.93601 161.305 2.30634C162.748 3.05512 163.922 4.23976 164.663 5.69423C165.025 6.42154 165.276 7.19984 165.407 8.00271C165.551 8.87631 165.632 9.75935 165.649 10.6448C165.653 11.0413 165.653 11.4672 165.653 11.891C165.664 12.416 165.664 12.9157 165.664 13.4195V42.7195C165.664 43.2282 165.664 43.7245 165.653 44.2248C165.653 44.6801 165.653 45.0971 165.647 45.5264C165.631 46.396 165.551 47.2633 165.41 48.1213C165.28 48.9348 165.027 49.7233 164.659 50.4593C164.292 51.1767 163.816 51.8314 163.247 52.3992C162.679 52.9785 162.022 53.4619 161.301 53.8307C160.571 54.2031 159.789 54.4626 158.982 54.6005C158.122 54.7418 157.254 54.8181 156.383 54.8288C155.976 54.8383 155.549 54.8438 155.135 54.8438L153.628 54.8466L12.2424 54.8438Z" fill="black"/>
<path d="M34.9388 28.4896C34.9538 27.3211 35.262 26.1753 35.8349 25.159C36.4078 24.1427 37.2266 23.2887 38.2153 22.6767C37.5872 21.7735 36.7586 21.0302 35.7954 20.5058C34.8321 19.9814 33.7607 19.6904 32.6662 19.656C30.3314 19.4092 28.068 21.0627 26.8782 21.0627C25.6655 21.0627 23.8337 19.6805 21.8611 19.7213C20.5852 19.7628 19.3417 20.1364 18.2519 20.8057C17.162 21.475 16.2629 22.4171 15.6421 23.5403C12.9532 28.2281 14.9589 35.1176 17.5347 38.9068C18.8234 40.7623 20.3296 42.8349 22.3003 42.7614C24.2288 42.6809 24.9491 41.5231 27.277 41.5231C29.5833 41.5231 30.259 42.7614 32.2698 42.7147C34.3392 42.6809 35.643 40.8509 36.8865 38.9779C37.8124 37.6558 38.5249 36.1946 38.9976 34.6484C37.7954 34.1364 36.7694 33.2793 36.0476 32.1841C35.3259 31.0889 34.9402 29.804 34.9388 28.4896Z" fill="white"/>
<path d="M31.1408 17.1639C32.2692 15.8001 32.825 14.047 32.6904 12.2771C30.9666 12.4594 29.3743 13.289 28.2307 14.6005C27.6716 15.2413 27.2434 15.9867 26.9705 16.7942C26.6977 17.6016 26.5856 18.4553 26.6406 19.3065C27.5028 19.3154 28.3558 19.1272 29.1353 18.7561C29.9148 18.385 30.6005 17.8406 31.1408 17.1639Z" fill="white"/>
<path d="M59.3163 38.0645H52.7351L51.1547 42.7636H48.3672L54.6007 25.3784H57.4969L63.7304 42.7636H60.8954L59.3163 38.0645ZM53.4167 35.8962H58.6334L56.0618 28.27H55.9898L53.4167 35.8962Z" fill="white"/>
<path d="M77.1934 36.4266C77.1934 40.3655 75.0997 42.8961 71.9402 42.8961C71.1398 42.9383 70.3438 42.7526 69.6434 42.3604C68.9429 41.9682 68.3663 41.3853 67.9796 40.6785H67.9198V46.9566H65.3359V30.0883H67.837V32.1965H67.8845C68.2891 31.4931 68.8754 30.9132 69.5812 30.5186C70.287 30.124 71.0858 29.9295 71.8927 29.9557C75.0875 29.9557 77.1934 32.4987 77.1934 36.4266ZM74.5376 36.4266C74.5376 33.8604 73.2206 32.1733 71.2111 32.1733C69.2369 32.1733 67.909 33.8959 67.909 36.4266C67.909 38.9805 69.2369 40.6908 71.2111 40.6908C73.2206 40.6908 74.5376 39.016 74.5376 36.4266Z" fill="white"/>
<path d="M91.0469 36.4266C91.0469 40.3654 88.9533 42.8961 85.7937 42.8961C84.9933 42.9382 84.1974 42.7526 83.4969 42.3604C82.7965 41.9682 82.2198 41.3853 81.8331 40.6785H81.7733V46.9566H79.1895V30.0883H81.6905V32.1965H81.738C82.1425 31.4931 82.7289 30.9132 83.4347 30.5186C84.1405 30.124 84.9393 29.9295 85.7462 29.9557C88.941 29.9557 91.0469 32.4987 91.0469 36.4266ZM88.3911 36.4266C88.3911 33.8604 87.0741 32.1733 85.0646 32.1733C83.0904 32.1733 81.7625 33.8959 81.7625 36.4266C81.7625 38.9805 83.0904 40.6908 85.0646 40.6908C87.0741 40.6908 88.3911 39.016 88.3911 36.4266H88.3911Z" fill="white"/>
<path d="M100.204 37.9195C100.395 39.6435 102.058 40.7755 104.331 40.7755C106.509 40.7755 108.076 39.6434 108.076 38.0889C108.076 36.7395 107.131 35.9315 104.893 35.3778L102.656 34.835C99.4853 34.0639 98.0135 32.571 98.0135 30.1483C98.0135 27.1487 100.61 25.0884 104.296 25.0884C107.944 25.0884 110.445 27.1487 110.529 30.1483H107.921C107.765 28.4134 106.341 27.3661 104.259 27.3661C102.178 27.3661 100.753 28.4257 100.753 29.9679C100.753 31.197 101.663 31.9202 103.889 32.4739L105.791 32.9442C109.333 33.7877 110.805 35.2206 110.805 37.7635C110.805 41.016 108.232 43.0531 104.14 43.0531C100.311 43.0531 97.7256 41.0639 97.5586 37.9193L100.204 37.9195Z" fill="white"/>
<path d="M116.381 27.0886V30.0882H118.775V32.1486H116.381V39.1362C116.381 40.2218 116.861 40.7276 117.913 40.7276C118.197 40.7227 118.481 40.7026 118.763 40.6674V42.7155C118.29 42.8045 117.809 42.8448 117.328 42.8358C114.779 42.8358 113.785 41.8719 113.785 39.4137V32.1486H111.955V30.0882H113.785V27.0886H116.381Z" fill="white"/>
<path d="M120.162 36.4265C120.162 32.4384 122.495 29.9324 126.132 29.9324C129.782 29.9324 132.104 32.4384 132.104 36.4265C132.104 40.4255 129.794 42.9206 126.132 42.9206C122.472 42.9206 120.162 40.4255 120.162 36.4265ZM129.471 36.4265C129.471 33.6908 128.226 32.0761 126.132 32.0761C124.039 32.0761 122.795 33.7031 122.795 36.4265C122.795 39.1732 124.039 40.7755 126.132 40.7755C128.226 40.7755 129.471 39.1732 129.471 36.4265H129.471Z" fill="white"/>
<path d="M134.234 30.0882H136.699V32.2456H136.759C136.925 31.5718 137.317 30.9763 137.869 30.5593C138.42 30.1423 139.097 29.9291 139.786 29.9556C140.084 29.9545 140.381 29.9871 140.672 30.0526V32.4862C140.296 32.3706 139.904 32.3175 139.511 32.329C139.135 32.3137 138.761 32.3803 138.414 32.5244C138.066 32.6684 137.754 32.8864 137.498 33.1635C137.242 33.4405 137.049 33.77 136.932 34.1294C136.814 34.4887 136.776 34.8694 136.818 35.2452V42.7633H134.234L134.234 30.0882Z" fill="white"/>
<path d="M152.584 39.0405C152.236 41.3415 150.011 42.9206 147.163 42.9206C143.501 42.9206 141.229 40.4501 141.229 36.4866C141.229 32.5109 143.514 29.9324 147.055 29.9324C150.537 29.9324 152.728 32.3413 152.728 36.1845V37.0759H143.837V37.2331C143.796 37.6996 143.854 38.1695 144.007 38.6117C144.16 39.0539 144.405 39.4582 144.725 39.7977C145.046 40.1373 145.434 40.4044 145.865 40.5812C146.295 40.758 146.758 40.8406 147.223 40.8233C147.834 40.8809 148.446 40.7386 148.97 40.4173C149.494 40.0961 149.901 39.6132 150.13 39.0405L152.584 39.0405ZM143.849 35.2575H150.142C150.166 34.8381 150.102 34.4184 149.957 34.0247C149.811 33.631 149.586 33.2718 149.297 32.9698C149.007 32.6677 148.658 32.4292 148.272 32.2693C147.886 32.1094 147.472 32.0315 147.055 32.0406C146.634 32.038 146.217 32.1194 145.828 32.2801C145.438 32.4407 145.084 32.6774 144.786 32.9765C144.488 33.2756 144.252 33.6311 144.091 34.0227C143.93 34.4142 143.848 34.8339 143.849 35.2576V35.2575Z" fill="white"/>
<path d="M53.0943 12.2924C53.636 12.2533 54.1795 12.3357 54.6858 12.5337C55.192 12.7317 55.6483 13.0404 56.0218 13.4375C56.3952 13.8345 56.6765 14.3101 56.8453 14.8299C57.014 15.3497 57.0662 15.9007 56.9979 16.4432C56.9979 19.1119 55.5654 20.646 53.0943 20.646H50.0977V12.2924H53.0943ZM51.3862 19.4646H52.9503C53.3374 19.4879 53.7248 19.424 54.0843 19.2775C54.4437 19.1311 54.7662 18.9058 55.0283 18.618C55.2904 18.3302 55.4854 17.9872 55.5992 17.6139C55.713 17.2406 55.7428 16.8465 55.6862 16.4602C55.7387 16.0755 55.7059 15.6838 55.5904 15.3133C55.4748 14.9427 55.2793 14.6025 55.0178 14.317C54.7563 14.0315 54.4354 13.8078 54.0779 13.6619C53.7205 13.5159 53.3354 13.4514 52.9503 13.4729H51.3862V19.4646Z" fill="white"/>
<path d="M58.4534 17.4911C58.4141 17.0768 58.4611 16.6589 58.5916 16.264C58.7221 15.8691 58.9331 15.506 59.2111 15.198C59.489 14.89 59.8279 14.644 60.2059 14.4756C60.5838 14.3072 60.9926 14.2202 61.4059 14.2202C61.8192 14.2202 62.228 14.3072 62.6059 14.4756C62.9839 14.644 63.3228 14.89 63.6007 15.198C63.8787 15.506 64.0897 15.8691 64.2202 16.264C64.3507 16.6589 64.3977 17.0768 64.3584 17.4911C64.3985 17.9058 64.352 18.3244 64.2219 18.7199C64.0917 19.1155 63.8809 19.4792 63.6028 19.7878C63.3247 20.0964 62.9856 20.343 62.6073 20.5117C62.2289 20.6805 61.8197 20.7676 61.4059 20.7676C60.9921 20.7676 60.5829 20.6805 60.2045 20.5117C59.8262 20.343 59.4871 20.0964 59.209 19.7878C58.9309 19.4792 58.7201 19.1155 58.5899 18.7199C58.4598 18.3244 58.4133 17.9058 58.4534 17.4911ZM63.0875 17.4911C63.0875 16.1246 62.4778 15.3255 61.4079 15.3255C60.3339 15.3255 59.7298 16.1246 59.7298 17.4911C59.7298 18.8686 60.334 19.6615 61.4079 19.6615C62.4779 19.6615 63.0875 18.8631 63.0875 17.4911H63.0875Z" fill="white"/>
<path d="M72.2072 20.6459H70.9255L69.6315 16.0029H69.5338L68.2453 20.6459H66.9757L65.25 14.3418H66.5032L67.6248 19.1522H67.7171L69.0043 14.3418H70.1896L71.4768 19.1522H71.5745L72.6906 14.3418H73.9262L72.2072 20.6459Z" fill="white"/>
<path d="M75.377 14.3418H76.5664V15.3432H76.6587C76.8153 14.9835 77.0795 14.682 77.4144 14.4807C77.7493 14.2794 78.1382 14.1883 78.527 14.2201C78.8316 14.197 79.1375 14.2433 79.422 14.3554C79.7064 14.4675 79.9622 14.6427 80.1703 14.8679C80.3784 15.093 80.5336 15.3625 80.6242 15.6562C80.7149 15.95 80.7387 16.2605 80.694 16.5648V20.6458H79.4584V16.8772C79.4584 15.8641 79.0212 15.3603 78.1074 15.3603C77.9006 15.3506 77.6941 15.3861 77.5022 15.4642C77.3102 15.5424 77.1374 15.6614 76.9954 15.8132C76.8534 15.9649 76.7456 16.1457 76.6796 16.3433C76.6135 16.5409 76.5906 16.7505 76.6125 16.9579V20.6458H75.377L75.377 14.3418Z" fill="white"/>
<path d="M82.6641 11.8809H83.8996V20.6459H82.6641V11.8809Z" fill="white"/>
<path d="M85.6174 17.4913C85.5781 17.0769 85.6252 16.6589 85.7557 16.264C85.8862 15.8691 86.0973 15.506 86.3753 15.198C86.6533 14.89 86.9922 14.644 87.3702 14.4756C87.7482 14.3072 88.1569 14.2202 88.5703 14.2202C88.9836 14.2202 89.3924 14.3072 89.7704 14.4756C90.1484 14.644 90.4872 14.89 90.7653 15.198C91.0433 15.506 91.2543 15.8691 91.3848 16.264C91.5153 16.6589 91.5624 17.0769 91.5231 17.4913C91.5631 17.906 91.5166 18.3246 91.3864 18.7201C91.2563 19.1156 91.0454 19.4794 90.7673 19.7879C90.4892 20.0965 90.1501 20.3431 89.7717 20.5118C89.3933 20.6806 88.9841 20.7677 88.5703 20.7677C88.1565 20.7677 87.7472 20.6806 87.3688 20.5118C86.9905 20.3431 86.6514 20.0965 86.3733 19.7879C86.0952 19.4794 85.8843 19.1156 85.7541 18.7201C85.6239 18.3246 85.5774 17.906 85.6174 17.4913ZM90.2515 17.4913C90.2515 16.1248 89.6419 15.3256 88.572 15.3256C87.498 15.3256 86.8938 16.1248 86.8938 17.4913C86.8938 18.8687 87.498 19.6617 88.572 19.6617C89.6419 19.6617 90.2515 18.8632 90.2515 17.4913H90.2515Z" fill="white"/>
<path d="M92.8242 18.8632C92.8242 17.7284 93.6633 17.0742 95.1528 16.9812L96.8487 16.8828V16.3387C96.8487 15.6728 96.4115 15.2969 95.5669 15.2969C94.8772 15.2969 94.3992 15.5518 94.2621 15.9976H93.0659C93.1922 14.9147 94.2037 14.2202 95.624 14.2202C97.1935 14.2202 98.0788 15.007 98.0788 16.3387V20.646H96.8894V19.76H96.7916C96.5932 20.0778 96.3146 20.3369 95.9842 20.5108C95.6538 20.6847 95.2835 20.7672 94.9111 20.7498C94.6483 20.7774 94.3827 20.7491 94.1313 20.667C93.88 20.5848 93.6486 20.4505 93.452 20.2727C93.2553 20.095 93.0979 19.8777 92.9898 19.6349C92.8817 19.3921 92.8253 19.1292 92.8242 18.8632ZM96.8487 18.3245V17.7974L95.3198 17.8959C94.4576 17.954 94.0666 18.2493 94.0666 18.805C94.0666 19.3724 94.5554 19.7026 95.2275 19.7026C95.4245 19.7227 95.6234 19.7026 95.8125 19.6437C96.0016 19.5848 96.177 19.4882 96.3282 19.3596C96.4795 19.231 96.6035 19.0731 96.6929 18.8953C96.7823 18.7175 96.8353 18.5233 96.8487 18.3245Z" fill="white"/>
<path d="M99.7012 17.4911C99.7012 15.4991 100.718 14.2372 102.3 14.2372C102.691 14.2191 103.08 14.3134 103.42 14.5093C103.76 14.7051 104.037 14.9944 104.22 15.3432H104.312V11.8809H105.548V20.6459H104.364V19.6499H104.266C104.069 19.9964 103.782 20.282 103.435 20.4759C103.089 20.6698 102.696 20.7645 102.3 20.7498C100.707 20.7498 99.7012 19.4879 99.7012 17.4911ZM100.978 17.4911C100.978 18.8282 101.603 19.6328 102.65 19.6328C103.692 19.6328 104.335 18.8166 104.335 17.4966C104.335 16.1827 103.685 15.3549 102.65 15.3549C101.61 15.3549 100.977 16.1649 100.977 17.4911H100.978Z" fill="white"/>
<path d="M110.66 17.4911C110.621 17.0768 110.668 16.6589 110.799 16.264C110.929 15.8691 111.14 15.506 111.418 15.198C111.696 14.89 112.035 14.644 112.413 14.4756C112.791 14.3072 113.2 14.2202 113.613 14.2202C114.026 14.2202 114.435 14.3072 114.813 14.4756C115.191 14.644 115.53 14.89 115.808 15.198C116.086 15.506 116.297 15.8691 116.427 16.264C116.558 16.6589 116.605 17.0768 116.565 17.4911C116.606 17.9058 116.559 18.3244 116.429 18.7199C116.299 19.1155 116.088 19.4792 115.81 19.7878C115.532 20.0964 115.193 20.343 114.814 20.5117C114.436 20.6805 114.027 20.7676 113.613 20.7676C113.199 20.7676 112.79 20.6805 112.412 20.5117C112.033 20.343 111.694 20.0964 111.416 19.7878C111.138 19.4792 110.927 19.1155 110.797 18.7199C110.667 18.3244 110.62 17.9058 110.66 17.4911ZM115.295 17.4911C115.295 16.1246 114.685 15.3255 113.615 15.3255C112.541 15.3255 111.937 16.1246 111.937 17.4911C111.937 18.8686 112.541 19.6615 113.615 19.6615C114.685 19.6615 115.295 18.8631 115.295 17.4911Z" fill="white"/>
<path d="M118.225 14.3418H119.414V15.3432H119.506C119.663 14.9835 119.927 14.682 120.262 14.4807C120.597 14.2794 120.986 14.1883 121.375 14.2201C121.679 14.197 121.985 14.2433 122.27 14.3554C122.554 14.4675 122.81 14.6427 123.018 14.8679C123.226 15.093 123.381 15.3625 123.472 15.6562C123.563 15.95 123.586 16.2605 123.542 16.5648V20.6458H122.306V16.8772C122.306 15.8641 121.869 15.3603 120.955 15.3603C120.748 15.3506 120.542 15.3861 120.35 15.4642C120.158 15.5424 119.985 15.6614 119.843 15.8132C119.701 15.9649 119.593 16.1457 119.527 16.3433C119.461 16.5409 119.438 16.7505 119.46 16.9579V20.6458H118.225V14.3418Z" fill="white"/>
<path d="M130.522 12.7722V14.3705H131.878V15.4184H130.522V18.66C130.522 19.3203 130.792 19.6095 131.407 19.6095C131.565 19.609 131.722 19.5994 131.878 19.5808V20.6171C131.656 20.6571 131.432 20.6783 131.206 20.6807C129.832 20.6807 129.285 20.194 129.285 18.9785V15.4183H128.291V14.3704H129.285V12.7722H130.522Z" fill="white"/>
<path d="M133.566 11.8809H134.791V15.3549H134.889C135.053 14.9918 135.325 14.6886 135.666 14.4865C136.008 14.2844 136.403 14.1933 136.798 14.2256C137.101 14.209 137.404 14.2599 137.685 14.3748C137.966 14.4896 138.219 14.6656 138.425 14.8901C138.631 15.1145 138.785 15.382 138.876 15.6734C138.968 15.9648 138.994 16.2729 138.954 16.5758V20.6459H137.717V16.8827C137.717 15.8758 137.251 15.3658 136.378 15.3658C136.166 15.3483 135.952 15.3777 135.753 15.4519C135.553 15.5262 135.371 15.6436 135.221 15.7958C135.071 15.948 134.956 16.1315 134.883 16.3333C134.811 16.535 134.783 16.7503 134.802 16.964V20.6459H133.566L133.566 11.8809Z" fill="white"/>
<path d="M146.159 18.9437C145.991 19.5198 145.627 20.0182 145.131 20.3516C144.635 20.685 144.039 20.8322 143.446 20.7675C143.034 20.7785 142.624 20.6989 142.245 20.5344C141.866 20.3698 141.527 20.1243 141.252 19.8147C140.977 19.5051 140.772 19.1389 140.651 18.7415C140.531 18.3442 140.498 17.9252 140.554 17.5136C140.499 17.1008 140.533 16.6809 140.653 16.2823C140.773 15.8838 140.977 15.5159 141.251 15.2036C141.525 14.8913 141.862 14.6419 142.24 14.4722C142.617 14.3025 143.027 14.2165 143.441 14.2201C145.183 14.2201 146.234 15.4185 146.234 17.3981V17.8322H141.813V17.9019C141.793 18.1333 141.822 18.3661 141.897 18.5856C141.973 18.805 142.093 19.0062 142.25 19.1762C142.407 19.3463 142.597 19.4814 142.809 19.573C143.021 19.6645 143.249 19.7105 143.48 19.7079C143.776 19.7436 144.075 19.69 144.34 19.554C144.605 19.4179 144.825 19.2054 144.97 18.9436L146.159 18.9437ZM141.813 16.9121H144.975C144.99 16.7005 144.962 16.488 144.891 16.2882C144.82 16.0884 144.709 15.9057 144.564 15.7519C144.418 15.5981 144.243 15.4766 144.048 15.3951C143.854 15.3137 143.644 15.2741 143.434 15.279C143.22 15.2763 143.008 15.3167 142.81 15.3978C142.612 15.4789 142.432 15.5991 142.281 15.7513C142.13 15.9035 142.011 16.0846 141.93 16.284C141.85 16.4833 141.81 16.6969 141.813 16.9121H141.813Z" fill="white"/>
</svg>
