<svg width="36" height="36" viewBox="0 0 36 36" fill="none" xmlns="http://www.w3.org/2000/svg">
<path opacity="0.4" d="M24.2857 3H11.7306C6.27061 3 3.01562 6.255 3.01562 11.715V24.27C3.01562 29.73 6.27061 32.985 11.7306 32.985H24.2857C29.7457 32.985 33.0007 29.73 33.0007 24.27V11.715C33.0007 6.255 29.7457 3 24.2857 3Z" fill="#598AB3"/>
<path fill-rule="evenodd" clip-rule="evenodd" d="M15.9107 15.5372H18.9286V17.0407C19.3636 16.1761 20.4784 15.3991 22.153 15.3991C25.3631 15.3991 26.125 17.1198 26.125 20.2773V26.125H22.875V20.9963C22.875 19.1983 22.44 18.1841 21.3336 18.1841C19.7991 18.1841 19.1607 19.2774 19.1607 20.9963V26.125H15.9107V15.5372ZM10.3393 25.9869H13.5893V15.3991H10.3393V25.9869ZM14.0536 11.9465C14.0536 12.2186 13.9995 12.4879 13.8945 12.7393C13.7895 12.9906 13.6356 13.219 13.4416 13.4113C13.2476 13.6037 13.0173 13.7563 12.7638 13.8604C12.5103 13.9645 12.2387 14.0181 11.9643 14.0181C11.6899 14.0181 11.4182 13.9645 11.1648 13.8604C10.9113 13.7563 10.6809 13.6037 10.4869 13.4113C10.2929 13.219 10.139 12.9906 10.034 12.7393C9.92904 12.4879 9.875 12.2186 9.875 11.9465C9.875 11.3971 10.0951 10.8702 10.4869 10.4817C10.8788 10.0933 11.4102 9.875 11.9643 9.875C12.5184 9.875 13.0498 10.0933 13.4416 10.4817C13.8335 10.8702 14.0536 11.3971 14.0536 11.9465Z" fill="#153450"/>
</svg>
