<svg width="288" height="36" viewBox="0 0 288 36" fill="none" xmlns="http://www.w3.org/2000/svg">
<path d="M57.391 24.302C56.1088 24.302 54.8703 24.1217 53.6752 23.7611C52.4801 23.4005 51.5344 22.9223 50.8379 22.3265L51.9063 19.9512C52.587 20.4843 53.4219 20.9194 54.4112 21.2564C55.4005 21.5935 56.3938 21.7621 57.391 21.7621C58.6256 21.7621 59.5476 21.5661 60.157 21.1741C60.7664 20.7822 61.0711 20.2648 61.0711 19.622C61.0711 19.1516 60.901 18.7636 60.5607 18.4578C60.2203 18.1521 59.789 17.913 59.2667 17.7405C58.8024 17.5872 58.188 17.4154 57.4235 17.2249L57.1298 17.1526C55.8635 16.8547 54.8386 16.5568 54.0551 16.2589C53.2715 15.961 52.5988 15.4946 52.0369 14.8596C51.475 14.2246 51.194 13.3663 51.194 12.2844C51.194 11.3751 51.4433 10.548 51.9419 9.80331C52.4405 9.05858 53.1924 8.46673 54.1975 8.02773C55.2027 7.58873 56.4333 7.36923 57.8896 7.36923C58.9026 7.36923 59.8998 7.49466 60.8812 7.74551C61.8626 7.99637 62.7094 8.35697 63.4217 8.82733L62.4482 11.2026C61.7201 10.7793 60.9603 10.4579 60.1689 10.2384C59.3775 10.0189 58.6098 9.90914 57.8658 9.90914C56.647 9.90914 55.7408 10.113 55.1473 10.5206C54.5537 10.9282 54.2569 11.4691 54.2569 12.1433C54.2569 12.6137 54.427 12.9978 54.7674 13.2957C55.1077 13.5936 55.539 13.8288 56.0614 14.0012C56.5837 14.1737 57.296 14.3697 58.1982 14.5892C59.4329 14.8714 60.4459 15.1654 61.2373 15.4711C62.0288 15.7768 62.7055 16.2432 63.2674 16.8704C63.8293 17.4975 64.1102 18.3442 64.1102 19.4103C64.1102 20.3197 63.861 21.1428 63.3623 21.8797C62.8637 22.6166 62.1079 23.2045 61.0949 23.6435C60.0818 24.0825 58.8472 24.302 57.391 24.302ZM79.1633 11.5083V22.1619C79.1633 26.5832 76.9711 28.7939 72.5865 28.7939C71.431 28.7939 70.327 28.641 69.2744 28.3353C68.2217 28.0295 67.3551 27.5866 66.6745 27.0065L68.0041 24.7959C68.5423 25.2505 69.1992 25.6111 69.9748 25.8777C70.7504 26.1442 71.5656 26.2775 72.4203 26.2775C73.7183 26.2775 74.6719 25.9678 75.2814 25.3485C75.8908 24.7292 76.1955 23.7768 76.1955 22.4911V21.9032C75.7206 22.4206 75.1429 22.8164 74.4622 23.0908C73.7816 23.3652 73.0456 23.5024 72.2541 23.5024C70.5604 23.5024 69.2269 23.0399 68.2534 22.1148C67.2799 21.1898 66.7932 19.8023 66.7932 17.9522V11.5083H69.7611V17.5759C69.7611 18.6891 70.0183 19.524 70.5327 20.0806C71.0472 20.6371 71.7792 20.9154 72.729 20.9154C73.7895 20.9154 74.6324 20.594 75.2576 19.9512C75.8828 19.3084 76.1955 18.3755 76.1955 17.1526V11.5083H79.1633ZM99.06 11.3672C100.659 11.3672 101.925 11.8258 102.859 12.743C103.793 13.6602 104.26 15.036 104.26 16.8704V24.0668H101.292V17.2467C101.292 16.1492 101.047 15.3221 100.556 14.7656C100.065 14.209 99.3608 13.9307 98.4427 13.9307C97.4455 13.9307 96.6461 14.256 96.0446 14.9067C95.4431 15.5573 95.1424 16.4863 95.1424 17.6935V24.0668H92.1745V17.2467C92.1745 16.1492 91.9292 15.3221 91.4385 14.7656C90.9478 14.209 90.2434 13.9307 89.3254 13.9307C88.3123 13.9307 87.509 14.2521 86.9154 14.8949C86.3219 15.5377 86.0251 16.4706 86.0251 17.6935V24.0668H83.0572V11.5083H85.8826V13.1076C86.3575 12.5431 86.9511 12.112 87.6633 11.8141C88.3756 11.5162 89.1671 11.3672 90.0376 11.3672C90.9874 11.3672 91.8302 11.5436 92.5663 11.8964C93.3023 12.2492 93.884 12.7705 94.3114 13.4603C94.8337 12.8018 95.5065 12.2884 96.3296 11.9199C97.1527 11.5515 98.0628 11.3672 99.06 11.3672ZM115.087 11.3672C116.321 11.3672 117.425 11.6338 118.399 12.1668C119.372 12.6999 120.136 13.4525 120.69 14.4245C121.244 15.3966 121.521 16.5176 121.521 17.7876C121.521 19.0575 121.244 20.1825 120.69 21.1624C120.136 22.1423 119.372 22.8988 118.399 23.4318C117.425 23.9649 116.321 24.2314 115.087 24.2314C113.377 24.2314 112.024 23.667 111.026 22.5382V28.6292H108.059V11.5083H110.884V13.1546C111.375 12.5588 111.98 12.112 112.7 11.8141C113.421 11.5162 114.216 11.3672 115.087 11.3672ZM114.754 21.715C115.846 21.715 116.745 21.3544 117.449 20.6332C118.153 19.912 118.506 18.9635 118.506 17.7876C118.506 16.6117 118.153 15.6631 117.449 14.9419C116.745 14.2207 115.846 13.8601 114.754 13.8601C114.042 13.8601 113.401 14.0208 112.831 14.3422C112.261 14.6636 111.81 15.1222 111.478 15.718C111.145 16.3138 110.979 17.0037 110.979 17.7876C110.979 18.5715 111.145 19.2614 111.478 19.8571C111.81 20.4529 112.261 20.9115 112.831 21.2329C113.401 21.5543 114.042 21.715 114.754 21.715ZM131.469 23.3848C131.121 23.667 130.698 23.8787 130.199 24.0198C129.7 24.1609 129.174 24.2314 128.62 24.2314C127.227 24.2314 126.151 23.8708 125.391 23.1496C124.631 22.4284 124.251 21.378 124.251 19.9982V8.73326H127.219V11.6024H130.615V13.9542H127.219V19.9277C127.219 20.5392 127.374 21.0056 127.682 21.327C127.991 21.6484 128.422 21.8091 128.976 21.8091C129.641 21.8091 130.195 21.6366 130.638 21.2917L131.469 23.3848ZM139.186 24.2314C137.904 24.2314 136.748 23.9571 135.719 23.4083C134.69 22.8596 133.887 22.0952 133.309 21.1153C132.732 20.1354 132.443 19.0262 132.443 17.7876C132.443 16.549 132.732 15.4437 133.309 14.4716C133.887 13.4995 134.69 12.7391 135.719 12.1904C136.748 11.6416 137.904 11.3672 139.186 11.3672C140.484 11.3672 141.647 11.6416 142.676 12.1904C143.705 12.7391 144.508 13.4995 145.086 14.4716C145.664 15.4437 145.953 16.549 145.953 17.7876C145.953 19.0262 145.664 20.1354 145.086 21.1153C144.508 22.0952 143.705 22.8596 142.676 23.4083C141.647 23.9571 140.484 24.2314 139.186 24.2314ZM139.186 21.715C140.278 21.715 141.18 21.3544 141.892 20.6332C142.605 19.912 142.961 18.9635 142.961 17.7876C142.961 16.6117 142.605 15.6631 141.892 14.9419C141.18 14.2207 140.278 13.8601 139.186 13.8601C138.094 13.8601 137.195 14.2207 136.491 14.9419C135.787 15.6631 135.434 16.6117 135.434 17.7876C135.434 18.9635 135.787 19.912 136.491 20.6332C137.195 21.3544 138.094 21.715 139.186 21.715ZM167.654 7.36923C169.601 7.36923 171.12 7.92973 172.212 9.05075C173.305 10.1718 173.851 11.7827 173.851 13.8836V24.0668H170.764V14.0012C170.764 12.6999 170.42 11.7161 169.731 11.0498C169.043 10.3834 168.144 10.0503 167.036 10.0503C165.802 10.0503 164.816 10.3952 164.08 11.085C163.344 11.7749 162.976 12.8332 162.976 14.2599V24.0668H159.89V14.0012C159.89 12.6842 159.569 11.6965 158.928 11.038C158.287 10.3795 157.412 10.0503 156.304 10.0503C155.054 10.0503 154.053 10.3991 153.301 11.0968C152.549 11.7945 152.173 12.8489 152.173 14.2599V24.0668H149.087V7.60441H152.078V9.76804C152.585 8.99979 153.273 8.40793 154.144 7.99245C155.014 7.57697 156.02 7.36923 157.159 7.36923C158.331 7.36923 159.351 7.58873 160.222 8.02773C161.093 8.46673 161.75 9.08602 162.193 9.88563C162.747 9.08602 163.503 8.46673 164.46 8.02773C165.418 7.58873 166.482 7.36923 167.654 7.36923ZM183.918 21.7386C185.295 21.7386 186.442 21.2839 187.36 20.3745L188.927 22.1854C188.373 22.8596 187.661 23.3691 186.791 23.714C185.92 24.059 184.939 24.2314 183.846 24.2314C182.453 24.2314 181.227 23.9571 180.166 23.4083C179.106 22.8596 178.287 22.0952 177.709 21.1153C177.131 20.1354 176.842 19.0262 176.842 17.7876C176.842 16.5647 177.123 15.4633 177.685 14.4833C178.247 13.5034 179.023 12.7391 180.012 12.1904C181.001 11.6416 182.121 11.3672 183.372 11.3672C184.559 11.3672 185.639 11.622 186.612 12.1316C187.586 12.6411 188.358 13.3702 188.927 14.3187C189.497 15.2673 189.782 16.3765 189.782 17.6465L180.071 19.5279C180.372 20.2491 180.855 20.7978 181.52 21.1741C182.184 21.5504 182.984 21.7386 183.918 21.7386ZM183.372 13.719C182.279 13.719 181.397 14.0718 180.724 14.7773C180.096 15.4358 179.761 16.306 179.72 17.3879L179.715 17.6465L186.886 16.2824C186.68 15.5142 186.264 14.8949 185.639 14.4245C185.014 13.9542 184.258 13.719 183.372 13.719ZM205.049 6.61666V24.0668H202.2V22.4441C201.709 23.0399 201.104 23.4867 200.383 23.7846C199.663 24.0825 198.868 24.2314 197.997 24.2314C196.778 24.2314 195.682 23.9649 194.709 23.4318C193.735 22.8988 192.972 22.1423 192.418 21.1624C191.864 20.1825 191.587 19.0575 191.587 17.7876C191.587 16.5176 191.864 15.3966 192.418 14.4245C192.972 13.4525 193.735 12.6999 194.709 12.1668C195.682 11.6338 196.778 11.3672 197.997 11.3672C198.836 11.3672 199.604 11.5083 200.3 11.7906C200.997 12.0728 201.59 12.4961 202.081 13.0605V6.61666H205.049ZM198.353 21.715C199.066 21.715 199.707 21.5543 200.277 21.2329C200.846 20.9115 201.298 20.4529 201.63 19.8571C201.962 19.2614 202.129 18.5715 202.129 17.7876C202.129 17.0037 201.962 16.3138 201.63 15.718C201.298 15.1222 200.846 14.6636 200.277 14.3422C199.707 14.0208 199.066 13.8601 198.353 13.8601C197.641 13.8601 197 14.0208 196.43 14.3422C195.86 14.6636 195.409 15.1222 195.077 15.718C194.744 16.3138 194.578 17.0037 194.578 17.7876C194.578 18.5715 194.744 19.2614 195.077 19.8571C195.409 20.4529 195.86 20.9115 196.43 21.2329C197 21.5543 197.641 21.715 198.353 21.715ZM208.943 11.5083H211.911V24.0668H208.943V11.5083ZM210.439 9.43879C209.9 9.43879 209.449 9.27025 209.085 8.93316C208.721 8.59607 208.539 8.17668 208.539 7.67496C208.539 7.17325 208.721 6.75385 209.085 6.41676C209.449 6.07967 209.9 5.91113 210.439 5.91113C210.977 5.91113 211.428 6.07184 211.792 6.39325C212.156 6.71466 212.338 7.11837 212.338 7.60441C212.338 8.1218 212.16 8.55687 211.804 8.90964C211.448 9.26241 210.993 9.43879 210.439 9.43879ZM221.622 24.2314C220.308 24.2314 219.129 23.9571 218.084 23.4083C217.039 22.8596 216.224 22.0952 215.638 21.1153C215.053 20.1354 214.76 19.0262 214.76 17.7876C214.76 16.549 215.053 15.4437 215.638 14.4716C216.224 13.4995 217.035 12.7391 218.072 12.1904C219.109 11.6416 220.292 11.3672 221.622 11.3672C222.872 11.3672 223.968 11.6181 224.91 12.1198C225.852 12.6215 226.56 13.3427 227.035 14.2834L224.756 15.6004C224.392 15.0203 223.937 14.5853 223.39 14.2952C222.844 14.0051 222.247 13.8601 221.598 13.8601C220.49 13.8601 219.572 14.2168 218.844 14.9302C218.116 15.6436 217.751 16.596 217.751 17.7876C217.751 18.9791 218.112 19.9316 218.832 20.645C219.552 21.3584 220.474 21.715 221.598 21.715C222.247 21.715 222.844 21.57 223.39 21.28C223.937 20.9899 224.392 20.5548 224.756 19.9747L227.035 21.2917C226.544 22.2324 225.828 22.9576 224.886 23.4671C223.944 23.9767 222.856 24.2314 221.622 24.2314Z" fill="#003C5B"/>
<path d="M243.75 7.43656C245.182 7.43656 246.429 7.67391 247.491 8.14861C248.553 8.62331 249.367 9.30371 249.933 10.1898C250.5 11.0759 250.783 12.1282 250.783 13.3466C250.783 14.5492 250.5 15.5975 249.933 16.4915C249.367 17.3855 248.553 18.0699 247.491 18.5446C246.429 19.0193 245.182 19.2566 243.75 19.2566H240.021V24.0511H236.953V7.43656H243.75ZM243.608 16.6458C244.946 16.6458 245.961 16.3609 246.653 15.7913C247.345 15.2217 247.691 14.4068 247.691 13.3466C247.691 12.2864 247.345 11.4715 246.653 10.9019C245.961 10.3322 244.946 10.0474 243.608 10.0474H240.021V16.6458H243.608ZM259.516 21.7013C260.885 21.7013 262.025 21.2425 262.938 20.3247L264.496 22.1523C263.945 22.8327 263.237 23.347 262.371 23.6951C261.506 24.0432 260.531 24.2172 259.445 24.2172C258.06 24.2172 256.841 23.9403 255.787 23.3865C254.732 22.8327 253.918 22.0613 253.344 21.0723C252.77 20.0834 252.482 18.9639 252.482 17.7138C252.482 16.4796 252.762 15.368 253.32 14.3791C253.879 13.3901 254.65 12.6187 255.633 12.0649C256.617 11.5111 257.73 11.2342 258.973 11.2342C260.153 11.2342 261.227 11.4913 262.194 12.0056C263.162 12.5198 263.929 13.2556 264.496 14.2129C265.062 15.1702 265.345 16.2897 265.345 17.5714L255.692 19.4702C255.991 20.1981 256.471 20.7519 257.132 21.1317C257.793 21.5114 258.587 21.7013 259.516 21.7013ZM258.973 13.6077C257.887 13.6077 257.01 13.9637 256.341 14.6758C255.717 15.3403 255.384 16.2186 255.343 17.3104L255.338 17.5714L262.466 16.1948C262.261 15.4194 261.848 14.7944 261.227 14.3197C260.605 13.845 259.854 13.6077 258.973 13.6077ZM275.258 23.3628C274.912 23.6476 274.491 23.8612 273.995 24.0036C273.5 24.146 272.976 24.2172 272.426 24.2172C271.041 24.2172 269.971 23.8533 269.216 23.1254C268.461 22.3975 268.083 21.3374 268.083 19.9449V8.57584H271.033V11.4715H274.408V13.845H271.033V19.8737C271.033 20.4908 271.187 20.9616 271.493 21.286C271.8 21.6103 272.229 21.7725 272.78 21.7725C273.441 21.7725 273.991 21.5985 274.432 21.2504L275.258 23.3628ZM281.583 24.2172C280.56 24.2172 279.561 24.0827 278.586 23.8137C277.61 23.5447 276.831 23.2045 276.249 22.7931L277.382 20.5383C277.948 20.9181 278.629 21.2227 279.424 21.4521C280.218 21.6815 281.001 21.7963 281.772 21.7963C283.534 21.7963 284.415 21.3295 284.415 20.3959C284.415 19.9528 284.191 19.6443 283.743 19.4702C283.294 19.2962 282.574 19.13 281.583 18.9718C280.545 18.8136 279.699 18.6316 279.046 18.4259C278.393 18.2202 277.826 17.8602 277.347 17.3459C276.867 16.8317 276.627 16.1157 276.627 15.1979C276.627 13.9953 277.126 13.0341 278.125 12.3141C279.125 11.5941 280.474 11.2342 282.173 11.2342C283.039 11.2342 283.904 11.3331 284.769 11.5309C285.635 11.7287 286.343 11.9937 286.893 12.326L285.761 14.5808C284.691 13.9479 283.487 13.6314 282.15 13.6314C281.284 13.6314 280.627 13.7619 280.179 14.023C279.73 14.2841 279.506 14.6283 279.506 15.0555C279.506 15.5302 279.746 15.8665 280.226 16.0643C280.706 16.262 281.449 16.448 282.456 16.622C283.463 16.7803 284.289 16.9622 284.934 17.1679C285.58 17.3736 286.134 17.7217 286.598 18.2123C287.063 18.7028 287.295 19.399 287.295 20.301C287.295 21.4877 286.783 22.4371 285.761 23.1492C284.738 23.8612 283.345 24.2172 281.583 24.2172Z" fill="#598AB3"/>
<path d="M39.0768 14.2422C38.8385 11.9026 37.6197 9.93643 35.7364 8.8505C34.7475 8.27835 33.6115 7.97861 32.4472 7.97861C32.4389 7.97861 32.4306 7.98046 32.4223 7.98046C32.345 4.27098 30.29 1.11743 26.9893 0.23025C26.4197 0.077831 25.8316 0 25.2407 0C23.1028 0 21.089 1.01968 19.5606 2.68934C18.0322 1.01968 16.0184 0 13.8806 0C13.2892 0 12.7015 0.077831 12.1287 0.23025C8.82986 1.11558 6.77487 4.27098 6.69666 7.98C6.68833 7.98 6.68 7.97814 6.67168 7.97814C5.50744 7.97814 4.36958 8.27974 3.38628 8.84865C1.50018 9.93643 0.281344 11.9026 0.0425738 14.2422C-0.148072 16.1143 0.305868 18.1119 1.31786 19.8696C2.40251 21.7565 4.00541 23.1524 5.79434 23.8872C5.45469 25.1158 5.2497 26.3843 5.2497 27.6805C5.2497 34.7173 9.94273 35.2625 11.3818 35.2625C12.8112 35.2625 14.1443 34.8414 15.5552 34.3953C16.8948 33.9709 18.2779 33.5313 19.5611 33.5313C20.8447 33.5313 22.2292 33.9705 23.567 34.3953C24.9778 34.8428 26.311 35.2625 27.7403 35.2625C29.8351 35.2625 31.5907 34.3323 32.6819 32.6427C33.4935 31.3858 33.8725 29.8093 33.8725 27.68C33.8725 26.3833 33.667 25.1153 33.3278 23.8867C35.1181 23.1538 36.7192 21.7579 37.8025 19.8729C38.8135 18.1119 39.2675 16.1143 39.0768 14.2422ZM21.2066 8.0796C21.9104 5.44817 24.02 3.72755 25.9195 4.23623C27.819 4.74677 28.7861 7.29527 28.0841 9.92485C27.3785 12.5544 25.2707 14.2769 23.3712 13.7664C21.4699 13.2572 20.5027 10.7106 21.2066 8.0796ZM13.1994 4.23438C15.0971 3.72523 17.2072 5.44632 17.9124 8.07775C18.6162 10.7092 17.6491 13.2558 15.7496 13.7645C13.85 14.275 11.7418 12.5526 11.0366 9.92299C10.331 7.29342 11.2999 4.74538 13.1994 4.23438ZM4.90265 17.8001C3.69862 15.7112 3.94063 13.3119 5.45099 12.4414C6.9595 11.5695 9.15701 12.5558 10.361 14.6466C11.5683 16.7374 11.3231 19.1367 9.81455 20.0067C8.30558 20.8777 6.10668 19.8928 4.90265 17.8001ZM19.5588 29.3863C13.9417 29.3863 9.38745 34.2475 9.38745 27.68C9.38745 21.1112 15.9106 15.7886 19.5588 15.7904C23.2069 15.7923 29.7301 21.1112 29.7301 27.68C29.7301 34.248 25.1759 29.3863 19.5588 29.3863ZM34.2144 17.8001C33.0104 19.8928 30.8129 20.8772 29.3025 20.0067C27.794 19.1362 27.5488 16.7355 28.756 14.6466C29.9601 12.5558 32.1576 11.5695 33.6661 12.4414C35.1769 13.3119 35.4185 15.7112 34.2144 17.8001Z" fill="#598AB3"/>
</svg>
