<svg width="230" height="37" viewBox="0 0 230 37" fill="none" xmlns="http://www.w3.org/2000/svg">
<path d="M57.391 25.3901C56.1088 25.3901 54.8703 25.2098 53.6752 24.8492C52.4801 24.4886 51.5344 24.0104 50.8379 23.4146L51.9063 21.0393C52.587 21.5724 53.4219 22.0075 54.4112 22.3446C55.4005 22.6817 56.3938 22.8502 57.391 22.8502C58.6256 22.8502 59.5476 22.6542 60.157 22.2623C60.7664 21.8703 61.0711 21.3529 61.0711 20.7101C61.0711 20.2397 60.901 19.8517 60.5607 19.546C60.2203 19.2402 59.789 19.0011 59.2667 18.8287C58.8024 18.6754 58.188 18.5035 57.4235 18.313L57.1298 18.2407C55.8635 17.9428 54.8386 17.645 54.0551 17.3471C53.2715 17.0492 52.5988 16.5827 52.0369 15.9478C51.475 15.3128 51.194 14.4544 51.194 13.3726C51.194 12.4632 51.4433 11.6362 51.9419 10.8914C52.4405 10.1467 53.1924 9.55486 54.1975 9.11586C55.2027 8.67686 56.4333 8.45737 57.8896 8.45737C58.9026 8.45737 59.8998 8.58279 60.8812 8.83365C61.8626 9.08451 62.7094 9.44511 63.4217 9.91546L62.4482 12.2908C61.7201 11.8674 60.9603 11.546 60.1689 11.3265C59.3775 11.107 58.6098 10.9973 57.8658 10.9973C56.647 10.9973 55.7408 11.2011 55.1473 11.6087C54.5537 12.0164 54.2569 12.5573 54.2569 13.2315C54.2569 13.7018 54.427 14.0859 54.7674 14.3838C55.1077 14.6817 55.539 14.9169 56.0614 15.0894C56.5837 15.2618 57.296 15.4578 58.1982 15.6773C59.4329 15.9595 60.4459 16.2535 61.2373 16.5592C62.0288 16.865 62.7055 17.3314 63.2674 17.9585C63.8293 18.5857 64.1102 19.4323 64.1102 20.4984C64.1102 21.4078 63.861 22.2309 63.3623 22.9678C62.8637 23.7047 62.1079 24.2926 61.0949 24.7316C60.0818 25.1706 58.8472 25.3901 57.391 25.3901ZM79.1633 12.5965V23.25C79.1633 27.6714 76.9711 29.882 72.5865 29.882C71.431 29.882 70.327 29.7291 69.2744 29.4234C68.2217 29.1177 67.3551 28.6748 66.6745 28.0947L68.0041 25.884C68.5423 26.3387 69.1992 26.6993 69.9748 26.9658C70.7504 27.2323 71.5656 27.3656 72.4203 27.3656C73.7183 27.3656 74.6719 27.056 75.2814 26.4367C75.8908 25.8174 76.1955 24.8649 76.1955 23.5793V22.9913C75.7206 23.5087 75.1429 23.9046 74.4622 24.179C73.7816 24.4533 73.0456 24.5905 72.2541 24.5905C70.5604 24.5905 69.2269 24.128 68.2534 23.203C67.2799 22.2779 66.7932 20.8904 66.7932 19.0403V12.5965H69.7611V18.6641C69.7611 19.7772 70.0183 20.6121 70.5327 21.1687C71.0472 21.7253 71.7792 22.0036 72.729 22.0036C73.7895 22.0036 74.6324 21.6822 75.2576 21.0393C75.8828 20.3965 76.1955 19.4637 76.1955 18.2407V12.5965H79.1633ZM99.06 12.4554C100.659 12.4554 101.925 12.914 102.859 13.8312C103.793 14.7484 104.26 16.1241 104.26 17.9585V25.1549H101.292V18.3348C101.292 17.2373 101.047 16.4103 100.556 15.8537C100.065 15.2971 99.3608 15.0188 98.4427 15.0188C97.4455 15.0188 96.6461 15.3441 96.0446 15.9948C95.4431 16.6455 95.1424 17.5744 95.1424 18.7816V25.1549H92.1745V18.3348C92.1745 17.2373 91.9292 16.4103 91.4385 15.8537C90.9478 15.2971 90.2434 15.0188 89.3254 15.0188C88.3123 15.0188 87.509 15.3402 86.9154 15.983C86.3219 16.6259 86.0251 17.5587 86.0251 18.7816V25.1549H83.0572V12.5965H85.8826V14.1957C86.3575 13.6313 86.951 13.2001 87.6633 12.9022C88.3756 12.6043 89.1671 12.4554 90.0376 12.4554C90.9874 12.4554 91.8302 12.6318 92.5663 12.9845C93.3023 13.3373 93.884 13.8586 94.3114 14.5485C94.8337 13.89 95.5065 13.3765 96.3296 13.008C97.1527 12.6396 98.0628 12.4554 99.06 12.4554ZM115.087 12.4554C116.321 12.4554 117.425 12.7219 118.399 13.255C119.372 13.7881 120.136 14.5406 120.69 15.5127C121.244 16.4848 121.521 17.6058 121.521 18.8757C121.521 20.1457 121.244 21.2706 120.69 22.2505C120.136 23.2304 119.372 23.9869 118.399 24.52C117.425 25.053 116.321 25.3196 115.087 25.3196C113.377 25.3196 112.024 24.7551 111.026 23.6263V29.7174H108.059V12.5965H110.884V14.2427C111.375 13.6469 111.98 13.2001 112.7 12.9022C113.421 12.6043 114.216 12.4554 115.087 12.4554ZM114.754 22.8032C115.846 22.8032 116.745 22.4426 117.449 21.7214C118.153 21.0001 118.506 20.0516 118.506 18.8757C118.506 17.6998 118.153 16.7513 117.449 16.0301C116.745 15.3089 115.846 14.9483 114.754 14.9483C114.042 14.9483 113.401 15.109 112.831 15.4304C112.261 15.7518 111.81 16.2104 111.478 16.8062C111.145 17.4019 110.979 18.0918 110.979 18.8757C110.979 19.6596 111.145 20.3495 111.478 20.9453C111.81 21.5411 112.261 21.9997 112.831 22.3211C113.401 22.6425 114.042 22.8032 114.754 22.8032ZM131.469 24.4729C131.121 24.7551 130.698 24.9668 130.199 25.1079C129.7 25.249 129.174 25.3196 128.62 25.3196C127.227 25.3196 126.151 24.959 125.391 24.2378C124.631 23.5165 124.251 22.4661 124.251 21.0864V9.82139H127.219V12.6906H130.615V15.0423H127.219V21.0158C127.219 21.6273 127.374 22.0937 127.682 22.4151C127.991 22.7365 128.422 22.8972 128.976 22.8972C129.641 22.8972 130.195 22.7248 130.638 22.3799L131.469 24.4729ZM139.186 25.3196C137.904 25.3196 136.748 25.0452 135.719 24.4964C134.69 23.9477 133.887 23.1834 133.309 22.2035C132.732 21.2236 132.443 20.1143 132.443 18.8757C132.443 17.6371 132.732 16.5318 133.309 15.5597C133.887 14.5876 134.69 13.8272 135.719 13.2785C136.748 12.7297 137.904 12.4554 139.186 12.4554C140.484 12.4554 141.647 12.7297 142.676 13.2785C143.705 13.8272 144.508 14.5876 145.086 15.5597C145.664 16.5318 145.953 17.6371 145.953 18.8757C145.953 20.1143 145.664 21.2236 145.086 22.2035C144.508 23.1834 143.705 23.9477 142.676 24.4964C141.647 25.0452 140.484 25.3196 139.186 25.3196ZM139.186 22.8032C140.278 22.8032 141.18 22.4426 141.892 21.7214C142.605 21.0001 142.961 20.0516 142.961 18.8757C142.961 17.6998 142.605 16.7513 141.892 16.0301C141.18 15.3089 140.278 14.9483 139.186 14.9483C138.094 14.9483 137.195 15.3089 136.491 16.0301C135.787 16.7513 135.434 17.6998 135.434 18.8757C135.434 20.0516 135.787 21.0001 136.491 21.7214C137.195 22.4426 138.094 22.8032 139.186 22.8032ZM167.654 8.45737C169.601 8.45737 171.12 9.01787 172.212 10.1389C173.304 11.2599 173.851 12.8708 173.851 14.9718V25.1549H170.764V15.0894C170.764 13.788 170.42 12.8042 169.731 12.1379C169.043 11.4715 168.144 11.1384 167.036 11.1384C165.802 11.1384 164.816 11.4833 164.08 12.1732C163.344 12.863 162.976 13.9213 162.976 15.3481V25.1549H159.89V15.0894C159.89 13.7724 159.569 12.7846 158.928 12.1261C158.287 11.4676 157.412 11.1384 156.304 11.1384C155.054 11.1384 154.053 11.4872 153.301 12.1849C152.549 12.8826 152.173 13.937 152.173 15.3481V25.1549H149.087V8.69254H152.078V10.8562C152.585 10.0879 153.273 9.49607 154.144 9.08059C155.014 8.6651 156.02 8.45737 157.159 8.45737C158.331 8.45737 159.352 8.67686 160.222 9.11586C161.093 9.55486 161.75 10.1742 162.193 10.9738C162.747 10.1742 163.503 9.55486 164.46 9.11586C165.418 8.67686 166.482 8.45737 167.654 8.45737ZM183.918 22.8267C185.295 22.8267 186.442 22.372 187.36 21.4627L188.927 23.2735C188.373 23.9477 187.661 24.4573 186.791 24.8022C185.92 25.1471 184.939 25.3196 183.846 25.3196C182.453 25.3196 181.227 25.0452 180.166 24.4964C179.106 23.9477 178.287 23.1834 177.709 22.2035C177.131 21.2236 176.842 20.1143 176.842 18.8757C176.842 17.6528 177.123 16.5514 177.685 15.5715C178.247 14.5916 179.023 13.8272 180.012 13.2785C181.001 12.7297 182.121 12.4554 183.372 12.4554C184.559 12.4554 185.639 12.7102 186.612 13.2197C187.586 13.7293 188.358 14.4583 188.927 15.4069C189.497 16.3554 189.782 17.4646 189.782 18.7346L180.071 20.616C180.372 21.3372 180.855 21.886 181.52 22.2623C182.184 22.6386 182.984 22.8267 183.918 22.8267ZM183.372 14.8071C182.279 14.8071 181.397 15.1599 180.724 15.8654C180.096 16.5239 179.761 17.3941 179.72 18.476L179.715 18.7346L186.886 17.3706C186.68 16.6023 186.264 15.983 185.639 15.5127C185.014 15.0423 184.258 14.8071 183.372 14.8071ZM205.049 7.7048V25.1549H202.2V23.5322C201.709 24.128 201.104 24.5748 200.383 24.8727C199.663 25.1706 198.868 25.3196 197.997 25.3196C196.778 25.3196 195.682 25.053 194.709 24.52C193.735 23.9869 192.972 23.2304 192.418 22.2505C191.864 21.2706 191.587 20.1457 191.587 18.8757C191.587 17.6058 191.864 16.4848 192.418 15.5127C192.972 14.5406 193.735 13.7881 194.709 13.255C195.682 12.7219 196.778 12.4554 197.997 12.4554C198.836 12.4554 199.604 12.5965 200.3 12.8787C200.997 13.1609 201.59 13.5842 202.081 14.1487V7.7048H205.049ZM198.353 22.8032C199.066 22.8032 199.707 22.6425 200.277 22.3211C200.846 21.9997 201.298 21.5411 201.63 20.9453C201.962 20.3495 202.129 19.6596 202.129 18.8757C202.129 18.0918 201.962 17.4019 201.63 16.8062C201.298 16.2104 200.846 15.7518 200.277 15.4304C199.707 15.109 199.066 14.9483 198.353 14.9483C197.641 14.9483 197 15.109 196.43 15.4304C195.86 15.7518 195.409 16.2104 195.077 16.8062C194.744 17.4019 194.578 18.0918 194.578 18.8757C194.578 19.6596 194.744 20.3495 195.077 20.9453C195.409 21.5411 195.86 21.9997 196.43 22.3211C197 22.6425 197.641 22.8032 198.353 22.8032ZM208.943 12.5965H211.911V25.1549H208.943V12.5965ZM210.439 10.5269C209.9 10.5269 209.449 10.3584 209.085 10.0213C208.721 9.68421 208.539 9.26481 208.539 8.7631C208.539 8.26138 208.721 7.84199 209.085 7.5049C209.449 7.16781 209.9 6.99927 210.439 6.99927C210.977 6.99927 211.428 7.15997 211.792 7.48138C212.156 7.80279 212.338 8.20651 212.338 8.69254C212.338 9.20994 212.16 9.64501 211.804 9.99778C211.448 10.3505 210.993 10.5269 210.439 10.5269ZM221.622 25.3196C220.308 25.3196 219.129 25.0452 218.084 24.4964C217.039 23.9477 216.224 23.1834 215.638 22.2035C215.053 21.2236 214.76 20.1143 214.76 18.8757C214.76 17.6371 215.053 16.5318 215.638 15.5597C216.224 14.5876 217.035 13.8272 218.072 13.2785C219.109 12.7297 220.292 12.4554 221.622 12.4554C222.872 12.4554 223.968 12.7062 224.91 13.2079C225.852 13.7097 226.56 14.4309 227.035 15.3716L224.756 16.6886C224.392 16.1085 223.937 15.6734 223.39 15.3833C222.844 15.0933 222.247 14.9483 221.598 14.9483C220.49 14.9483 219.572 15.3049 218.844 16.0183C218.116 16.7317 217.751 17.6841 217.751 18.8757C217.751 20.0673 218.112 21.0197 218.832 21.7331C219.552 22.4465 220.474 22.8032 221.598 22.8032C222.247 22.8032 222.844 22.6581 223.39 22.3681C223.937 22.078 224.392 21.643 224.756 21.0629L227.035 22.3799C226.544 23.3206 225.828 24.0457 224.886 24.5552C223.944 25.0648 222.856 25.3196 221.622 25.3196Z" fill="#003C5B"/>
<path d="M34.0658 9.71327C34.0658 9.71327 32.1683 5.78279 31.084 4.27959L31.7001 3.79906L30.6158 1.08838H27.4986C27.4986 1.08838 26.9564 1.43337 27.092 1.76605C27.092 1.76605 27.018 3.66352 27.363 4.20566C27.708 4.74779 31.0224 10.7236 31.0964 15.2702C31.1703 19.8167 30.1476 23.5501 25.7366 26.9384C25.7366 26.9384 23.5681 28.8359 19.4897 28.8359C15.4237 28.8359 13.2552 26.9384 13.2552 26.9384C8.84415 23.5501 7.8338 19.8167 7.89541 15.2702C7.96934 10.7236 11.2838 4.74779 11.6288 4.20566C11.9738 3.66352 11.8998 1.76605 11.8998 1.76605C12.0354 1.42105 11.4932 1.08838 11.4932 1.08838H8.37594L7.29167 3.79906L7.90774 4.27959C6.82346 5.77046 4.92599 9.71327 4.92599 9.71327C4.92599 9.71327 0.650508 20.7038 5.81312 28.5155C10.9634 36.3149 19.5144 35.9083 19.5144 35.9083C19.5144 35.9083 28.0653 36.3149 33.2156 28.5155C38.3413 20.7038 34.0658 9.71327 34.0658 9.71327ZM5.24634 18.3135C4.91366 18.3012 4.65492 18.0055 4.66724 17.6728L4.79046 15.3071C4.80278 14.9745 5.09848 14.7157 5.43116 14.728L6.17043 14.765C6.50311 14.7773 6.76185 15.073 6.74953 15.4057L6.62632 17.7837C6.614 18.1164 6.31829 18.3751 5.98561 18.3628L5.24634 18.3135ZM8.54844 25.8048L7.88309 26.1375C7.58738 26.2854 7.21774 26.1745 7.05756 25.8664L5.98561 23.7472C5.83776 23.4515 5.94865 23.0818 6.25668 22.9217L6.92203 22.589C7.21774 22.4411 7.58738 22.552 7.74756 22.8601L8.8195 24.9793C8.96736 25.2874 8.84415 25.657 8.54844 25.8048ZM14.6968 30.8812L14.4134 31.5712C14.2902 31.8792 13.9328 32.0394 13.6125 31.9039L11.407 31.0044C11.0989 30.8812 10.9388 30.5239 11.0743 30.2035L11.3577 29.5135C11.4809 29.2055 11.8382 29.0453 12.1586 29.1809L14.3641 30.0803C14.6721 30.2035 14.82 30.5609 14.6968 30.8812ZM27.5478 31.0044L25.3423 31.9039C25.0343 32.0271 24.677 31.8792 24.5414 31.5712L24.2581 30.8812C24.1348 30.5732 24.2827 30.2159 24.5907 30.0803L26.7962 29.1809C27.1043 29.0577 27.4616 29.2055 27.5971 29.5135L27.8805 30.2035C28.016 30.5239 27.8682 30.8812 27.5478 31.0044ZM32.9938 23.7595L31.9219 25.8788C31.774 26.1745 31.4044 26.2977 31.0964 26.1498L30.431 25.8172C30.1353 25.6693 30.0121 25.2997 30.1599 24.9916L31.2319 22.8724C31.3798 22.5767 31.7494 22.4535 32.0574 22.6013L32.7228 22.934C33.0308 23.0942 33.1417 23.4638 32.9938 23.7595ZM33.7331 18.3135L32.9938 18.3505C32.6612 18.3628 32.3654 18.1164 32.3531 17.7714L32.2299 15.3934C32.2176 15.0607 32.464 14.765 32.809 14.7527L33.5483 14.7157C33.881 14.7034 34.1767 14.9498 34.189 15.2948L34.3122 17.6605C34.3245 18.0055 34.0658 18.2889 33.7331 18.3135Z" fill="#598AB3"/>
<path d="M28.9206 13.7621C28.8063 12.64 28.2218 11.6971 27.3185 11.1763C26.8443 10.9019 26.2995 10.7581 25.7411 10.7581C25.7371 10.7581 25.7331 10.759 25.7291 10.759C25.6921 8.97997 24.7065 7.46755 23.1235 7.04207C22.8504 6.96897 22.5683 6.93164 22.2849 6.93164C21.2596 6.93164 20.2938 7.42067 19.5608 8.22143C18.8278 7.42067 17.862 6.93164 16.8367 6.93164C16.5531 6.93164 16.2712 6.96897 15.9965 7.04207C14.4144 7.46666 13.4289 8.97997 13.3914 10.7588C13.3874 10.7588 13.3834 10.7579 13.3794 10.7579C12.821 10.7579 12.2753 10.9025 11.8037 11.1754C10.8992 11.6971 10.3146 12.64 10.2001 13.7621C10.1087 14.6599 10.3264 15.618 10.8117 16.4609C11.3319 17.3659 12.1006 18.0353 12.9586 18.3877C12.7957 18.977 12.6974 19.5853 12.6974 20.207C12.6974 23.5818 14.9481 23.8433 15.6383 23.8433C16.3238 23.8433 16.9632 23.6413 17.6398 23.4273C18.2823 23.2238 18.9456 23.013 19.561 23.013C20.1766 23.013 20.8406 23.2236 21.4822 23.4273C22.1588 23.642 22.7982 23.8433 23.4837 23.8433C24.4884 23.8433 25.3303 23.3971 25.8536 22.5868C26.2429 21.984 26.4246 21.2279 26.4246 20.2068C26.4246 19.5849 26.3261 18.9767 26.1634 18.3875C27.0221 18.036 27.7899 17.3666 28.3094 16.4625C28.7943 15.618 29.012 14.6599 28.9206 13.7621ZM20.3502 10.8065C20.6877 9.54454 21.6995 8.71934 22.6105 8.9633C23.5214 9.20815 23.9853 10.4304 23.6486 11.6915C23.3102 12.9526 22.2993 13.7787 21.3883 13.5339C20.4764 13.2897 20.0126 12.0683 20.3502 10.8065ZM16.51 8.96241C17.4201 8.71823 18.4321 9.54365 18.7703 10.8057C19.1079 12.0677 18.644 13.289 17.733 13.533C16.8221 13.7778 15.811 12.9517 15.4728 11.6906C15.1343 10.4295 15.599 9.20748 16.51 8.96241ZM12.531 15.4684C11.9535 14.4666 12.0696 13.3159 12.7939 12.8984C13.5174 12.4803 14.5713 12.9533 15.1488 13.956C15.7278 14.9587 15.6101 16.1094 14.8867 16.5267C14.163 16.9444 13.1084 16.472 12.531 15.4684ZM19.5599 21.0251C16.866 21.0251 14.6818 23.3565 14.6818 20.2068C14.6818 17.0564 17.8103 14.5037 19.5599 14.5046C21.3095 14.5055 24.438 17.0564 24.438 20.2068C24.438 23.3567 22.2538 21.0251 19.5599 21.0251ZM26.5886 15.4684C26.0112 16.472 24.9573 16.9442 24.2329 16.5267C23.5095 16.1092 23.3918 14.9579 23.9708 13.956C24.5483 12.9533 25.6022 12.4803 26.3257 12.8984C27.0502 13.3159 27.1661 14.4666 26.5886 15.4684Z" fill="#598AB3"/>
</svg>
