<svg width="271" height="36" viewBox="0 0 271 36" fill="none" xmlns="http://www.w3.org/2000/svg">
<path d="M57.3929 24.3901C56.1108 24.3901 54.8722 24.2098 53.6771 23.8492C52.4821 23.4886 51.5363 23.0104 50.8398 22.4146L51.9083 20.0393C52.5889 20.5724 53.4239 21.0075 54.4132 21.3446C55.4025 21.6817 56.3957 21.8502 57.3929 21.8502C58.6276 21.8502 59.5496 21.6542 60.159 21.2623C60.7684 20.8703 61.0731 20.3529 61.0731 19.7101C61.0731 19.2397 60.9029 18.8517 60.5626 18.546C60.2223 18.2402 59.791 18.0011 59.2686 17.8287C58.8043 17.6754 58.1899 17.5035 57.4255 17.313L57.1317 17.2407C55.8654 16.9428 54.8405 16.645 54.057 16.3471C53.2735 16.0492 52.6008 15.5827 52.0389 14.9478C51.4769 14.3128 51.196 13.4544 51.196 12.3726C51.196 11.4632 51.4453 10.6362 51.9439 9.89145C52.4425 9.14672 53.1944 8.55486 54.1995 8.11586C55.2046 7.67686 56.4353 7.45737 57.8915 7.45737C58.9046 7.45737 59.9018 7.58279 60.8832 7.83365C61.8645 8.08451 62.7114 8.44511 63.4237 8.91546L62.4502 11.2908C61.7221 10.8674 60.9623 10.546 60.1709 10.3265C59.3794 10.107 58.6117 9.99728 57.8678 9.99728C56.649 9.99728 55.7428 10.2011 55.1492 10.6087C54.5556 11.0164 54.2588 11.5573 54.2588 12.2315C54.2588 12.7018 54.429 13.0859 54.7693 13.3838C55.1096 13.6817 55.541 13.9169 56.0633 14.0894C56.5857 14.2618 57.2979 14.4578 58.2002 14.6773C59.4348 14.9595 60.4479 15.2535 61.2393 15.5592C62.0307 15.865 62.7074 16.3314 63.2693 16.9585C63.8312 17.5857 64.1122 18.4323 64.1122 19.4984C64.1122 20.4078 63.8629 21.2309 63.3643 21.9678C62.8657 22.7047 62.1099 23.2926 61.0968 23.7316C60.0838 24.1706 58.8492 24.3901 57.3929 24.3901ZM79.1653 11.5965V22.25C79.1653 26.6714 76.973 28.882 72.5885 28.882C71.433 28.882 70.3289 28.7291 69.2763 28.4234C68.2237 28.1177 67.3571 27.6748 66.6765 27.0947L68.0061 24.884C68.5442 25.3387 69.2011 25.6993 69.9767 25.9658C70.7523 26.2323 71.5675 26.3656 72.4223 26.3656C73.7202 26.3656 74.6739 26.056 75.2833 25.4367C75.8927 24.8174 76.1974 23.8649 76.1974 22.5793V21.9913C75.7225 22.5087 75.1448 22.9046 74.4642 23.179C73.7835 23.4533 73.0475 23.5905 72.2561 23.5905C70.5624 23.5905 69.2288 23.128 68.2554 22.203C67.2819 21.2779 66.7952 19.8904 66.7952 18.0403V11.5965H69.763V17.6641C69.763 18.7772 70.0203 19.6121 70.5347 20.1687C71.0491 20.7253 71.7812 21.0036 72.7309 21.0036C73.7915 21.0036 74.6343 20.6822 75.2596 20.0393C75.8848 19.3965 76.1974 18.4637 76.1974 17.2407V11.5965H79.1653ZM99.062 11.4554C100.661 11.4554 101.927 11.914 102.861 12.8312C103.795 13.7484 104.262 15.1241 104.262 16.9585V24.1549H101.294V17.3348C101.294 16.2373 101.048 15.4103 100.558 14.8537C100.067 14.2971 99.3627 14.0188 98.4446 14.0188C97.4474 14.0188 96.6481 14.3441 96.0466 14.9948C95.4451 15.6455 95.1444 16.5744 95.1444 17.7816V24.1549H92.1765V17.3348C92.1765 16.2373 91.9311 15.4103 91.4404 14.8537C90.9497 14.2971 90.2454 14.0188 89.3273 14.0188C88.3143 14.0188 87.511 14.3402 86.9174 14.983C86.3238 15.6259 86.027 16.5587 86.027 17.7816V24.1549H83.0592V11.5965H85.8846V13.1957C86.3594 12.6313 86.953 12.2001 87.6653 11.9022C88.3776 11.6043 89.169 11.4554 90.0396 11.4554C90.9893 11.4554 91.8322 11.6318 92.5682 11.9845C93.3043 12.3373 93.886 12.8586 94.3134 13.5485C94.8357 12.89 95.5084 12.3765 96.3315 12.008C97.1546 11.6396 98.0647 11.4554 99.062 11.4554ZM115.089 11.4554C116.323 11.4554 117.427 11.7219 118.401 12.255C119.374 12.7881 120.138 13.5406 120.692 14.5127C121.246 15.4848 121.523 16.6058 121.523 17.8757C121.523 19.1457 121.246 20.2706 120.692 21.2505C120.138 22.2304 119.374 22.9869 118.401 23.52C117.427 24.053 116.323 24.3196 115.089 24.3196C113.379 24.3196 112.026 23.7551 111.028 22.6263V28.7174H108.061V11.5965H110.886V13.2427C111.377 12.6469 111.982 12.2001 112.702 11.9022C113.423 11.6043 114.218 11.4554 115.089 11.4554ZM114.756 21.8032C115.848 21.8032 116.747 21.4426 117.451 20.7214C118.155 20.0001 118.508 19.0516 118.508 17.8757C118.508 16.6998 118.155 15.7513 117.451 15.0301C116.747 14.3089 115.848 13.9483 114.756 13.9483C114.044 13.9483 113.403 14.109 112.833 14.4304C112.263 14.7518 111.812 15.2104 111.48 15.8062C111.147 16.4019 110.981 17.0918 110.981 17.8757C110.981 18.6596 111.147 19.3495 111.48 19.9453C111.812 20.5411 112.263 20.9997 112.833 21.3211C113.403 21.6425 114.044 21.8032 114.756 21.8032ZM131.471 23.4729C131.123 23.7551 130.7 23.9668 130.201 24.1079C129.702 24.249 129.176 24.3196 128.622 24.3196C127.229 24.3196 126.153 23.959 125.393 23.2378C124.633 22.5165 124.253 21.4661 124.253 20.0864V8.82139H127.221V11.6906H130.616V14.0423H127.221V20.0158C127.221 20.6273 127.376 21.0937 127.684 21.4151C127.993 21.7365 128.424 21.8972 128.978 21.8972C129.643 21.8972 130.197 21.7248 130.64 21.3799L131.471 23.4729ZM139.188 24.3196C137.906 24.3196 136.75 24.0452 135.721 23.4964C134.692 22.9477 133.889 22.1834 133.311 21.2035C132.734 20.2236 132.445 19.1143 132.445 17.8757C132.445 16.6371 132.734 15.5318 133.311 14.5597C133.889 13.5876 134.692 12.8272 135.721 12.2785C136.75 11.7297 137.906 11.4554 139.188 11.4554C140.486 11.4554 141.649 11.7297 142.678 12.2785C143.707 12.8272 144.51 13.5876 145.088 14.5597C145.666 15.5318 145.954 16.6371 145.954 17.8757C145.954 19.1143 145.666 20.2236 145.088 21.2035C144.51 22.1834 143.707 22.9477 142.678 23.4964C141.649 24.0452 140.486 24.3196 139.188 24.3196ZM139.188 21.8032C140.28 21.8032 141.182 21.4426 141.894 20.7214C142.607 20.0001 142.963 19.0516 142.963 17.8757C142.963 16.6998 142.607 15.7513 141.894 15.0301C141.182 14.3089 140.28 13.9483 139.188 13.9483C138.096 13.9483 137.197 14.3089 136.493 15.0301C135.788 15.7513 135.436 16.6998 135.436 17.8757C135.436 19.0516 135.788 20.0001 136.493 20.7214C137.197 21.4426 138.096 21.8032 139.188 21.8032ZM167.656 7.45737C169.603 7.45737 171.122 8.01787 172.214 9.13888C173.306 10.2599 173.853 11.8708 173.853 13.9718V24.1549H170.766V14.0894C170.766 12.788 170.422 11.8042 169.733 11.1379C169.045 10.4715 168.146 10.1384 167.038 10.1384C165.804 10.1384 164.818 10.4833 164.082 11.1732C163.346 11.863 162.978 12.9213 162.978 14.3481V24.1549H159.892V14.0894C159.892 12.7724 159.571 11.7846 158.93 11.1261C158.289 10.4676 157.414 10.1384 156.306 10.1384C155.056 10.1384 154.055 10.4872 153.303 11.1849C152.551 11.8826 152.175 12.937 152.175 14.3481V24.1549H149.089V7.69254H152.08V9.85617C152.587 9.08792 153.275 8.49607 154.146 8.08059C155.016 7.6651 156.022 7.45737 157.161 7.45737C158.333 7.45737 159.353 7.67686 160.224 8.11586C161.095 8.55486 161.752 9.17416 162.195 9.97376C162.749 9.17416 163.505 8.55486 164.462 8.11586C165.42 7.67686 166.484 7.45737 167.656 7.45737ZM183.92 21.8267C185.297 21.8267 186.444 21.372 187.362 20.4627L188.929 22.2735C188.375 22.9477 187.663 23.4573 186.792 23.8022C185.922 24.1471 184.941 24.3196 183.848 24.3196C182.455 24.3196 181.229 24.0452 180.168 23.4964C179.108 22.9477 178.289 22.1834 177.711 21.2035C177.133 20.2236 176.844 19.1143 176.844 17.8757C176.844 16.6528 177.125 15.5514 177.687 14.5715C178.249 13.5916 179.025 12.8272 180.014 12.2785C181.003 11.7297 182.123 11.4554 183.373 11.4554C184.561 11.4554 185.641 11.7102 186.614 12.2197C187.588 12.7293 188.36 13.4583 188.929 14.4069C189.499 15.3554 189.784 16.4646 189.784 17.7346L180.073 19.616C180.374 20.3372 180.857 20.886 181.522 21.2623C182.186 21.6386 182.986 21.8267 183.92 21.8267ZM183.373 13.8071C182.281 13.8071 181.399 14.1599 180.726 14.8654C180.098 15.5239 179.763 16.3941 179.722 17.476L179.717 17.7346L186.887 16.3706C186.682 15.6023 186.266 14.983 185.641 14.5127C185.016 14.0423 184.26 13.8071 183.373 13.8071ZM205.051 6.7048V24.1549H202.202V22.5322C201.711 23.128 201.106 23.5748 200.385 23.8727C199.665 24.1706 198.87 24.3196 197.999 24.3196C196.78 24.3196 195.684 24.053 194.711 23.52C193.737 22.9869 192.974 22.2304 192.42 21.2505C191.866 20.2706 191.589 19.1457 191.589 17.8757C191.589 16.6058 191.866 15.4848 192.42 14.5127C192.974 13.5406 193.737 12.7881 194.711 12.255C195.684 11.7219 196.78 11.4554 197.999 11.4554C198.838 11.4554 199.606 11.5965 200.302 11.8787C200.999 12.1609 201.592 12.5842 202.083 13.1487V6.7048H205.051ZM198.355 21.8032C199.068 21.8032 199.709 21.6425 200.279 21.3211C200.848 20.9997 201.299 20.5411 201.632 19.9453C201.964 19.3495 202.13 18.6596 202.13 17.8757C202.13 17.0918 201.964 16.4019 201.632 15.8062C201.299 15.2104 200.848 14.7518 200.279 14.4304C199.709 14.109 199.068 13.9483 198.355 13.9483C197.643 13.9483 197.002 14.109 196.432 14.4304C195.862 14.7518 195.411 15.2104 195.079 15.8062C194.746 16.4019 194.58 17.0918 194.58 17.8757C194.58 18.6596 194.746 19.3495 195.079 19.9453C195.411 20.5411 195.862 20.9997 196.432 21.3211C197.002 21.6425 197.643 21.8032 198.355 21.8032ZM208.945 11.5965H211.913V24.1549H208.945V11.5965ZM210.441 9.52693C209.902 9.52693 209.451 9.35838 209.087 9.02129C208.723 8.68421 208.541 8.26481 208.541 7.7631C208.541 7.26138 208.723 6.84199 209.087 6.5049C209.451 6.16781 209.902 5.99927 210.441 5.99927C210.979 5.99927 211.43 6.15997 211.794 6.48138C212.158 6.80279 212.34 7.20651 212.34 7.69254C212.34 8.20994 212.162 8.64501 211.806 8.99778C211.45 9.35054 210.995 9.52693 210.441 9.52693ZM221.624 24.3196C220.31 24.3196 219.131 24.0452 218.086 23.4964C217.041 22.9477 216.226 22.1834 215.64 21.2035C215.055 20.2236 214.762 19.1143 214.762 17.8757C214.762 16.6371 215.055 15.5318 215.64 14.5597C216.226 13.5876 217.037 12.8272 218.074 12.2785C219.111 11.7297 220.294 11.4554 221.624 11.4554C222.874 11.4554 223.97 11.7062 224.912 12.2079C225.854 12.7097 226.562 13.4309 227.037 14.3716L224.758 15.6886C224.394 15.1085 223.938 14.6734 223.392 14.3833C222.846 14.0933 222.249 13.9483 221.6 13.9483C220.492 13.9483 219.574 14.3049 218.846 15.0183C218.117 15.7317 217.753 16.6841 217.753 17.8757C217.753 19.0673 218.114 20.0197 218.834 20.7331C219.554 21.4465 220.476 21.8032 221.6 21.8032C222.249 21.8032 222.846 21.6581 223.392 21.3681C223.938 21.078 224.394 20.643 224.758 20.0629L227.037 21.3799C226.546 22.3206 225.83 23.0457 224.888 23.5552C223.946 24.0648 222.858 24.3196 221.624 24.3196Z" fill="#003C5B"/>
<path d="M39.0768 14.3303C38.8385 11.9907 37.6197 10.0246 35.7364 8.93863C34.7475 8.36648 33.6115 8.06674 32.4472 8.06674C32.4389 8.06674 32.4306 8.06859 32.4223 8.06859C32.345 4.35911 30.29 1.20557 26.9893 0.318385C26.4197 0.165966 25.8316 0.0881348 25.2407 0.0881348C23.1028 0.0881348 21.089 1.10781 19.5606 2.77747C18.0322 1.10781 16.0184 0.0881348 13.8806 0.0881348C13.2892 0.0881348 12.7015 0.165966 12.1287 0.318385C8.82986 1.20371 6.77487 4.35911 6.69666 8.06813C6.68833 8.06813 6.68001 8.06628 6.67168 8.06628C5.50744 8.06628 4.36958 8.36787 3.38628 8.93678C1.50018 10.0246 0.281344 11.9907 0.0425738 14.3303C-0.148072 16.2024 0.305868 18.2001 1.31786 19.9577C2.40251 21.8447 4.00541 23.2405 5.79434 23.9753C5.45469 25.2039 5.2497 26.4724 5.2497 27.7686C5.2497 34.8054 9.94273 35.3507 11.3818 35.3507C12.8112 35.3507 14.1443 34.9296 15.5552 34.4834C16.8948 34.0591 18.2779 33.6194 19.5611 33.6194C20.8447 33.6194 22.2292 34.0586 23.567 34.4834C24.9778 34.931 26.311 35.3507 27.7403 35.3507C29.8351 35.3507 31.5907 34.4204 32.6819 32.7308C33.4935 31.474 33.8725 29.8974 33.8725 27.7682C33.8725 26.4715 33.667 25.2035 33.3278 23.9748C35.1181 23.2419 36.7192 21.8461 37.8025 19.961C38.8135 18.2001 39.2675 16.2024 39.0768 14.3303ZM21.2066 8.16774C21.9104 5.53631 24.02 3.81568 25.9195 4.32437C27.819 4.8349 28.7861 7.3834 28.0841 10.013C27.3785 12.6426 25.2707 14.365 23.3712 13.8545C21.4699 13.3454 20.5027 10.7987 21.2066 8.16774ZM13.1994 4.32251C15.0971 3.81337 17.2072 5.53445 17.9124 8.16588C18.6162 10.7973 17.6491 13.344 15.7496 13.8526C13.85 14.3632 11.7418 12.6407 11.0366 10.0111C10.331 7.38155 11.2999 4.83351 13.1994 4.32251ZM4.90265 17.8883C3.69862 15.7993 3.94063 13.4 5.45099 12.5295C6.9595 11.6576 9.15701 12.6439 10.361 14.7347C11.5683 16.8255 11.3231 19.2248 9.81455 20.0949C8.30558 20.9658 6.10668 19.9809 4.90265 17.8883ZM19.5588 29.4744C13.9417 29.4744 9.38745 34.3356 9.38745 27.7682C9.38745 21.1993 15.9106 15.8767 19.5588 15.8786C23.2069 15.8804 29.7301 21.1993 29.7301 27.7682C29.7301 34.3361 25.1759 29.4744 19.5588 29.4744ZM34.2144 17.8883C33.0104 19.9809 30.8129 20.9654 29.3025 20.0949C27.794 19.2244 27.5488 16.8237 28.756 14.7347C29.9601 12.6439 32.1576 11.6576 33.6661 12.5295C35.1769 13.4 35.4185 15.7993 34.2144 17.8883Z" fill="#598AB3"/>
<path d="M268.802 8.71302C268.802 8.71302 266.905 4.78254 265.82 3.27935L266.436 2.79881L265.352 0.0881348H262.235C262.235 0.0881348 261.693 0.43313 261.828 0.765805C261.828 0.765805 261.754 2.66328 262.099 3.20541C262.444 3.74755 265.759 9.72336 265.833 14.2699C265.907 18.8165 264.884 22.5498 260.473 25.9382C260.473 25.9382 258.304 27.8356 254.226 27.8356C250.16 27.8356 247.991 25.9382 247.991 25.9382C243.58 22.5498 242.57 18.8165 242.632 14.2699C242.706 9.72336 246.02 3.74755 246.365 3.20541C246.71 2.66328 246.636 0.765805 246.636 0.765805C246.772 0.420809 246.23 0.0881348 246.23 0.0881348H243.112L242.028 2.79881L242.644 3.27935C241.56 4.77022 239.662 8.71302 239.662 8.71302C239.662 8.71302 235.387 19.7036 240.549 27.5153C245.7 35.3146 254.251 34.908 254.251 34.908C254.251 34.908 262.802 35.3146 267.952 27.5153C273.078 19.7036 268.802 8.71302 268.802 8.71302ZM239.983 17.3133C239.65 17.3009 239.391 17.0052 239.404 16.6726L239.527 14.3069C239.539 13.9742 239.835 13.7155 240.167 13.7278L240.907 13.7647C241.239 13.7771 241.498 14.0728 241.486 14.4055L241.363 16.7835C241.35 17.1161 241.055 17.3749 240.722 17.3626L239.983 17.3133ZM243.285 24.8046L242.619 25.1373C242.324 25.2851 241.954 25.1742 241.794 24.8662L240.722 22.747C240.574 22.4512 240.685 22.0816 240.993 21.9214L241.658 21.5887C241.954 21.4409 242.324 21.5518 242.484 21.8598L243.556 23.9791C243.704 24.2871 243.58 24.6567 243.285 24.8046ZM249.433 29.881L249.15 30.571C249.026 30.879 248.669 31.0392 248.349 30.9036L246.143 30.0042C245.835 29.881 245.675 29.5236 245.811 29.2033L246.094 28.5133C246.217 28.2053 246.575 28.0451 246.895 28.1806L249.1 29.0801C249.408 29.2033 249.556 29.5606 249.433 29.881ZM262.284 30.0042L260.079 30.9036C259.771 31.0268 259.413 30.879 259.278 30.571L258.994 29.881C258.871 29.5729 259.019 29.2156 259.327 29.0801L261.533 28.1806C261.841 28.0574 262.198 28.2053 262.333 28.5133L262.617 29.2033C262.752 29.5236 262.605 29.881 262.284 30.0042ZM267.73 22.7593L266.658 24.8785C266.51 25.1742 266.141 25.2975 265.833 25.1496L265.167 24.8169C264.872 24.6691 264.748 24.2994 264.896 23.9914L265.968 21.8721C266.116 21.5764 266.486 21.4532 266.794 21.6011L267.459 21.9337C267.767 22.0939 267.878 22.4636 267.73 22.7593ZM268.469 17.3133L267.73 17.3502C267.397 17.3626 267.102 17.1161 267.089 16.7711L266.966 14.3931C266.954 14.0605 267.2 13.7647 267.545 13.7524L268.285 13.7155C268.617 13.7031 268.913 13.9496 268.925 14.2946L269.049 16.6602C269.061 17.0052 268.802 17.2886 268.469 17.3133Z" fill="#598AB3"/>
</svg>
