<svg width="316" height="35" viewBox="0 0 316 35" fill="none" xmlns="http://www.w3.org/2000/svg">
<path d="M54.596 24.3901C53.3139 24.3901 52.0753 24.2098 50.8803 23.8492C49.6852 23.4886 48.7394 23.0104 48.043 22.4146L49.1114 20.0393C49.792 20.5724 50.627 21.0075 51.6163 21.3446C52.6056 21.6817 53.5988 21.8502 54.596 21.8502C55.8307 21.8502 56.7527 21.6542 57.3621 21.2623C57.9715 20.8703 58.2762 20.3529 58.2762 19.7101C58.2762 19.2397 58.1061 18.8517 57.7657 18.546C57.4254 18.2402 56.9941 18.0011 56.4717 17.8287C56.0074 17.6754 55.3931 17.5035 54.6286 17.313L54.3349 17.2407C53.0686 16.9428 52.0437 16.645 51.2602 16.3471C50.4766 16.0492 49.8039 15.5827 49.242 14.9478C48.6801 14.3128 48.3991 13.4544 48.3991 12.3726C48.3991 11.4632 48.6484 10.6362 49.147 9.89145C49.6456 9.14672 50.3975 8.55486 51.4026 8.11586C52.4077 7.67686 53.6384 7.45737 55.0947 7.45737C56.1077 7.45737 57.1049 7.58279 58.0863 7.83365C59.0677 8.08451 59.9145 8.44511 60.6268 8.91546L59.6533 11.2908C58.9252 10.8674 58.1654 10.546 57.374 10.3265C56.5825 10.107 55.8149 9.99728 55.0709 9.99728C53.8521 9.99728 52.9459 10.2011 52.3523 10.6087C51.7588 11.0164 51.462 11.5573 51.462 12.2315C51.462 12.7018 51.6321 13.0859 51.9724 13.3838C52.3128 13.6817 52.7441 13.9169 53.2664 14.0894C53.7888 14.2618 54.5011 14.4578 55.4033 14.6773C56.638 14.9595 57.651 15.2535 58.4424 15.5592C59.2339 15.865 59.9105 16.3314 60.4725 16.9585C61.0344 17.5857 61.3153 18.4323 61.3153 19.4984C61.3153 20.4078 61.066 21.2309 60.5674 21.9678C60.0688 22.7047 59.313 23.2926 58.3 23.7316C57.2869 24.1706 56.0523 24.3901 54.596 24.3901ZM76.3684 11.5965V22.25C76.3684 26.6714 74.1762 28.882 69.7916 28.882C68.6361 28.882 67.5321 28.7291 66.4794 28.4234C65.4268 28.1177 64.5602 27.6748 63.8796 27.0947L65.2092 24.884C65.7474 25.3387 66.4043 25.6993 67.1799 25.9658C67.9555 26.2323 68.7706 26.3656 69.6254 26.3656C70.9234 26.3656 71.877 26.056 72.4864 25.4367C73.0958 24.8174 73.4005 23.8649 73.4005 22.5793V21.9913C72.9257 22.5087 72.3479 22.9046 71.6673 23.179C70.9867 23.4533 70.2506 23.5905 69.4592 23.5905C67.7655 23.5905 66.432 23.128 65.4585 22.203C64.485 21.2779 63.9983 19.8904 63.9983 18.0403V11.5965H66.9662V17.6641C66.9662 18.7772 67.2234 19.6121 67.7378 20.1687C68.2523 20.7253 68.9843 21.0036 69.9341 21.0036C70.9946 21.0036 71.8375 20.6822 72.4627 20.0393C73.0879 19.3965 73.4005 18.4637 73.4005 17.2407V11.5965H76.3684ZM96.2651 11.4554C97.8638 11.4554 99.1301 11.914 100.064 12.8312C100.998 13.7484 101.465 15.1241 101.465 16.9585V24.1549H98.4969V17.3348C98.4969 16.2373 98.2516 15.4103 97.7609 14.8537C97.2702 14.2971 96.5658 14.0188 95.6478 14.0188C94.6506 14.0188 93.8512 14.3441 93.2497 14.9948C92.6482 15.6455 92.3475 16.5744 92.3475 17.7816V24.1549H89.3796V17.3348C89.3796 16.2373 89.1343 15.4103 88.6436 14.8537C88.1529 14.2971 87.4485 14.0188 86.5304 14.0188C85.5174 14.0188 84.7141 14.3402 84.1205 14.983C83.5269 15.6259 83.2302 16.5587 83.2302 17.7816V24.1549H80.2623V11.5965H83.0877V13.1957C83.5626 12.6313 84.1561 12.2001 84.8684 11.9022C85.5807 11.6043 86.3721 11.4554 87.2427 11.4554C88.1925 11.4554 89.0353 11.6318 89.7714 11.9845C90.5074 12.3373 91.0891 12.8586 91.5165 13.5485C92.0388 12.89 92.7115 12.3765 93.5346 12.008C94.3577 11.6396 95.2679 11.4554 96.2651 11.4554ZM112.292 11.4554C113.526 11.4554 114.63 11.7219 115.604 12.255C116.577 12.7881 117.341 13.5406 117.895 14.5127C118.449 15.4848 118.726 16.6058 118.726 17.8757C118.726 19.1457 118.449 20.2706 117.895 21.2505C117.341 22.2304 116.577 22.9869 115.604 23.52C114.63 24.053 113.526 24.3196 112.292 24.3196C110.582 24.3196 109.229 23.7551 108.232 22.6263V28.7174H105.264V11.5965H108.089V13.2427C108.58 12.6469 109.185 12.2001 109.905 11.9022C110.626 11.6043 111.421 11.4554 112.292 11.4554ZM111.959 21.8032C113.051 21.8032 113.95 21.4426 114.654 20.7214C115.358 20.0001 115.711 19.0516 115.711 17.8757C115.711 16.6998 115.358 15.7513 114.654 15.0301C113.95 14.3089 113.051 13.9483 111.959 13.9483C111.247 13.9483 110.606 14.109 110.036 14.4304C109.466 14.7518 109.015 15.2104 108.683 15.8062C108.35 16.4019 108.184 17.0918 108.184 17.8757C108.184 18.6596 108.35 19.3495 108.683 19.9453C109.015 20.5411 109.466 20.9996 110.036 21.3211C110.606 21.6425 111.247 21.8032 111.959 21.8032ZM128.674 23.4729C128.326 23.7551 127.903 23.9668 127.404 24.1079C126.905 24.249 126.379 24.3196 125.825 24.3196C124.432 24.3196 123.356 23.959 122.596 23.2378C121.836 22.5165 121.456 21.4661 121.456 20.0864V8.82139H124.424V11.6906H127.82V14.0423H124.424V20.0158C124.424 20.6273 124.579 21.0937 124.887 21.4151C125.196 21.7365 125.627 21.8972 126.181 21.8972C126.846 21.8972 127.4 21.7248 127.843 21.3799L128.674 23.4729ZM136.391 24.3196C135.109 24.3196 133.953 24.0452 132.924 23.4964C131.895 22.9477 131.092 22.1834 130.514 21.2035C129.937 20.2236 129.648 19.1143 129.648 17.8757C129.648 16.6371 129.937 15.5318 130.514 14.5597C131.092 13.5876 131.895 12.8272 132.924 12.2785C133.953 11.7297 135.109 11.4554 136.391 11.4554C137.689 11.4554 138.852 11.7297 139.881 12.2785C140.91 12.8272 141.713 13.5876 142.291 14.5597C142.869 15.5318 143.158 16.6371 143.158 17.8757C143.158 19.1143 142.869 20.2236 142.291 21.2035C141.713 22.1834 140.91 22.9477 139.881 23.4964C138.852 24.0452 137.689 24.3196 136.391 24.3196ZM136.391 21.8032C137.483 21.8032 138.385 21.4426 139.098 20.7214C139.81 20.0001 140.166 19.0516 140.166 17.8757C140.166 16.6998 139.81 15.7513 139.098 15.0301C138.385 14.3089 137.483 13.9483 136.391 13.9483C135.299 13.9483 134.4 14.3089 133.696 15.0301C132.992 15.7513 132.639 16.6998 132.639 17.8757C132.639 19.0516 132.992 20.0001 133.696 20.7214C134.4 21.4426 135.299 21.8032 136.391 21.8032ZM164.859 7.45737C166.806 7.45737 168.325 8.01787 169.417 9.13888C170.51 10.2599 171.056 11.8708 171.056 13.9718V24.1549H167.969V14.0894C167.969 12.788 167.625 11.8042 166.936 11.1379C166.248 10.4715 165.349 10.1384 164.241 10.1384C163.007 10.1384 162.021 10.4833 161.285 11.1732C160.549 11.863 160.181 12.9213 160.181 14.3481V24.1549H157.095V14.0894C157.095 12.7724 156.774 11.7846 156.133 11.1261C155.492 10.4676 154.618 10.1384 153.51 10.1384C152.259 10.1384 151.258 10.4872 150.506 11.1849C149.754 11.8826 149.378 12.937 149.378 14.3481V24.1549H146.292V7.69254H149.283V9.85617C149.79 9.08792 150.478 8.49607 151.349 8.08059C152.22 7.6651 153.225 7.45737 154.364 7.45737C155.536 7.45737 156.557 7.67686 157.427 8.11586C158.298 8.55486 158.955 9.17416 159.398 9.97376C159.952 9.17416 160.708 8.55486 161.665 8.11586C162.623 7.67686 163.687 7.45737 164.859 7.45737ZM181.123 21.8267C182.5 21.8267 183.647 21.372 184.565 20.4627L186.132 22.2735C185.578 22.9477 184.866 23.4573 183.996 23.8022C183.125 24.1471 182.144 24.3196 181.051 24.3196C179.659 24.3196 178.432 24.0452 177.371 23.4964C176.311 22.9477 175.492 22.1834 174.914 21.2035C174.336 20.2236 174.047 19.1143 174.047 17.8757C174.047 16.6528 174.328 15.5514 174.89 14.5715C175.452 13.5916 176.228 12.8272 177.217 12.2785C178.206 11.7297 179.326 11.4554 180.577 11.4554C181.764 11.4554 182.844 11.7102 183.818 12.2197C184.791 12.7293 185.563 13.4583 186.132 14.4069C186.702 15.3554 186.987 16.4646 186.987 17.7346L177.276 19.616C177.577 20.3372 178.06 20.886 178.725 21.2623C179.389 21.6386 180.189 21.8267 181.123 21.8267ZM180.577 13.8071C179.484 13.8071 178.602 14.1599 177.929 14.8654C177.301 15.5239 176.967 16.3941 176.925 17.476L176.92 17.7346L184.091 16.3706C183.885 15.6023 183.469 14.983 182.844 14.5127C182.219 14.0423 181.463 13.8071 180.577 13.8071ZM202.254 6.7048V24.1549H199.405V22.5322C198.914 23.128 198.309 23.5748 197.589 23.8727C196.868 24.1706 196.073 24.3196 195.202 24.3196C193.984 24.3196 192.887 24.053 191.914 23.52C190.94 22.9869 190.177 22.2304 189.623 21.2505C189.069 20.2706 188.792 19.1457 188.792 17.8757C188.792 16.6058 189.069 15.4848 189.623 14.5127C190.177 13.5406 190.94 12.7881 191.914 12.255C192.887 11.7219 193.984 11.4554 195.202 11.4554C196.041 11.4554 196.809 11.5965 197.505 11.8787C198.202 12.1609 198.795 12.5842 199.286 13.1487V6.7048H202.254ZM195.558 21.8032C196.271 21.8032 196.912 21.6425 197.482 21.3211C198.052 20.9996 198.503 20.5411 198.835 19.9453C199.167 19.3495 199.334 18.6596 199.334 17.8757C199.334 17.0918 199.167 16.4019 198.835 15.8062C198.503 15.2104 198.052 14.7518 197.482 14.4304C196.912 14.109 196.271 13.9483 195.558 13.9483C194.846 13.9483 194.205 14.109 193.635 14.4304C193.065 14.7518 192.614 15.2104 192.282 15.8062C191.95 16.4019 191.783 17.0918 191.783 17.8757C191.783 18.6596 191.95 19.3495 192.282 19.9453C192.614 20.5411 193.065 20.9996 193.635 21.3211C194.205 21.6425 194.846 21.8032 195.558 21.8032ZM206.148 11.5965H209.116V24.1549H206.148V11.5965ZM207.644 9.52693C207.106 9.52693 206.654 9.35838 206.29 9.02129C205.926 8.68421 205.744 8.26481 205.744 7.7631C205.744 7.26138 205.926 6.84199 206.29 6.5049C206.654 6.16781 207.106 5.99927 207.644 5.99927C208.182 5.99927 208.633 6.15997 208.997 6.48138C209.361 6.80279 209.543 7.20651 209.543 7.69254C209.543 8.20994 209.365 8.64501 209.009 8.99778C208.653 9.35054 208.198 9.52693 207.644 9.52693ZM218.827 24.3196C217.513 24.3196 216.334 24.0452 215.289 23.4964C214.244 22.9477 213.429 22.1834 212.843 21.2035C212.258 20.2236 211.965 19.1143 211.965 17.8757C211.965 16.6371 212.258 15.5318 212.843 14.5597C213.429 13.5876 214.24 12.8272 215.277 12.2785C216.314 11.7297 217.497 11.4554 218.827 11.4554C220.077 11.4554 221.173 11.7062 222.115 12.2079C223.057 12.7097 223.765 13.4309 224.24 14.3716L221.961 15.6886C221.597 15.1085 221.142 14.6734 220.596 14.3833C220.049 14.0933 219.452 13.9483 218.803 13.9483C217.695 13.9483 216.777 14.3049 216.049 15.0183C215.321 15.7317 214.957 16.6841 214.957 17.8757C214.957 19.0673 215.317 20.0197 216.037 20.7331C216.757 21.4465 217.679 21.8032 218.803 21.8032C219.452 21.8032 220.049 21.6581 220.596 21.3681C221.142 21.078 221.597 20.643 221.961 20.0629L224.24 21.3799C223.749 22.3206 223.033 23.0457 222.091 23.5552C221.15 24.0648 220.061 24.3196 218.827 24.3196Z" fill="#003C5B"/>
<path fill-rule="evenodd" clip-rule="evenodd" d="M281.26 11.686H284.158V24.0676H281.26V11.686ZM282.72 9.64557C282.195 9.64557 281.754 9.48326 281.399 9.15865C281.043 8.81858 280.866 8.40123 280.866 7.90658C280.866 7.41193 281.043 7.00231 281.399 6.67769C281.754 6.33763 282.195 6.16759 282.72 6.16759C283.246 6.16759 283.687 6.3299 284.042 6.65451C284.398 6.96366 284.575 7.35783 284.575 7.83702C284.575 8.34712 284.398 8.77994 284.042 9.13546C283.702 9.47553 283.262 9.64557 282.72 9.64557ZM246.613 21.5403V24.0676H234.44V7.83702H246.289V10.3644H237.455V14.5843H245.292V17.0653H237.455V21.5403H246.613ZM261.685 11.686V28.5658H258.787V22.5605C257.813 23.6734 256.492 24.2299 254.822 24.2299C253.617 24.2299 252.534 23.9671 251.576 23.4415C250.633 22.916 249.891 22.174 249.35 21.2156C248.825 20.2573 248.562 19.1443 248.562 17.8768C248.562 16.6247 248.832 15.5195 249.373 14.5611C249.914 13.6027 250.656 12.8608 251.599 12.3352C252.542 11.8096 253.617 11.5469 254.822 11.5469C255.672 11.5469 256.445 11.6937 257.141 11.9874C257.852 12.2811 258.447 12.7216 258.926 13.309V11.686H261.685ZM255.147 21.7489C256.213 21.7489 257.095 21.3934 257.79 20.6824C258.486 19.9713 258.833 19.0361 258.833 17.8768C258.833 16.7175 258.486 15.7823 257.79 15.0712C257.095 14.3602 256.213 14.0046 255.147 14.0046C254.08 14.0046 253.199 14.3602 252.504 15.0712C251.823 15.7823 251.483 16.7175 251.483 17.8768C251.483 19.0361 251.823 19.9713 252.504 20.6824C253.199 21.3934 254.08 21.7489 255.147 21.7489ZM274.706 24.0676H277.465V11.686H274.567V17.9463C274.567 19.152 274.257 20.0795 273.639 20.7287C273.036 21.3625 272.217 21.6794 271.181 21.6794C270.254 21.6794 269.535 21.4089 269.025 20.8678C268.53 20.3114 268.283 19.4767 268.283 18.3637V11.686H265.385V18.7579C265.385 20.5664 265.856 21.9344 266.799 22.8619C267.758 23.7739 269.064 24.2299 270.718 24.2299C271.521 24.2299 272.271 24.083 272.967 23.7893C273.662 23.4802 274.242 23.0474 274.706 22.4909V24.0676ZM298.744 12.9149C297.801 12.0029 296.549 11.5469 294.988 11.5469C294.076 11.5469 293.256 11.6937 292.53 11.9874C291.803 12.2811 291.2 12.7139 290.721 13.2859V11.686H287.962V24.0676H290.86V17.8072C290.86 16.6015 291.17 15.6818 291.788 15.048C292.406 14.3988 293.249 14.0742 294.315 14.0742C295.258 14.0742 295.985 14.3524 296.495 14.9089C297.005 15.4499 297.26 16.2615 297.26 17.3435V24.0676H300.158V16.9725C300.158 15.1794 299.687 13.8269 298.744 12.9149ZM313.249 20.4436C312.344 21.3409 311.211 21.7896 309.852 21.7896C308.931 21.7896 308.142 21.6039 307.486 21.2326C306.83 20.8613 306.354 20.3199 306.057 19.6082L315.639 17.7517C315.639 16.4985 315.358 15.404 314.796 14.468C314.233 13.532 313.472 12.8126 312.511 12.3098C311.551 11.807 310.485 11.5556 309.313 11.5556C308.079 11.5556 306.974 11.8264 305.998 12.3678C305.022 12.9093 304.257 13.6635 303.702 14.6304C303.148 15.5974 302.871 16.6842 302.871 17.8909C302.871 19.1131 303.156 20.2077 303.726 21.1746C304.296 22.1415 305.104 22.8957 306.151 23.4372C307.197 23.9787 308.407 24.2494 309.782 24.2494C310.86 24.2494 311.828 24.0793 312.687 23.7389C313.546 23.3985 314.249 22.8957 314.796 22.2305L313.249 20.4436ZM306.701 14.9205C307.365 14.2243 308.236 13.8762 309.313 13.8762C310.188 13.8762 310.934 14.1083 311.551 14.5724C312.168 15.0366 312.578 15.6477 312.781 16.4057L305.705 17.7517L305.71 17.4965C305.751 16.429 306.082 15.5703 306.701 14.9205Z" fill="#598AB3"/>
<path d="M31.2728 8.71302C31.2728 8.71302 29.3753 4.78254 28.2911 3.27935L28.9071 2.79881L27.8229 0.0881348H24.7056C24.7056 0.0881348 24.1635 0.43313 24.299 0.765805C24.299 0.765805 24.2251 2.66328 24.57 3.20541C24.915 3.74755 28.2295 9.72336 28.3034 14.2699C28.3773 18.8165 27.3547 22.5498 22.9436 25.9382C22.9436 25.9382 20.7751 27.8356 16.6968 27.8356C12.6307 27.8356 10.4622 25.9382 10.4622 25.9382C6.05118 22.5498 5.04083 18.8165 5.10244 14.2699C5.17637 9.72336 8.4908 3.74755 8.83579 3.20541C9.18079 2.66328 9.10685 0.765805 9.10685 0.765805C9.24239 0.420809 8.70025 0.0881348 8.70025 0.0881348H5.58297L4.4987 2.79881L5.11477 3.27935C4.03049 4.77022 2.13302 8.71302 2.13302 8.71302C2.13302 8.71302 -2.14246 19.7036 3.02015 27.5153C8.17044 35.3146 16.7214 34.908 16.7214 34.908C16.7214 34.908 25.2724 35.3146 30.4226 27.5153C35.5483 19.7036 31.2728 8.71302 31.2728 8.71302ZM2.45337 17.3133C2.12069 17.3009 1.86195 17.0052 1.87427 16.6726L1.99749 14.3069C2.00981 13.9742 2.30551 13.7155 2.63819 13.7278L3.37746 13.7647C3.71014 13.7771 3.96889 14.0728 3.95656 14.4055L3.83335 16.7835C3.82103 17.1161 3.52532 17.3749 3.19264 17.3626L2.45337 17.3133ZM5.75547 24.8046L5.09012 25.1373C4.79441 25.2851 4.42477 25.1742 4.2646 24.8662L3.19264 22.747C3.04479 22.4512 3.15568 22.0816 3.46371 21.9214L4.12907 21.5887C4.42478 21.4409 4.79442 21.5518 4.95459 21.8598L6.02654 23.9791C6.17439 24.2871 6.05118 24.6567 5.75547 24.8046ZM11.9038 29.881L11.6204 30.571C11.4972 30.879 11.1399 31.0392 10.8195 30.9036L8.614 30.0042C8.30597 29.881 8.1458 29.5236 8.28133 29.2033L8.56472 28.5133C8.68793 28.2053 9.04525 28.0451 9.3656 28.1806L11.5711 29.0801C11.8791 29.2033 12.027 29.5606 11.9038 29.881ZM24.7549 30.0042L22.5494 30.9036C22.2413 31.0268 21.884 30.879 21.7485 30.571L21.4651 29.881C21.3419 29.5729 21.4897 29.2156 21.7978 29.0801L24.0033 28.1806C24.3113 28.0574 24.6686 28.2053 24.8042 28.5133L25.0875 29.2033C25.2231 29.5236 25.0752 29.881 24.7549 30.0042ZM30.2009 22.7593L29.1289 24.8785C28.9811 25.1742 28.6114 25.2975 28.3034 25.1496L27.638 24.8169C27.3423 24.6691 27.2191 24.2994 27.367 23.9914L28.4389 21.8721C28.5868 21.5764 28.9564 21.4532 29.2645 21.6011L29.9298 21.9337C30.2378 22.0939 30.3487 22.4636 30.2009 22.7593ZM30.9401 17.3133L30.2009 17.3502C29.8682 17.3626 29.5725 17.1161 29.5602 16.7711L29.4369 14.3931C29.4246 14.0605 29.6711 13.7647 30.016 13.7524L30.7553 13.7155C31.088 13.7031 31.3837 13.9496 31.396 14.2946L31.5192 16.6602C31.5316 17.0052 31.2728 17.2886 30.9401 17.3133Z" fill="#598AB3"/>
</svg>
