<svg width="58" height="58" viewBox="0 0 58 58" fill="none" xmlns="http://www.w3.org/2000/svg">
<path opacity="0.4" d="M53.0929 15.491V31.1993H4.83203V15.491C4.83203 9.6185 9.61703 4.8335 15.4895 4.8335H42.4354C48.3079 4.8335 53.0929 9.6185 53.0929 15.491Z" fill="#598AB3"/>
<path d="M4.83203 31.2231V31.7065C4.83203 37.6031 9.61703 42.364 15.4895 42.364H24.7695C26.0987 42.364 27.1862 43.4515 27.1862 44.7806V47.1248C27.1862 48.454 26.0987 49.5415 24.7695 49.5415H18.9212C17.9304 49.5415 17.1087 50.3631 17.1087 51.354C17.1087 52.3448 17.9062 53.1665 18.9212 53.1665H39.1004C40.0912 53.1665 40.9129 52.3448 40.9129 51.354C40.9129 50.3631 40.0912 49.5415 39.1004 49.5415H33.252C31.9229 49.5415 30.8354 48.454 30.8354 47.1248V44.7806C30.8354 43.4515 31.9229 42.364 33.252 42.364H42.4595C48.3562 42.364 53.117 37.579 53.117 31.7065V31.2231H4.83203Z" fill="#598AB3"/>
</svg>
