<svg width="126" height="11" viewBox="0 0 126 11" fill="none" xmlns="http://www.w3.org/2000/svg">
<path d="M9 5.788C9 3.28 7.104 1.504 4.716 1.504C2.352 1.504 0.42 3.28 0.42 5.788C0.42 8.308 2.352 10.084 4.716 10.084C7.092 10.084 9 8.308 9 5.788ZM2.148 5.788C2.148 4.084 3.192 3.016 4.716 3.016C6.228 3.016 7.272 4.084 7.272 5.788C7.272 7.492 6.228 8.584 4.716 8.584C3.192 8.584 2.148 7.492 2.148 5.788ZM16.7659 3.352H15.0739L15.0739 7.012C15.0739 8.08 14.4979 8.656 13.5859 8.656C12.6979 8.656 12.1099 8.08 12.1099 7.012L12.1099 3.352L10.4299 3.352L10.4299 7.252C10.4299 9.076 11.5459 10.084 13.0939 10.084C13.9219 10.084 14.6539 9.724 15.0739 9.16V10H16.7659V3.352ZM20.3435 6.688C20.3435 5.404 20.9435 5.02 21.9395 5.02H22.3835V3.256C21.4595 3.256 20.7635 3.7 20.3435 4.384V3.352H18.6635V10H20.3435V6.688ZM32.7104 7.576C32.7104 4.624 28.4144 5.56 28.4144 3.88C28.4144 3.196 28.9064 2.872 29.5664 2.896C30.2864 2.908 30.7304 3.34 30.7664 3.892L32.6144 3.892C32.5064 2.38 31.3304 1.504 29.6144 1.504C27.8864 1.504 26.6624 2.416 26.6624 3.928C26.6504 6.964 30.9704 5.872 30.9704 7.684C30.9704 8.284 30.5024 8.704 29.7104 8.704C28.9304 8.704 28.4864 8.26 28.4384 7.588H26.6384C26.6624 9.172 28.0064 10.084 29.7464 10.084C31.6544 10.084 32.7104 8.896 32.7104 7.576ZM40.8269 6.676C40.8269 4.576 39.3269 3.244 37.4069 3.244C35.4869 3.244 33.9869 4.576 33.9869 6.676C33.9869 8.764 35.4389 10.108 37.3589 10.108C39.2909 10.108 40.8269 8.764 40.8269 6.676ZM35.6909 6.676C35.6909 5.344 36.4949 4.708 37.3829 4.708C38.2709 4.708 39.0989 5.344 39.0989 6.676C39.0989 7.996 38.2469 8.644 37.3589 8.644C36.4589 8.644 35.6909 7.996 35.6909 6.676ZM41.8672 6.676C41.8672 8.764 43.2352 10.108 45.1552 10.108C46.8112 10.108 47.9272 9.172 48.2872 7.756H46.4752C46.2712 8.356 45.8392 8.668 45.1432 8.668C44.2072 8.668 43.5832 7.972 43.5832 6.676C43.5832 5.38 44.2072 4.672 45.1432 4.672C45.8392 4.672 46.2832 5.032 46.4752 5.596H48.2872C47.9272 4.108 46.8112 3.244 45.1552 3.244C43.2352 3.244 41.8672 4.588 41.8672 6.676ZM49.758 10L51.438 10V3.352H49.758V10ZM50.61 2.56C51.198 2.56 51.642 2.128 51.642 1.576C51.642 1.024 51.198 0.592 50.61 0.592C50.01 0.592 49.578 1.024 49.578 1.576C49.578 2.128 50.01 2.56 50.61 2.56ZM52.9058 6.652C52.9058 8.728 54.2498 10.108 55.9298 10.108C56.9858 10.108 57.7418 9.604 58.1378 9.028V10H59.8298V3.352H58.1378V4.3C57.7418 3.748 57.0098 3.244 55.9418 3.244C54.2498 3.244 52.9058 4.576 52.9058 6.652ZM58.1378 6.676C58.1378 7.936 57.2978 8.632 56.3738 8.632C55.4738 8.632 54.6218 7.912 54.6218 6.652C54.6218 5.392 55.4738 4.72 56.3738 4.72C57.2978 4.72 58.1378 5.416 58.1378 6.676ZM61.7107 10H63.3907V1.12H61.7107V10ZM73.8739 1.612V7.372L70.0699 1.612L68.3899 1.612V10H70.0699V4.252L73.8739 10H75.5539V1.612H73.8739ZM80.3101 4.624C81.1741 4.624 81.8701 5.176 81.8941 6.052L78.7381 6.052C78.8701 5.14 79.5061 4.624 80.3101 4.624ZM83.4661 7.912H81.6541C81.4381 8.356 81.0421 8.716 80.3221 8.716C79.4821 8.716 78.8101 8.164 78.7261 7.18L83.5861 7.18C83.6221 6.964 83.6341 6.748 83.6341 6.532C83.6341 4.552 82.2781 3.244 80.3581 3.244C78.3901 3.244 77.0221 4.576 77.0221 6.676C77.0221 8.764 78.4261 10.108 80.3581 10.108C82.0021 10.108 83.1061 9.136 83.4661 7.912ZM85.3643 7.936C85.3643 9.46 86.2163 10 87.4883 10H88.5443V8.584H87.7643C87.2363 8.584 87.0563 8.392 87.0563 7.948V4.732H88.5443V3.352H87.0563V1.708H85.3643V3.352H84.5723V4.732H85.3643V7.936ZM91.2047 10H93.0287L94.2407 5.356L95.4527 10H97.2647L99.2087 3.352L97.6007 3.352L96.4247 8.404L95.1767 3.352H93.4007L92.1287 8.416L90.9527 3.352L89.2487 3.352L91.2047 10ZM106.778 6.676C106.778 4.576 105.278 3.244 103.358 3.244C101.438 3.244 99.9377 4.576 99.9377 6.676C99.9377 8.764 101.39 10.108 103.31 10.108C105.242 10.108 106.778 8.764 106.778 6.676ZM101.642 6.676C101.642 5.344 102.446 4.708 103.334 4.708C104.222 4.708 105.05 5.344 105.05 6.676C105.05 7.996 104.198 8.644 103.31 8.644C102.41 8.644 101.642 7.996 101.642 6.676ZM109.93 6.688C109.93 5.404 110.53 5.02 111.526 5.02H111.97V3.256C111.046 3.256 110.35 3.7 109.93 4.384V3.352H108.25V10L109.93 10V6.688ZM113.342 10H115.022V7.168L117.278 10H119.462L116.51 6.688L119.438 3.352H117.254L115.022 6.172V1.12H113.342V10ZM125.749 8.104C125.701 5.668 122.017 6.424 122.017 5.212C122.017 4.828 122.341 4.576 122.965 4.576C123.625 4.576 124.033 4.924 124.081 5.44H125.689C125.593 4.12 124.621 3.244 123.013 3.244C121.369 3.244 120.385 4.132 120.385 5.236C120.385 7.672 124.141 6.916 124.141 8.104C124.141 8.488 123.781 8.788 123.121 8.788C122.449 8.788 121.981 8.404 121.921 7.9H120.229C120.301 9.136 121.465 10.108 123.133 10.108C124.753 10.108 125.749 9.244 125.749 8.104Z" fill="#598AB3"/>
</svg>
