<svg width="11" height="126" viewBox="0 0 11 126" fill="none" xmlns="http://www.w3.org/2000/svg">
<path d="M5.788 117C3.28 117 1.504 118.896 1.504 121.284C1.504 123.648 3.28 125.58 5.788 125.58C8.308 125.58 10.084 123.648 10.084 121.284C10.084 118.908 8.308 117 5.788 117ZM5.788 123.852C4.084 123.852 3.016 122.808 3.016 121.284C3.016 119.772 4.084 118.728 5.788 118.728C7.492 118.728 8.584 119.772 8.584 121.284C8.584 122.808 7.492 123.852 5.788 123.852ZM3.352 109.234V110.926H7.012C8.08 110.926 8.656 111.502 8.656 112.414C8.656 113.302 8.08 113.89 7.012 113.89H3.352V115.57H7.252C9.076 115.57 10.084 114.454 10.084 112.906C10.084 112.078 9.724 111.346 9.16 110.926H10V109.234H3.352ZM6.688 105.657C5.404 105.657 5.02 105.057 5.02 104.061V103.617H3.256C3.256 104.541 3.7 105.237 4.384 105.657H3.352V107.337H10V105.657H6.688ZM7.576 93.2896C4.624 93.2896 5.56 97.5856 3.88 97.5856C3.196 97.5856 2.872 97.0936 2.896 96.4336C2.908 95.7136 3.34 95.2696 3.892 95.2336V93.3856C2.38 93.4936 1.504 94.6696 1.504 96.3856C1.504 98.1136 2.416 99.3376 3.928 99.3376C6.964 99.3496 5.872 95.0296 7.684 95.0296C8.284 95.0296 8.704 95.4976 8.704 96.2896C8.704 97.0696 8.26 97.5136 7.588 97.5616V99.3616C9.172 99.3376 10.084 97.9936 10.084 96.2536C10.084 94.3456 8.896 93.2896 7.576 93.2896ZM6.676 85.1731C4.576 85.1731 3.244 86.6731 3.244 88.5931C3.244 90.5131 4.576 92.0131 6.676 92.0131C8.764 92.0131 10.108 90.5611 10.108 88.6411C10.108 86.7091 8.764 85.1731 6.676 85.1731ZM6.676 90.3091C5.344 90.3091 4.708 89.5051 4.708 88.6171C4.708 87.7291 5.344 86.9011 6.676 86.9011C7.996 86.9011 8.644 87.7531 8.644 88.6411C8.644 89.5411 7.996 90.3091 6.676 90.3091ZM6.676 84.1328C8.764 84.1328 10.108 82.7648 10.108 80.8448C10.108 79.1888 9.172 78.0728 7.756 77.7128V79.5248C8.356 79.7288 8.668 80.1608 8.668 80.8568C8.668 81.7928 7.972 82.4168 6.676 82.4168C5.38 82.4168 4.672 81.7928 4.672 80.8568C4.672 80.1608 5.032 79.7168 5.596 79.5248V77.7128C4.108 78.0728 3.244 79.1888 3.244 80.8448C3.244 82.7648 4.588 84.1328 6.676 84.1328ZM10 76.242V74.562H3.352L3.352 76.242H10ZM2.56 75.39C2.56 74.802 2.128 74.358 1.576 74.358C1.024 74.358 0.592 74.802 0.592 75.39C0.592 75.99 1.024 76.422 1.576 76.422C2.128 76.422 2.56 75.99 2.56 75.39ZM6.652 73.0942C8.728 73.0942 10.108 71.7502 10.108 70.0702C10.108 69.0142 9.604 68.2582 9.028 67.8622H10V66.1702H3.352V67.8622H4.3C3.748 68.2582 3.244 68.9902 3.244 70.0582C3.244 71.7502 4.576 73.0942 6.652 73.0942ZM6.676 67.8622C7.936 67.8622 8.632 68.7022 8.632 69.6262C8.632 70.5262 7.912 71.3782 6.652 71.3782C5.392 71.3782 4.72 70.5262 4.72 69.6262C4.72 68.7022 5.416 67.8622 6.676 67.8622ZM10 64.2893V62.6093H1.12V64.2893H10ZM1.612 52.1261H7.372L1.612 55.9301V57.6101H10V55.9301H4.252L10 52.1261V50.4461H1.612V52.1261ZM4.624 45.6899C4.624 44.8259 5.176 44.1299 6.052 44.1059V47.2619C5.14 47.1299 4.624 46.4939 4.624 45.6899ZM7.912 42.5339V44.3459C8.356 44.5619 8.716 44.9579 8.716 45.6779C8.716 46.5179 8.164 47.1899 7.18 47.2739V42.4139C6.964 42.3779 6.748 42.3659 6.532 42.3659C4.552 42.3659 3.244 43.7219 3.244 45.6419C3.244 47.6099 4.576 48.9779 6.676 48.9779C8.764 48.9779 10.108 47.5739 10.108 45.6419C10.108 43.9979 9.136 42.8939 7.912 42.5339ZM7.936 40.6357C9.46 40.6357 10 39.7837 10 38.5117V37.4557H8.584V38.2357C8.584 38.7637 8.392 38.9437 7.948 38.9437H4.732V37.4557H3.352V38.9437H1.708V40.6357H3.352V41.4277H4.732V40.6357H7.936ZM10 34.7953V32.9713L5.356 31.7593L10 30.5473V28.7353L3.352 26.7913V28.3993L8.404 29.5753L3.352 30.8233L3.352 32.5993L8.416 33.8713L3.352 35.0473V36.7513L10 34.7953ZM6.676 19.2223C4.576 19.2223 3.244 20.7223 3.244 22.6423C3.244 24.5623 4.576 26.0623 6.676 26.0623C8.764 26.0623 10.108 24.6103 10.108 22.6903C10.108 20.7583 8.764 19.2223 6.676 19.2223ZM6.676 24.3583C5.344 24.3583 4.708 23.5543 4.708 22.6663C4.708 21.7783 5.344 20.9503 6.676 20.9503C7.996 20.9503 8.644 21.8023 8.644 22.6903C8.644 23.5903 7.996 24.3583 6.676 24.3583ZM6.688 16.07C5.404 16.07 5.02 15.47 5.02 14.474V14.03H3.256C3.256 14.954 3.7 15.65 4.384 16.07H3.352L3.352 17.75H10V16.07H6.688ZM10 12.6584V10.9784H7.168L10 8.7224V6.5384L6.688 9.4904L3.352 6.5624V8.7464L6.172 10.9784H1.12V12.6584H10ZM8.104 0.250594C5.668 0.298594 6.424 3.98259 5.212 3.98259C4.828 3.98259 4.576 3.65859 4.576 3.03459C4.576 2.37459 4.924 1.96659 5.44 1.91859V0.310594C4.12 0.406594 3.244 1.37859 3.244 2.98659C3.244 4.63059 4.132 5.61459 5.236 5.61459C7.672 5.61459 6.916 1.85859 8.104 1.85859C8.488 1.85859 8.788 2.21859 8.788 2.87859C8.788 3.55059 8.404 4.01859 7.9 4.07859V5.77059C9.136 5.69859 10.108 4.53459 10.108 2.86659C10.108 1.24659 9.244 0.250594 8.104 0.250594Z" fill="#598AB3"/>
</svg>
