<svg width="30" height="31" viewBox="0 0 30 31" fill="none" xmlns="http://www.w3.org/2000/svg">
<path d="M29.6632 19.8562L25.6812 10.4963C24.8323 8.14928 22.8101 6.45165 20.3833 5.9845C21.4086 5.38065 23.0208 3.93936 22.3314 1.29606C22.2575 1.01122 21.9271 0.846017 21.6479 0.948552L10.129 5.26102C2.66623 7.94419 0.621094 14.524 0.621094 23.6331V28.259C0.621094 29.2673 1.43573 30.0819 2.44407 30.0819H15.8999C17.2557 30.0819 18.1387 28.6577 17.5292 27.4442L15.2049 22.7899V22.7501C12.6071 22.5508 10.3854 21.0011 9.2631 18.7852C9.17196 18.6086 9.21183 18.392 9.35425 18.2554L10.0436 17.566C10.2657 17.3439 10.6474 17.4122 10.7784 17.7028C11.6216 19.6226 13.5243 20.9727 15.7574 20.9727C16.7373 20.9727 17.6374 20.6822 18.4236 20.2208L21.044 23.8609C21.3859 24.3396 21.9384 24.6187 22.5253 24.6187H25.3907C25.8749 24.6187 26.3363 24.425 26.6782 24.0832L29.2588 21.8159C29.7657 21.2975 29.9253 20.5284 29.6632 19.8562ZM19.3066 13.6752C18.5488 13.6752 17.9392 13.0656 17.9392 12.3079C17.9392 11.5503 18.5488 10.9407 19.3066 10.9407C20.0642 10.9407 20.6738 11.5503 20.6738 12.3079C20.6738 13.0656 20.0642 13.6752 19.3066 13.6752Z" fill="#598AB3"/>
</svg>
