<svg width="30" height="29" viewBox="0 0 30 29" fill="none" xmlns="http://www.w3.org/2000/svg">
<path d="M17.1749 9.94271C16.0253 9.94271 11.0898 10.0555 7.91276 14.8389V9.94271C7.91276 6.92692 5.4598 4.47396 2.44401 4.47396C1.43742 4.47396 0.621094 5.29029 0.621094 6.29688C0.621094 7.30346 1.43742 8.11979 2.44401 8.11979C3.44889 8.11979 4.26693 8.93783 4.26693 9.94271V24.526C4.26693 26.5369 5.90185 28.1719 7.91276 28.1719H17.9388C18.4424 28.1719 18.8503 27.764 18.8503 27.2604V26.349C18.8503 25.3424 18.0339 24.526 17.0273 24.526H15.2044L22.4961 19.0573V27.2604C22.4961 27.764 22.904 28.1719 23.4076 28.1719H25.2305C25.734 28.1719 26.1419 27.764 26.1419 27.2604V15.5175C25.5557 15.6696 24.9519 15.776 24.319 15.776C20.7979 15.776 17.8522 13.2667 17.1749 9.94271ZM26.1419 4.47396H22.4961L18.8503 0.828125V8.48438C18.8503 11.5047 21.2987 13.9531 24.319 13.9531C27.3394 13.9531 29.7878 11.5047 29.7878 8.48438V0.828125L26.1419 4.47396ZM22.0404 9.03125C21.5368 9.03125 21.1289 8.62337 21.1289 8.11979C21.1289 7.61621 21.5368 7.20833 22.0404 7.20833C22.5439 7.20833 22.9518 7.61621 22.9518 8.11979C22.9518 8.62337 22.5439 9.03125 22.0404 9.03125ZM26.5977 9.03125C26.0941 9.03125 25.6862 8.62337 25.6862 8.11979C25.6862 7.61621 26.0941 7.20833 26.5977 7.20833C27.1012 7.20833 27.5091 7.61621 27.5091 8.11979C27.5091 8.62337 27.1012 9.03125 26.5977 9.03125Z" fill="#598AB3"/>
</svg>
