<svg width="30" height="29" viewBox="0 0 30 29" fill="none" xmlns="http://www.w3.org/2000/svg">
<path d="M15.7776 11.7662L24.319 14.8168V27.261C24.319 27.5028 24.2231 27.7347 24.052 27.9056C23.8811 28.0765 23.6493 28.1725 23.4076 28.1725H19.7617C19.5199 28.1725 19.2882 28.0765 19.1173 27.9056C18.9462 27.7347 18.8503 27.5028 18.8503 27.261V20.8808H9.73568V27.261C9.73568 27.5028 9.63965 27.7347 9.46871 27.9056C9.29778 28.0765 9.06595 28.1725 8.82422 28.1725H5.17839C4.93665 28.1725 4.70482 28.0765 4.53389 27.9056C4.36296 27.7347 4.26693 27.5028 4.26693 27.261V15.0755C2.15007 14.3207 0.621094 12.3166 0.621094 9.94336C0.621094 9.4599 0.813156 8.99623 1.15502 8.65436C1.49688 8.3125 1.96054 8.12045 2.44401 8.12045C2.92748 8.12045 3.39114 8.3125 3.733 8.65436C4.07486 8.99623 4.26693 9.4599 4.26693 9.94336C4.26783 10.4266 4.46017 10.8897 4.80184 11.2314C5.14352 11.573 5.60665 11.7654 6.08984 11.7662H15.7776ZM29.7878 5.38607V7.20899C29.7878 8.17592 29.4036 9.10325 28.72 9.78699C28.0362 10.4707 27.1088 10.8548 26.1419 10.8548H24.319V12.8817L17.0273 10.2777V1.74024C17.0273 0.928471 18.0084 0.521728 18.5831 1.09595L20.1371 2.6517H23.1922C23.8137 2.6517 24.5452 3.10286 24.8226 3.65942L25.2305 4.47461H28.8763C29.1181 4.47461 29.3498 4.57064 29.5207 4.74158C29.6918 4.91251 29.7878 5.14434 29.7878 5.38607ZM23.4076 5.38607C23.4076 5.20579 23.354 5.02958 23.254 4.87969C23.1538 4.72981 23.0115 4.61298 22.8449 4.54399C22.6784 4.47501 22.4951 4.45695 22.3183 4.49213C22.1414 4.52729 21.9791 4.6141 21.8517 4.74158C21.7241 4.86903 21.6373 5.03145 21.6021 5.20826C21.567 5.38505 21.5851 5.56832 21.6541 5.73488C21.723 5.90142 21.8398 6.04377 21.9898 6.14392C22.1395 6.24407 22.3158 6.29753 22.4961 6.29753C22.7379 6.29753 22.9696 6.2015 23.1405 6.03057C23.3116 5.85964 23.4076 5.6278 23.4076 5.38607Z" fill="#598AB3"/>
</svg>
