<svg width="163" height="22" viewBox="0 0 163 22" fill="none" xmlns="http://www.w3.org/2000/svg">
<path d="M6.52175 17.3313C5.34357 17.3313 4.20542 17.1657 3.10724 16.8343C2.00907 16.5029 1.14 16.0635 0.5 15.516L1.48181 13.3333C2.10726 13.8232 2.87451 14.223 3.7836 14.5327C4.69268 14.8425 5.60539 14.9974 6.52175 14.9974C7.65629 14.9974 8.50354 14.8173 9.06354 14.4571C9.62353 14.0969 9.90353 13.6215 9.90353 13.0308C9.90353 12.5986 9.74717 12.242 9.43444 11.961C9.12172 11.6801 8.72536 11.4604 8.24536 11.3019C7.8187 11.161 7.25413 11.0031 6.55165 10.8281L6.28175 10.7616C5.11812 10.4879 4.17632 10.2142 3.45633 9.94043C2.73633 9.66669 2.11817 9.23808 1.60181 8.65458C1.08545 8.07108 0.827269 7.28229 0.827269 6.28819C0.827269 5.45256 1.05635 4.69259 1.51453 4.00824C1.97271 3.32389 2.66361 2.78002 3.58724 2.37662C4.51087 1.97321 5.64175 1.77151 6.97993 1.77151C7.91083 1.77151 8.82717 1.88677 9.72898 2.11729C10.6308 2.34781 11.409 2.67917 12.0635 3.11139L11.169 5.29409C10.4999 4.90509 9.80171 4.60974 9.07445 4.40804C8.34718 4.20634 7.64174 4.10549 6.95811 4.10549C5.83811 4.10549 5.00541 4.29278 4.45995 4.66737C3.9145 5.04196 3.64178 5.53901 3.64178 6.15852C3.64178 6.59074 3.79814 6.94372 4.11087 7.21746C4.42359 7.4912 4.81995 7.7073 5.29994 7.86578C5.77994 8.02426 6.43447 8.20435 7.26356 8.40605C8.3981 8.66539 9.32899 8.93552 10.0563 9.21646C10.7835 9.4974 11.4053 9.92602 11.9217 10.5023C12.438 11.0786 12.6962 11.8566 12.6962 12.8363C12.6962 13.6719 12.4671 14.4283 12.009 15.1054C11.5508 15.7826 10.8562 16.3228 9.92535 16.7262C8.99444 17.1296 7.85992 17.3313 6.52175 17.3313ZM26.5288 5.57503V15.3648C26.5288 19.4276 24.5143 21.459 20.4852 21.459C19.4234 21.459 18.4089 21.3186 17.4416 21.0376C16.4744 20.7567 15.678 20.3497 15.0526 19.8166L16.2744 17.7852C16.7689 18.203 17.3725 18.5344 18.0853 18.7793C18.798 19.0242 19.547 19.1467 20.3325 19.1467C21.5252 19.1467 22.4016 18.8621 22.9616 18.293C23.5216 17.7239 23.8015 16.8487 23.8015 15.6673V15.127C23.3652 15.6025 22.8343 15.9663 22.2088 16.2184C21.5834 16.4705 20.907 16.5966 20.1798 16.5966C18.6234 16.5966 17.398 16.1716 16.5035 15.3215C15.6089 14.4715 15.1616 13.1965 15.1616 11.4964V5.57503H17.8889V11.1506C17.8889 12.1736 18.1252 12.9407 18.598 13.4522C19.0707 13.9637 19.7434 14.2194 20.6161 14.2194C21.5907 14.2194 22.3652 13.924 22.9397 13.3333C23.5143 12.7426 23.8015 11.8854 23.8015 10.7616V5.57503H26.5288ZM44.8122 5.44536C46.2813 5.44536 47.4449 5.86677 48.3031 6.7096C49.1613 7.55243 49.5903 8.81665 49.5903 10.5023V17.1152H46.8631V10.8481C46.8631 9.83957 46.6376 9.0796 46.1867 8.56814C45.7358 8.05668 45.0886 7.80095 44.2449 7.80095C43.3286 7.80095 42.5941 8.0999 42.0413 8.6978C41.4886 9.2957 41.2123 10.1493 41.2123 11.2587V17.1152H38.485V10.8481C38.485 9.83957 38.2596 9.0796 37.8087 8.56814C37.3577 8.05668 36.7105 7.80095 35.8669 7.80095C34.936 7.80095 34.1978 8.0963 33.6523 8.687C33.1069 9.2777 32.8342 10.1349 32.8342 11.2587V17.1152H30.1069V5.57503H32.7033V7.04457C33.1396 6.52591 33.6851 6.12971 34.3396 5.85597C34.9941 5.58223 35.7214 5.44536 36.5214 5.44536C37.3941 5.44536 38.1687 5.60744 38.845 5.93161C39.5214 6.25577 40.0559 6.73481 40.4486 7.36873C40.9286 6.76362 41.5468 6.29179 42.3032 5.95322C43.0595 5.61465 43.8959 5.44536 44.8122 5.44536ZM59.5393 5.44536C60.6739 5.44536 61.6884 5.69028 62.5829 6.18013C63.4775 6.66998 64.1793 7.36152 64.6883 8.25478C65.1974 9.14803 65.452 10.1781 65.452 11.3451C65.452 12.5121 65.1974 13.5458 64.6883 14.4463C64.1793 15.3468 63.4775 16.0419 62.5829 16.5317C61.6884 17.0216 60.6739 17.2665 59.5393 17.2665C57.9684 17.2665 56.7248 16.7479 55.8084 15.7105V21.3077H53.0812V5.57503H55.6775V7.08779C56.1284 6.54031 56.6848 6.12971 57.3466 5.85597C58.0084 5.58223 58.7393 5.44536 59.5393 5.44536ZM59.2339 14.9542C60.2375 14.9542 61.0629 14.6228 61.7102 13.96C62.3575 13.2973 62.6811 12.4257 62.6811 11.3451C62.6811 10.2646 62.3575 9.39295 61.7102 8.73022C61.0629 8.06748 60.2375 7.73612 59.2339 7.73612C58.5793 7.73612 57.9902 7.88379 57.4666 8.17914C56.943 8.47449 56.5284 8.8959 56.223 9.44338C55.9175 9.99085 55.7648 10.6248 55.7648 11.3451C55.7648 12.0655 55.9175 12.6994 56.223 13.2469C56.5284 13.7944 56.943 14.2158 57.4666 14.5111C57.9902 14.8065 58.5793 14.9542 59.2339 14.9542ZM74.5937 16.4885C74.2737 16.7479 73.8846 16.9424 73.4264 17.072C72.9683 17.2017 72.4846 17.2665 71.9755 17.2665C70.6955 17.2665 69.7065 16.9352 69.0083 16.2724C68.3101 15.6097 67.961 14.6444 67.961 13.3766V3.02495H70.6883V5.66147H73.8082V7.82256H70.6883V13.3117C70.6883 13.8736 70.8301 14.3022 71.1137 14.5976C71.3974 14.8929 71.7937 15.0406 72.3028 15.0406C72.9137 15.0406 73.4228 14.8821 73.8301 14.5652L74.5937 16.4885ZM81.6845 17.2665C80.5063 17.2665 79.4445 17.0144 78.4991 16.5101C77.5536 16.0059 76.8155 15.3035 76.2846 14.4031C75.7537 13.5026 75.4882 12.4833 75.4882 11.3451C75.4882 10.207 75.7537 9.19125 76.2846 8.298C76.8155 7.40475 77.5536 6.706 78.4991 6.20175C79.4445 5.69749 80.5063 5.44536 81.6845 5.44536C82.8772 5.44536 83.9463 5.69749 84.8917 6.20175C85.8372 6.706 86.5754 7.40475 87.1063 8.298C87.6372 9.19125 87.9026 10.207 87.9026 11.3451C87.9026 12.4833 87.6372 13.5026 87.1063 14.4031C86.5754 15.3035 85.8372 16.0059 84.8917 16.5101C83.9463 17.0144 82.8772 17.2665 81.6845 17.2665ZM81.6845 14.9542C82.6881 14.9542 83.5172 14.6228 84.1718 13.96C84.8263 13.2973 85.1536 12.4257 85.1536 11.3451C85.1536 10.2646 84.8263 9.39295 84.1718 8.73022C83.5172 8.06748 82.6881 7.73612 81.6845 7.73612C80.6809 7.73612 79.8554 8.06748 79.2082 8.73022C78.5609 9.39295 78.2373 10.2646 78.2373 11.3451C78.2373 12.4257 78.5609 13.2973 79.2082 13.96C79.8554 14.6228 80.6809 14.9542 81.6845 14.9542ZM107.844 1.77151C109.633 1.77151 111.03 2.28657 112.033 3.31669C113.037 4.34682 113.539 5.82715 113.539 7.75773V17.1152H110.702V7.86578C110.702 6.66997 110.386 5.76593 109.753 5.15362C109.121 4.54131 108.295 4.23515 107.277 4.23515C106.142 4.23515 105.237 4.55211 104.561 5.18603C103.884 5.81996 103.546 6.79244 103.546 8.1035V17.1152H100.71V7.86578C100.71 6.65557 100.415 5.74792 99.8261 5.14281C99.237 4.5377 98.4334 4.23515 97.4152 4.23515C96.2662 4.23515 95.3462 4.55571 94.6553 5.19684C93.9644 5.83797 93.6189 6.80684 93.6189 8.1035V17.1152H90.7826V1.98762H93.5317V3.97582C93.9971 3.26987 94.6298 2.726 95.4298 2.3442C96.2298 1.96241 97.1534 1.77151 98.2007 1.77151C99.277 1.77151 100.215 1.97321 101.015 2.37662C101.815 2.78002 102.419 3.34911 102.826 4.08388C103.335 3.34911 104.03 2.78002 104.91 2.37662C105.79 1.97321 106.768 1.77151 107.844 1.77151ZM122.789 14.9758C124.055 14.9758 125.109 14.558 125.953 13.7223L127.393 15.3864C126.884 16.0059 126.229 16.4741 125.429 16.7911C124.629 17.108 123.728 17.2665 122.724 17.2665C121.444 17.2665 120.317 17.0144 119.342 16.5101C118.368 16.0059 117.615 15.3035 117.084 14.4031C116.553 13.5026 116.288 12.4833 116.288 11.3451C116.288 10.2214 116.546 9.20926 117.062 8.30881C117.579 7.40835 118.291 6.706 119.2 6.20175C120.11 5.69749 121.139 5.44536 122.288 5.44536C123.379 5.44536 124.371 5.67948 125.266 6.14772C126.16 6.61596 126.869 7.28589 127.393 8.15753C127.917 9.02917 128.179 10.0485 128.179 11.2155L119.255 12.9443C119.531 13.6071 119.975 14.1113 120.586 14.4571C121.197 14.8029 121.931 14.9758 122.789 14.9758ZM122.288 7.60645C121.284 7.60645 120.473 7.93061 119.855 8.57894C119.278 9.18405 118.97 9.98368 118.932 10.9778L118.928 11.2155L125.517 9.96204C125.328 9.25608 124.946 8.687 124.371 8.25478C123.797 7.82256 123.102 7.60645 122.288 7.60645ZM142.207 1.07997V17.1152H139.589V15.6241C139.138 16.1716 138.582 16.5822 137.92 16.8559C137.258 17.1296 136.528 17.2665 135.728 17.2665C134.608 17.2665 133.6 17.0216 132.706 16.5317C131.811 16.0419 131.109 15.3468 130.6 14.4463C130.091 13.5458 129.837 12.5121 129.837 11.3451C129.837 10.1781 130.091 9.14803 130.6 8.25478C131.109 7.36152 131.811 6.66998 132.706 6.18013C133.6 5.69028 134.608 5.44536 135.728 5.44536C136.498 5.44536 137.204 5.57503 137.844 5.83436C138.484 6.09369 139.029 6.48269 139.48 7.00135V1.07997H142.207ZM136.055 14.9542C136.709 14.9542 137.298 14.8065 137.822 14.5111C138.346 14.2158 138.76 13.7944 139.066 13.2469C139.371 12.6994 139.524 12.0655 139.524 11.3451C139.524 10.6248 139.371 9.99085 139.066 9.44338C138.76 8.8959 138.346 8.47449 137.822 8.17914C137.298 7.88379 136.709 7.73612 136.055 7.73612C135.4 7.73612 134.811 7.88379 134.288 8.17914C133.764 8.47449 133.349 8.8959 133.044 9.44338C132.738 9.99085 132.586 10.6248 132.586 11.3451C132.586 12.0655 132.738 12.6994 133.044 13.2469C133.349 13.7944 133.764 14.2158 134.288 14.5111C134.811 14.8065 135.4 14.9542 136.055 14.9542ZM145.786 5.57503H148.513V17.1152H145.786V5.57503ZM147.16 3.67327C146.666 3.67327 146.251 3.5184 145.917 3.20864C145.582 2.89888 145.415 2.51349 145.415 2.05246C145.415 1.59142 145.582 1.20603 145.917 0.896274C146.251 0.586517 146.666 0.431641 147.16 0.431641C147.655 0.431641 148.069 0.579313 148.404 0.874664C148.738 1.17001 148.906 1.541 148.906 1.98762C148.906 2.46307 148.742 2.86286 148.415 3.18703C148.087 3.51119 147.669 3.67327 147.16 3.67327ZM157.436 17.2665C156.229 17.2665 155.145 17.0144 154.185 16.5101C153.225 16.0059 152.476 15.3035 151.938 14.4031C151.4 13.5026 151.131 12.4833 151.131 11.3451C151.131 10.207 151.4 9.19125 151.938 8.298C152.476 7.40475 153.222 6.706 154.175 6.20175C155.127 5.69749 156.215 5.44536 157.436 5.44536C158.585 5.44536 159.593 5.67588 160.458 6.13691C161.324 6.59795 161.974 7.26067 162.411 8.12511L160.316 9.33532C159.982 8.80225 159.564 8.40245 159.062 8.13592C158.56 7.86938 158.011 7.73612 157.415 7.73612C156.396 7.73612 155.553 8.06388 154.884 8.71941C154.215 9.37494 153.88 10.2502 153.88 11.3451C153.88 12.4401 154.211 13.3153 154.873 13.9709C155.535 14.6264 156.382 14.9542 157.415 14.9542C158.011 14.9542 158.56 14.8209 159.062 14.5543C159.564 14.2878 159.982 13.888 160.316 13.3549L162.411 14.5652C161.96 15.4296 161.302 16.0959 160.436 16.5642C159.571 17.0324 158.571 17.2665 157.436 17.2665Z" fill="white"/>
</svg>
